<svg xmlns="http://www.w3.org/2000/svg" viewBox="0 0 500 500"><g id="freepik--background-complete--inject-1"><rect y="382.4" width="500" height="0.25" style="fill:#ebebeb"></rect><rect x="396.83" y="398.49" width="53.07" height="0.25" style="fill:#ebebeb"></rect><rect x="272.56" y="395.36" width="58.66" height="0.25" style="fill:#ebebeb"></rect><rect x="380.2" y="393.92" width="19.19" height="0.25" style="fill:#ebebeb"></rect><rect x="100.47" y="390.89" width="43.19" height="0.25" style="fill:#ebebeb"></rect><rect x="79.46" y="390.89" width="15.44" height="0.25" style="fill:#ebebeb"></rect><rect x="131.47" y="395.11" width="54.2" height="0.25" style="fill:#ebebeb"></rect><path d="M237,337.8H43.91a5.71,5.71,0,0,1-5.7-5.71V60.66A5.71,5.71,0,0,1,43.91,55H237a5.71,5.71,0,0,1,5.71,5.71V332.09A5.71,5.71,0,0,1,237,337.8ZM43.91,55.2a5.46,5.46,0,0,0-5.45,5.46V332.09a5.46,5.46,0,0,0,5.45,5.46H237a5.47,5.47,0,0,0,5.46-5.46V60.66A5.47,5.47,0,0,0,237,55.2Z" style="fill:#ebebeb"></path><path d="M453.31,337.8H260.21a5.72,5.72,0,0,1-5.71-5.71V60.66A5.72,5.72,0,0,1,260.21,55h193.1A5.71,5.71,0,0,1,459,60.66V332.09A5.71,5.71,0,0,1,453.31,337.8ZM260.21,55.2a5.47,5.47,0,0,0-5.46,5.46V332.09a5.47,5.47,0,0,0,5.46,5.46h193.1a5.47,5.47,0,0,0,5.46-5.46V60.66a5.47,5.47,0,0,0-5.46-5.46Z" style="fill:#ebebeb"></path><rect x="61.52" y="110.37" width="136.43" height="155.25" style="fill:#f5f5f5"></rect><rect x="197.95" y="110.37" width="1.86" height="155.25" transform="translate(397.76 375.99) rotate(180)" style="fill:#e0e0e0"></rect><rect x="71.04" y="117.21" width="117.39" height="141.58" style="fill:#fafafa"></rect><rect x="289.99" y="83.39" width="134.71" height="239.59" transform="translate(714.69 406.37) rotate(180)" style="fill:#e6e6e6"></rect><path d="M275.55,78.79H433.42a1.34,1.34,0,0,1,1.34,1.34h0a1.34,1.34,0,0,1-1.34,1.33H275.55a1.33,1.33,0,0,1-1.33-1.33h0A1.33,1.33,0,0,1,275.55,78.79Z" style="fill:#e6e6e6"></path><rect x="284.27" y="83.39" width="137.76" height="239.59" transform="translate(706.3 406.37) rotate(180)" style="fill:#f0f0f0"></rect><polygon points="289.99 322.98 424.7 322.98 424.7 326.77 286.05 326.77 289.99 322.98" style="fill:#e6e6e6"></polygon><polygon points="274.75 322.98 412.51 322.98 408.57 326.77 270.81 326.77 274.75 322.98" style="fill:#f0f0f0"></polygon><rect x="241.36" y="142.31" width="223.59" height="121.75" transform="translate(556.34 -149.97) rotate(90)" style="fill:#fafafa"></rect><polygon points="386.39 314.98 339.42 91.39 317.25 91.39 364.22 314.98 386.39 314.98" style="fill:#fff"></polygon><polygon points="359.45 314.98 312.49 91.39 303.84 91.39 350.81 314.98 359.45 314.98" style="fill:#fff"></polygon><rect x="180.99" y="202.68" width="223.59" height="1.02" transform="translate(495.97 -89.6) rotate(90)" style="fill:#e6e6e6"></rect><g style="opacity:0.4"><rect x="413.93" y="76.4" width="13.77" height="218.92" transform="translate(841.64 371.71) rotate(180)" style="fill:#f0f0f0"></rect><rect x="408.57" y="76.4" width="10.73" height="218.92" transform="translate(827.87 371.71) rotate(180)" style="fill:#e6e6e6"></rect><rect x="400.16" y="76.4" width="13.77" height="218.92" transform="translate(814.1 371.71) rotate(180)" style="fill:#f0f0f0"></rect><rect x="394.8" y="76.4" width="10.73" height="218.92" transform="translate(800.32 371.71) rotate(180)" style="fill:#e6e6e6"></rect><rect x="386.39" y="76.4" width="13.77" height="218.92" transform="translate(786.55 371.71) rotate(180)" style="fill:#f0f0f0"></rect></g><g style="opacity:0.4"><rect x="297.4" y="76.4" width="7.94" height="218.92" transform="translate(602.74 371.71) rotate(180)" style="fill:#f0f0f0"></rect><rect x="294.31" y="76.4" width="6.18" height="218.92" transform="translate(594.8 371.71) rotate(180)" style="fill:#e6e6e6"></rect><rect x="289.46" y="76.4" width="7.94" height="218.92" transform="translate(586.87 371.71) rotate(180)" style="fill:#f0f0f0"></rect><rect x="286.37" y="76.4" width="6.18" height="218.92" transform="translate(578.93 371.71) rotate(180)" style="fill:#e6e6e6"></rect><rect x="281.53" y="76.4" width="7.94" height="218.92" transform="translate(570.99 371.71) rotate(180)" style="fill:#f0f0f0"></rect></g><path d="M143.43,365c1.62-59.27-1.49-155.39-7.31-187.6a4.3,4.3,0,0,0-2-2.83h0c-3-1.93-4.81.37-4.43,3.66,1.82,15.94,3.45,55.45,5.08,124.2.81,34.21,0,57.65,2.17,62.59Z" style="fill:#e6e6e6"></path><path d="M138.61,232.81c5.36-16.08,24.8-29.91,43.06-26.42,5.35,1-22.11,27.05-29.59,47.67-5.81,16-11.68,42.94-13.23,57.88C138.18,280.52,133.25,248.89,138.61,232.81Z" style="fill:#e6e6e6"></path><path d="M144.81,268c5.36-16.08,18-27.54,31.7-27.53,5.39,0-15,18.73-22.44,39.35-5.81,16-11.68,42.94-13.23,57.88C140.17,306.3,139.45,284.1,144.81,268Z" style="fill:#e6e6e6"></path><path d="M132.88,264.43c-7.9-17.64-26-33.43-41-33.43-6.28,0,18.46,27.21,29.3,49.88,8.42,17.62,17.92,46.81,21.15,62.82C140.19,310.45,140.77,282.06,132.88,264.43Z" style="fill:#e6e6e6"></path><path d="M139.63,197.06c4.54-13.61,15.21-23.32,26.84-23.31,4.57,0-12.67,15.86-19,33.32-4.92,13.56-9.89,36.36-11.2,49C135.7,229.48,135.09,210.68,139.63,197.06Z" style="fill:#e6e6e6"></path><path d="M128.84,204.34c-6.69-14.93-20.34-26.38-34.26-27.63-5.46-.49,16.62,18.19,25.8,37.39,7.14,14.92,15.18,39.64,17.91,53.2C136.53,239.14,135.52,219.27,128.84,204.34Z" style="fill:#e6e6e6"></path><path d="M129.48,224c-7.42-16.58-28.86-32.67-45.25-27.49-5.61,1.77,25.67,17,35.87,38.33C128,251.4,137,278.85,140,293.91,138,262.64,136.9,240.58,129.48,224Z" style="fill:#e6e6e6"></path><path d="M120.9,360.07l1,18.86c.11,3.58,1.66,3.47,3.53,3.47h24.94c1.87,0,3.42.11,3.53-3.47l1-18.87c.11-3.88-1.5-7.15-3.53-7.15H124.43C122.4,352.91,120.78,356.18,120.9,360.07Z" style="fill:#e6e6e6"></path><path d="M119.41,358.43h37a1,1,0,0,0,1.06-.87l.87-7.3a1,1,0,0,0-1.05-1.09H118.53a1,1,0,0,0-1.06,1.09l.88,7.3A1,1,0,0,0,119.41,358.43Z" style="fill:#f5f5f5"></path></g><g id="freepik--Shadow--inject-1"><ellipse id="freepik--path--inject-1" cx="250" cy="416.24" rx="193.89" ry="11.32" style="fill:#f5f5f5"></ellipse></g><g id="freepik--Ball--inject-1"><circle cx="340.34" cy="346.21" r="66.22" style="fill:#373856"></circle><g style="opacity:0.2"><path d="M405.41,358.53a195.24,195.24,0,0,1-52.82,52.75c.91-.17,1.82-.36,2.72-.57a196,196,0,0,0,49.51-49.44C405,360.36,405.23,359.44,405.41,358.53Z" style="fill:#fff"></path><path d="M406.21,339.44q-.09-.87-.21-1.74a215.51,215.51,0,0,1-74.23,74.16l1.73.2A216.39,216.39,0,0,0,406.21,339.44Z" style="fill:#fff"></path><path d="M402.91,324.47c-.15-.43-.32-.85-.48-1.28a235.11,235.11,0,0,1-85.16,85.09l1.29.47A236,236,0,0,0,402.91,324.47Z" style="fill:#fff"></path><path d="M397.59,312.91c-.2-.35-.42-.69-.62-1a254.45,254.45,0,0,1-91,90.94l1,.62A255.5,255.5,0,0,0,397.59,312.91Z" style="fill:#fff"></path><path d="M391,303.56c-.24-.29-.49-.57-.73-.85a273.47,273.47,0,0,1-93.44,93.37l.85.73A274.53,274.53,0,0,0,391,303.56Z" style="fill:#fff"></path><path d="M383.29,295.83c-.27-.24-.54-.48-.82-.7a292.49,292.49,0,0,1-93.24,93.18l.71.81A293.37,293.37,0,0,0,383.29,295.83Z" style="fill:#fff"></path><path d="M371.33,287.67l-.91-.46a244.35,244.35,0,0,1-89.09,89c.15.3.29.61.45.91A245.36,245.36,0,0,0,371.33,287.67Z" style="fill:#fff"></path><path d="M357.62,282.29l-1-.26a200.45,200.45,0,0,1-80.5,80.45c.08.32.17.63.25.95A201.34,201.34,0,0,0,357.62,282.29Z" style="fill:#fff"></path><path d="M342.27,280l-1,0a160.42,160.42,0,0,1-67.11,67.05c0,.34,0,.68,0,1A161.38,161.38,0,0,0,342.27,280Z" style="fill:#fff"></path><path d="M276,330.76a125.06,125.06,0,0,0,49-49l-1.15.29a124.19,124.19,0,0,1-47.56,47.51C276.15,330,276,330.38,276,330.76Z" style="fill:#fff"></path></g></g><g id="freepik--Character--inject-1"><circle cx="210.75" cy="122.35" r="9.95" transform="translate(43.26 299.35) rotate(-76.72)" style="fill:#263238"></circle><path d="M213.83,133.81a.54.54,0,0,1-.15-1.06,9.4,9.4,0,0,0,2-17.26,9.33,9.33,0,0,0-7.16-.84.54.54,0,0,1-.29-1,10.48,10.48,0,1,1,5.7,20.18Z" style="fill:#263238"></path><path d="M217.38,134a.53.53,0,0,1-.28-1A9.41,9.41,0,1,0,207.3,117a.54.54,0,0,1-.56-.92A10.49,10.49,0,0,1,217.66,134,.55.55,0,0,1,217.38,134Z" style="fill:#263238"></path><path d="M183.14,157.06a137.21,137.21,0,0,1-15.78-9.94,75.62,75.62,0,0,1-7.43-6.07,38.25,38.25,0,0,1-3.52-3.73,17.24,17.24,0,0,1-3.1-5.32l-.14-.46L153,131l-.05-.26,0-.18,0-.36-.16-1.43c0-.81-.09-1.65-.1-2.45,0-1.59,0-3.15,0-4.69.06-3.08.24-6.12.42-9.16.41-6.07,1-12.09,1.81-18.13a2.45,2.45,0,0,1,4.87.2v0c.31,6,.54,12,.77,18,.11,3,.27,6,.42,8.92.08,1.47.19,2.93.32,4.34l.22,2.06a6.85,6.85,0,0,0,.25,1.19,10,10,0,0,0,1.67,2.3,33.58,33.58,0,0,0,2.83,2.7c2.08,1.77,4.38,3.47,6.75,5.12s4.85,3.21,7.34,4.75,5.06,3.06,7.51,4.49l.1.05a4.92,4.92,0,0,1-4.81,8.59Z" style="fill:#ffc3bd"></path><path d="M159.25,98.06l7.94-7.3-9.32-3s-6.05,4.51-3.12,9Z" style="fill:#ffc3bd"></path><path d="M165.71,84.16l-3.46-.91a2.66,2.66,0,0,0-3.13,1.53l-1.25,3,9.32,3,.48-3.69A2.67,2.67,0,0,0,165.71,84.16Z" style="fill:#ffc3bd"></path><rect x="141.53" y="81" width="11.12" height="16.15" rx="3.72" style="fill:#373856"></rect><rect x="169.66" y="81" width="11.12" height="16.15" rx="3.72" style="fill:#373856"></rect><path d="M173.28,91H149a2,2,0,0,1-1.94-2h0A1.94,1.94,0,0,1,149,87.13h24.25a2,2,0,0,1,1.94,1.94h0A2,2,0,0,1,173.28,91Z" style="fill:#373856"></path><path d="M177.14,153.94c-.16,7,.82,21.52,5.73,51.7H222c-.61-14.74-1.32-24.39,4.63-51.7a6.73,6.73,0,0,0-5.68-8.1c-2.52-.34-5.51-.66-8.63-.81a123.85,123.85,0,0,0-17.77,0c-3.82.35-7.91,1-11,1.5A7.68,7.68,0,0,0,177.14,153.94Z" style="fill:#373856"></path><path d="M194.55,145c-7-3.14-16.8-3.82-16.8-3.82a43.7,43.7,0,0,0-3.2,16.28c10.59,2.43,15.11.86,15.9-1.88S194.55,145,194.55,145Z" style="fill:#373856"></path><path d="M210.56,125c-1.12,5.72-2.24,16.19,1.76,20,0,0-3.38,9.36-15.9,11.1-7.09-5.85-1.87-11.1-1.87-11.1,6.38-1.53,6.21-6.26,5.1-10.7Z" style="fill:#ffc3bd"></path><path d="M206.11,128.82l-6.45,5.51a19.63,19.63,0,0,1,.55,3.15c2.43-.35,5.78-3,6-5.57A8.67,8.67,0,0,0,206.11,128.82Z" style="opacity:0.2"></path><path d="M217.35,117.71c-3.76,8.79-5.16,12.59-11.35,15.58-9.3,4.51-19.28-2-18.22-11.77.95-8.77,6.94-21.67,17-22.11A13,13,0,0,1,217.35,117.71Z" style="fill:#ffc3bd"></path><path d="M202.91,98.06c.59-2.1-2.18-12.83-9.13-11.52S185,101,197,102.25C197,102.25,201.3,103.83,202.91,98.06Z" style="fill:#263238"></path><path d="M201.79,104.05c-3.25,2.21-7.39,1.78-9.24-1s-.72-6.74,2.53-8.94,7.39-1.78,9.24,1S205,101.85,201.79,104.05Z" style="fill:#373856"></path><path d="M210.75,93.89c-8.42-2.59-18.29,2.16-18,11.29,13.17.63,14.48,5.19,19.58,5.19-2.27,3-3.53,11.88,1.58,10.63,9.34,4,12.86-6.28,10.88-9.4C226.52,103.63,220.05,96.76,210.75,93.89Z" style="fill:#263238"></path><ellipse cx="222.72" cy="108.21" rx="5.98" ry="7.83" style="fill:#373856"></ellipse><path d="M221.65,104.07c1.43-1.89,13.31-7.2,17-.12s-6.38,17.65-16.42,8.58C222.24,112.53,217.72,109.22,221.65,104.07Z" style="fill:#263238"></path><path d="M183.7,206.11S169.83,265.89,164,294.69c-6.08,30-19.05,110.87-19.05,110.87l8-.52s25.57-69,30.75-106.45C195.24,267.49,213.3,205,213.3,205Z" style="fill:#ffc3bd"></path><path d="M144.42,404.91l3-16.87s7.54-1.33,12.75-1.91c-2,4.95-6.84,18.78-6.84,18.78Z" style="fill:#373856"></path><path d="M144.93,404l8.15-.22a.83.83,0,0,1,.87.64l1.58,7.62a1.62,1.62,0,0,1-1.67,1.78c-4.21,0-4.46-.17-9.76,0-3.27.08-9.19,1.47-13.61.67s-2.72-4.43-.8-4.4c6.95.12,7.67-2,13.46-5.42A3.66,3.66,0,0,1,144.93,404Z" style="fill:#263238"></path><path d="M222,205.64s24,56.77,25.93,88.83c12.08,28,22.91,111.09,22.91,111.09l-8-.52s-19-65.84-33.34-105.79c-11.56-31.1-39-93.06-39-93.06Z" style="fill:#ffc3bd"></path><path d="M262.25,404.91l-5.48-18.82a101.09,101.09,0,0,1,11.86.74c.82,5.08,2.18,17.71,2.18,17.71Z" style="fill:#373856"></path><path d="M263.15,404l7.38-.2a.78.78,0,0,1,.8.65l1.45,7.62a1.56,1.56,0,0,1-1.52,1.77c-3.81,0-4-.18-8.83-.05-3,.08-4.2.64-7.26.64-4,0-2.41-3.93-.74-4.4,3.9-1.12,5.49-3.84,7.11-5.39A2.44,2.44,0,0,1,263.15,404Z" style="fill:#263238"></path><path d="M202.82,115.35c-.26.74-.86,1.19-1.34,1s-.65-.9-.39-1.63.86-1.19,1.34-1S203.08,114.62,202.82,115.35Z" style="fill:#263238"></path><path d="M194.55,112.4c-.26.73-.86,1.19-1.34,1s-.66-.9-.4-1.64.87-1.18,1.34-1S194.81,111.67,194.55,112.4Z" style="fill:#263238"></path><path d="M194.35,110.88l-1.58-1.13S193.19,111.44,194.35,110.88Z" style="fill:#263238"></path><path d="M196.29,114.44a20.74,20.74,0,0,1-4.28,3.74,3.32,3.32,0,0,0,2.43,1.42Z" style="fill:#ed847e"></path><path d="M197.26,123.73a6.44,6.44,0,0,1-1.27-.33.23.23,0,0,1-.14-.29.24.24,0,0,1,.3-.14,6.12,6.12,0,0,0,5.53-.58.24.24,0,0,1,.32,0,.23.23,0,0,1,0,.32A6.41,6.41,0,0,1,197.26,123.73Z" style="fill:#263238"></path><path d="M217.75,123.15a7,7,0,0,1-4.36,3.08c-2.39.52-3.45-1.65-2.67-3.84.71-2,2.8-4.61,5.15-4.15A3.14,3.14,0,0,1,217.75,123.15Z" style="fill:#ffc3bd"></path><path d="M205.45,112.26a.43.43,0,0,1-.28-.22,3.67,3.67,0,0,0-2.67-1.93.46.46,0,1,1,.06-.91,4.55,4.55,0,0,1,3.41,2.4.46.46,0,0,1-.18.62A.45.45,0,0,1,205.45,112.26Z" style="fill:#263238"></path><path d="M192.05,107.13a.44.44,0,0,1-.21-.27.45.45,0,0,1,.3-.56,4.52,4.52,0,0,1,4.11.68.45.45,0,0,1,.06.64.47.47,0,0,1-.65.06,3.57,3.57,0,0,0-3.25-.51A.44.44,0,0,1,192.05,107.13Z" style="fill:#263238"></path><path d="M202.62,113.84l-1.57-1.14S201.46,114.4,202.62,113.84Z" style="fill:#263238"></path><path d="M183,207.77l39.71-1.28a.57.57,0,0,0,.53-.72l-.6-2.11a.56.56,0,0,0-.56-.41l-39.19,1.28a.58.58,0,0,0-.55.59l.07,2.1A.56.56,0,0,0,183,207.77Z" style="fill:#263238"></path><path d="M215.9,205s-8.43,33-16.5,49.15c-7.54,1.89-23.68-7.53-25.57-11.48,4.13-21.62,6.76-32.92,9.87-36.6C201.7,206.38,215.9,205,215.9,205Z" style="fill:#263238"></path><path d="M202,220.65c-3.46,7.69-2.79,21.41-1.34,31,2.11-4.62,4.21-10.23,6.15-15.92Z" style="opacity:0.2"></path><path d="M188.72,205.75s11,32.3,19.11,48.44c8.21-.36,27.66-9.12,29.54-13.06C233.25,219.51,225.09,208.71,222,205,204,205.3,188.72,205.75,188.72,205.75Z" style="fill:#263238"></path><path d="M223.6,147.57c4.71,1.38,9.67,2.7,14.46,3.69a57.57,57.57,0,0,0,7,1,16.68,16.68,0,0,0,2.94,0,4.67,4.67,0,0,0,.77-.13c.06,0,0,0-.05.09l-.16.17s-.06.07-.09.12-.08.13,0,0a24.33,24.33,0,0,0,1.66-2.77c.57-1.06,1.11-2.17,1.65-3.3,1.06-2.27,2.12-4.59,3.13-6.94l6.15-14.2v0a2.45,2.45,0,0,1,4.65,1.47c-1.06,5.16-2.33,10.23-3.84,15.29-.77,2.52-1.56,5-2.48,7.57-.47,1.26-.95,2.53-1.5,3.82a29.7,29.7,0,0,1-2.05,4l-.31.44a5.06,5.06,0,0,1-.41.49,6.73,6.73,0,0,1-.87.83,8.53,8.53,0,0,1-1.72,1.07,12.39,12.39,0,0,1-3,.95,23,23,0,0,1-4.82.37,56.26,56.26,0,0,1-8.43-.83A110.65,110.65,0,0,1,220.59,157a4.92,4.92,0,0,1,2.89-9.41Z" style="fill:#ffc3bd"></path><path d="M219.63,145.67c7.58,1.1,11.48,3,11.48,3s-.46,8.85-4.33,15.64c-9.38-5-12.36-11.79-11.55-14.52S219.63,145.67,219.63,145.67Z" style="fill:#373856"></path><path d="M261,127.75l-5.14-9,10,3.32s1.57,4.35-1.19,7.25Z" style="fill:#ffc3bd"></path><path d="M259.62,114.05l3.93,1a2.47,2.47,0,0,1,1.88,2.19l.42,4.82-10-3.32.81-2.91A2.48,2.48,0,0,1,259.62,114.05Z" style="fill:#ffc3bd"></path><rect x="242.16" y="108.77" width="11.12" height="16.15" rx="3.72" transform="translate(24.54 -41.93) rotate(10.18)" style="fill:#373856"></rect><rect x="269.85" y="113.74" width="11.12" height="16.15" rx="3.72" transform="translate(25.86 -46.75) rotate(10.18)" style="fill:#373856"></rect><path d="M273.16,123.38,249.3,119.1a2,2,0,0,1-1.57-2.26h0a2,2,0,0,1,2.25-1.57l23.86,4.28a2,2,0,0,1,1.57,2.26h0A2,2,0,0,1,273.16,123.38Z" style="fill:#373856"></path></g></svg>