<svg xmlns="http://www.w3.org/2000/svg" viewBox="0 0 750 500"><g id="freepik--background-simple--inject-21"><path d="M550.2,48.25,548.69,50C536,64.47,532.06,84.68,539,102.45a50.46,50.46,0,0,0,3.17,6.64,54.17,54.17,0,0,0,43.66,26.62c10.51.51,21.63-2,31.2,2.31,12.45,5.56,17.42,20.13,21.12,33.15s8.7,27.59,21.18,33.09c7.81,3.44,17,2.39,25.06-.64,21.27-8,35.81-29.25,39.33-51.48s-2.8-45.06-13.7-64.7c-15.26-27.5-40.42-50.28-70.89-59.08S573,26.18,550.2,48.25Z" style="fill:#f5f5f5"></path><path d="M215,52.9l1.35,1.83c11.43,15.49,13.75,36,5.42,53.1a50.41,50.41,0,0,1-3.7,6.36,54.15,54.15,0,0,1-45.69,23c-10.51-.35-21.4-3.71-31.28-.23-12.86,4.52-19,18.63-23.74,31.31S106.46,195,93.58,199.5c-8.07,2.8-17.17,1-24.93-2.67-20.54-9.73-33.31-32.07-35-54.51S40.1,97.63,52.56,79C70,52.78,97,32.13,128,25.83S194.05,29.05,215,52.9Z" style="fill:#f5f5f5"></path><circle cx="340.5" cy="89.35" r="52.79" style="fill:#f5f5f5"></circle><circle cx="691.78" cy="277.55" r="32.78" transform="translate(264.71 888.45) rotate(-76.9)" style="fill:#f5f5f5"></circle><circle cx="76.95" cy="383.8" r="32.78" transform="translate(-310.79 330.13) rotate(-70.78)" style="fill:#f5f5f5"></circle></g><g id="freepik--Table--inject-21"><path d="M700.94,475.69c0,.15-145.94.26-325.92.26s-326-.11-326-.26,145.91-.26,326-.26S700.94,475.55,700.94,475.69Z" style="fill:#263238"></path></g><g id="freepik--speech-bubble-3--inject-21"><path d="M616.33,188.22l4.56-10.55a36.92,36.92,0,1,1,7.26,11.08h0Z" style="fill:#fff"></path><path d="M616.33,188.22h.8l2.29.07,8.75.3-.16.26v0a.16.16,0,0,1,.06-.23.17.17,0,0,1,.21,0,37,37,0,0,0,15.25,9.52,36.08,36.08,0,0,0,11.58,1.73,36.5,36.5,0,0,0,30.38-56.36l-1.25-1.87-1.41-1.74a40.44,40.44,0,0,0-3-3.24,37.67,37.67,0,0,0-7.06-5.14,37.18,37.18,0,0,0-16.07-4.67A36.71,36.71,0,0,0,621,177.61v.14c-1.5,3.35-2.66,5.94-3.46,7.74l-.91,2c-.21.46-.34.71-.34.71s.08-.22.26-.67.47-1.15.83-2c.76-1.85,1.87-4.5,3.31-7.94v.13a36.81,36.81,0,0,1-2.84-17.94,37.32,37.32,0,0,1,38.81-33.71,37.73,37.73,0,0,1,23.63,10,38.91,38.91,0,0,1,3.1,3.32l1.44,1.77,1.28,1.91A37.23,37.23,0,0,1,668.32,198a36.87,36.87,0,0,1-13.22,2.47,36.37,36.37,0,0,1-11.74-1.83,36.93,36.93,0,0,1-15.34-9.8l.28-.2v0a.17.17,0,0,1-.07.23.16.16,0,0,1-.09,0l-8.86-.52-2.23-.14Z" style="fill:#263238"></path><path d="M647.89,163.52a4.07,4.07,0,1,1-4.06-4.06A4.07,4.07,0,0,1,647.89,163.52Z" style="fill:#263238"></path><path d="M659.32,163.52a4.07,4.07,0,1,1-4.07-4.06A4.07,4.07,0,0,1,659.32,163.52Z" style="fill:#263238"></path><path d="M670.75,163.52a4.07,4.07,0,1,1-4.07-4.06A4.07,4.07,0,0,1,670.75,163.52Z" style="fill:#263238"></path></g><g id="freepik--speech-bubble-2--inject-21"><path d="M412.26,105.92l2.61-13a42.68,42.68,0,1,1,10.85,10.75v0Z" style="fill:#fff"></path><path d="M412.26,105.92l.84-.11,2.56-.39,10.1-1.56a.15.15,0,0,0,.12-.17.2.2,0,0,0,0-.08v0l-.2.22a42.63,42.63,0,0,0,26.25,7.55,49.09,49.09,0,0,0,7-1,42.58,42.58,0,0,0,26.42-17.92,42.91,42.91,0,0,0,6.78-17.11,42.39,42.39,0,0,0-1.42-19.49,41.93,41.93,0,0,0-10.56-17.51l-1.89-1.85-2.05-1.65-1-.83-1.08-.72-2.18-1.44c-.74-.45-1.52-.83-2.27-1.24a20.62,20.62,0,0,0-2.31-1.14,38.48,38.48,0,0,0-4.79-1.8A43.58,43.58,0,0,0,443,26.28a42.9,42.9,0,0,0-35,33.5,48,48,0,0,0-.9,7.07,57.25,57.25,0,0,0,.26,6.63A42.46,42.46,0,0,0,414.75,93l0-.11c-.81,4.23-1.44,7.49-1.87,9.73-.2,1.06-.35,1.89-.46,2.47s-.14.81-.14.81.08-.3.2-.86.3-1.42.53-2.5c.47-2.2,1.15-5.42,2-9.59a.18.18,0,0,0,0-.12,42.44,42.44,0,0,1-7.25-19.42,58.51,58.51,0,0,1-.22-6.56,46.8,46.8,0,0,1,.93-7,42.45,42.45,0,0,1,34.6-33,43,43,0,0,1,19.3,1.43,37.08,37.08,0,0,1,4.7,1.77,19.12,19.12,0,0,1,2.27,1.12c.75.41,1.52.78,2.24,1.22l2.14,1.42,1.07.71,1,.81,2,1.63,1.86,1.82a41.4,41.4,0,0,1,10.4,17.22,41.89,41.89,0,0,1,1.42,19.18A42.48,42.48,0,0,1,472.89,104a41.91,41.91,0,0,1-14.08,5.92,46.65,46.65,0,0,1-6.95,1,41.77,41.77,0,0,1-6.56-.16,42.68,42.68,0,0,1-19.5-7.13.15.15,0,0,0-.21,0,.15.15,0,0,0,0,.18l0,0,.09-.25-10,1.73-2.59.46Z" style="fill:#263238"></path><circle cx="449.67" cy="71.95" r="25.16" style="fill:#373856"></circle><g style="opacity:0.30000000000000004"><circle cx="449.67" cy="71.95" r="25.16"></circle></g><circle cx="449.67" cy="69.17" r="25.16" transform="translate(9.95 185.93) rotate(-23.62)" style="fill:#373856"></circle><circle cx="449.67" cy="69.17" r="16.85" transform="translate(82.8 338.23) rotate(-45)" style="fill:#fff"></circle><circle cx="449.67" cy="69.17" r="8.25" style="fill:#373856"></circle><polygon points="467.21 50.75 466.52 45.38 471.99 39.53 472.38 45.33 467.21 50.75" style="fill:#455a64"></polygon><polygon points="478.94 46.48 473.39 46.03 467.84 51.37 473.39 51.97 478.94 46.48" style="fill:#455a64"></polygon><g style="opacity:0.30000000000000004"><path d="M450.78,69.05,470,54.36a23.63,23.63,0,0,0-2.41-2.94L450.78,67.74Z"></path></g><path d="M472.61,44.52l-7.83,7.83L452.35,64.78l-2.86,2.86c-.9.9.51,2.3,1.42,1.39l7.83-7.83Q465,55,471.17,48.77L474,45.91c.91-.9-.51-2.3-1.41-1.39Z" style="fill:#263238"></path></g><g id="freepik--speech-bubble-1--inject-21"><path d="M115.82,161.54l-6.14-9.09a35.34,35.34,0,1,0-4.86,11.68v0Z" style="fill:#fff"></path><path d="M115.82,161.54l-.75.15-2.13.47L104.78,164l.19.21v0a.17.17,0,0,0-.11-.2.16.16,0,0,0-.19.06,35.25,35.25,0,0,1-12.63,11.65,35.5,35.5,0,0,1-23.2,3.63A34.88,34.88,0,0,1,43,131.8l.84-2,1-1.88a38.86,38.86,0,0,1,2.27-3.59,35.5,35.5,0,0,1,20-13.3A35.16,35.16,0,0,1,95,116.23a35.09,35.09,0,0,1,14.53,36.19l0,.12,4.62,6.66,1.22,1.74c.27.39.43.6.43.6a4.12,4.12,0,0,0-.35-.57l-1.14-1.74c-1-1.6-2.56-3.9-4.52-6.87l0,.12a35.16,35.16,0,0,0-.51-17.35A35.65,35.65,0,0,0,66.9,110.34a36.09,36.09,0,0,0-14.57,7.37,35.53,35.53,0,0,0-5.85,6.2,36.56,36.56,0,0,0-2.33,3.66l-1,1.92-.86,2A35.58,35.58,0,0,0,68.73,180a35.3,35.3,0,0,0,12.85,0,34.88,34.88,0,0,0,10.71-3.79A35.33,35.33,0,0,0,105,164.22l-.3-.14v0a.17.17,0,0,0,.1.21h.09l8.23-2.05,2.07-.53A4.64,4.64,0,0,0,115.82,161.54Z" style="fill:#263238"></path><path d="M69.42,144.8h3.14v6a10.29,10.29,0,0,1-6,1.89c-4.67,0-8.11-3.2-8.11-7.68s3.44-7.69,8.18-7.69a7.89,7.89,0,0,1,6.21,2.57l-2.2,2a5,5,0,0,0-3.84-1.68,4.76,4.76,0,1,0-.05,9.51,5.43,5.43,0,0,0,2.68-.64Z" style="fill:#263238"></path><path d="M74.67,146.76c0-3.44,2.65-5.88,6.28-5.88s6.26,2.44,6.26,5.88-2.63,5.88-6.26,5.88S74.67,150.19,74.67,146.76Zm9.19,0A2.93,2.93,0,1,0,81,149.92,2.89,2.89,0,0,0,83.86,146.76Z" style="fill:#263238"></path><path d="M88.93,150.7a2,2,0,0,1,4.08,0,2,2,0,0,1-4.08,0ZM89,137.61h3.94l-.65,9.7H89.65Z" style="fill:#263238"></path></g><g id="freepik--character-3--inject-21"><path d="M576.93,125.18a9.21,9.21,0,0,0,3-18.09,9.58,9.58,0,0,0-9.16-15.71A11.47,11.47,0,0,0,553,82.87a12.9,12.9,0,0,0-15.88.48,9.17,9.17,0,0,0-7.29,16" style="fill:#263238"></path><path d="M535.61,92.54l2-.1a39.08,39.08,0,0,1,40.7,34c2.46,18.79,4.93,39.58,5.31,49.71.78,21-20,25.26-20,25.26l3,25.09-11.21,12.16-39.72-11.21-9-91.08C503.73,114.67,513.87,94.89,535.61,92.54Z" style="fill:#c17560"></path><path d="M563.8,201.33A50.88,50.88,0,0,1,536,194.66s7.47,14.7,28.29,11.77Z" style="fill:#7c4236"></path><path d="M568.8,148.71a3,3,0,0,1-2.73,3.16,2.87,2.87,0,0,1-3.22-2.54,3,3,0,0,1,2.73-3.17A2.86,2.86,0,0,1,568.8,148.71Z" style="fill:#263238"></path><path d="M574.33,136.88c-.35.41-2.7-1.16-5.92-1s-5.5,1.9-5.86,1.52c-.18-.17.16-.89,1.15-1.69a8.2,8.2,0,0,1,4.67-1.7,7.87,7.87,0,0,1,4.74,1.28C574.14,136,574.51,136.7,574.33,136.88Z" style="fill:#263238"></path><path d="M541.28,149.42a3,3,0,0,1-2.73,3.16,2.87,2.87,0,0,1-3.22-2.55,3,3,0,0,1,2.73-3.16A2.86,2.86,0,0,1,541.28,149.42Z" style="fill:#263238"></path><path d="M542.71,139.05c-.35.41-2.7-1.15-5.92-1s-5.5,1.89-5.87,1.51c-.18-.16.16-.88,1.16-1.68a8.17,8.17,0,0,1,4.67-1.7,7.88,7.88,0,0,1,4.74,1.27C542.51,138.18,542.89,138.87,542.71,139.05Z" style="fill:#263238"></path><path d="M555.59,162.35c0-.18,2-.63,5.18-1.2.82-.13,1.59-.33,1.7-.9a4.29,4.29,0,0,0-.67-2.41c-.87-2-1.79-4-2.74-6.14-3.82-8.74-6.63-15.95-6.28-16.1s3.74,6.81,7.56,15.56l2.64,6.18a4.81,4.81,0,0,1,.59,3.21,2.12,2.12,0,0,1-1.3,1.27,5.69,5.69,0,0,1-1.38.26C557.63,162.42,555.61,162.53,555.59,162.35Z" style="fill:#263238"></path><path d="M544.89,126.53c-.38.83-3.19.08-6.59.14s-6.23.77-6.59-.06c-.15-.4.42-1.17,1.61-1.88a10.29,10.29,0,0,1,5-1.33,9.88,9.88,0,0,1,5,1.27C544.52,125.37,545.06,126.13,544.89,126.53Z" style="fill:#263238"></path><path d="M573.83,123.59c-.64.77-3.34.14-6.53.27s-5.88.78-6.54,0c-.29-.36.1-1.12,1.24-1.87a10.48,10.48,0,0,1,5.25-1.46,10.31,10.31,0,0,1,5.29,1.21C573.7,122.49,574.11,123.22,573.83,123.59Z" style="fill:#263238"></path><path d="M575.84,116.9s-6.18-12.85-12.66-15.6c-7.84-3.33-10.72,5.25-18.13,3.57S530.16,100,523,106c-7.85,6.58-3.81,10.73-3.86,20-.17,37.79-6.52,48.79-9.36,31.14-.31-1.94-5.79-3.22-7-11.4-1.56-10.6-2.62-23.52-.61-31.2,1.68-6.47,5.1-11.06,11.38-16.24,9.9-8.17,24-9,33.67-8.55S575.9,100.42,575.84,116.9Z" style="fill:#263238"></path><path d="M511.06,156.56a5.69,5.69,0,0,0-6.41-5.18c-3.89.57-8.13,3-7.47,11.07,1.17,14.3,15.29,10.17,15.28,9.76S511.61,162.54,511.06,156.56Z" style="fill:#c17560"></path><path d="M508.91,167.09c-.07,0-.24.19-.64.42a2.5,2.5,0,0,1-1.86.19c-1.56-.43-3-2.73-3.3-5.3a8.09,8.09,0,0,1,.4-3.62,2.88,2.88,0,0,1,1.72-2.07,1.29,1.29,0,0,1,1.53.56c.22.39.15.68.23.7s.29-.27.12-.85a1.57,1.57,0,0,0-.63-.85,1.9,1.9,0,0,0-1.41-.25,3.5,3.5,0,0,0-2.42,2.43,8.45,8.45,0,0,0-.54,4.06c.33,2.87,2,5.45,4.14,5.88a2.66,2.66,0,0,0,2.25-.57C508.91,167.43,509,167.11,508.91,167.09Z" style="fill:#7c4236"></path><path d="M510,128.79c1.92,1.18,3.95,2.39,6.2,2.5s4.75-1.3,5-3.54c.12-1-.18-2.15.44-3,.74-1,2.19-.74,3.4-.67,4.19.23,8.82-4.61,9.68-8.71a3.74,3.74,0,0,0,5,.78,13.19,13.19,0,0,0,3.3-3.24c1.19-1.5,2.89-2.87,4.8-2.7,1.06.1,2.08.68,3.14.53,1.88-.26,2.69-2.51,2.88-4.39s.3-4.07,1.85-5.16,3.37-.57,5.11-.4,4-.35,4.32-2.06a3.41,3.41,0,0,0-.77-2.57,9.3,9.3,0,0,0-11.13-3A12.59,12.59,0,0,0,530,91.94a12.78,12.78,0,0,0-20.17,5.67,9.26,9.26,0,0,0-9.76,14c-2.5,1.6-4.58,4.27-4.49,7.24s3.13,5.78,6,4.85a5.13,5.13,0,0,0,9.11,4.67" style="fill:#263238"></path><path d="M554.54,97.39a1.1,1.1,0,0,1,0,.27,7.25,7.25,0,0,1-.06.77,8.73,8.73,0,0,1-.9,2.81,10.19,10.19,0,0,1-3,3.54,9.53,9.53,0,0,1-5.78,2l.23-.33a5.26,5.26,0,0,1-.09,4,14.88,14.88,0,0,1-2.28,3.64,11.42,11.42,0,0,1-1.52,1.73,5,5,0,0,1-2.23.95,5.22,5.22,0,0,1-4.69-1.42l.52-.18a10.78,10.78,0,0,1-4.18,7.66,7.83,7.83,0,0,1-4.63,1.77,14.16,14.16,0,0,1-4.69-.78l.38-.19a11.28,11.28,0,0,1-3.17,4.59,6,6,0,0,1-4.93,1.61,7.9,7.9,0,0,1-6.38-5.88l.33.14a7.41,7.41,0,0,1-4.88,1,8.16,8.16,0,0,1-3.51-1.36,6.78,6.78,0,0,1-1.69-1.68,3,3,0,0,1-.4-.72,8.5,8.5,0,0,0,2.22,2.19,7.92,7.92,0,0,0,3.42,1.22,7.1,7.1,0,0,0,4.61-1l.26-.17.07.3a7.46,7.46,0,0,0,6,5.44,5.51,5.51,0,0,0,4.47-1.51,10.92,10.92,0,0,0,3-4.36l.09-.27.28.09a13.62,13.62,0,0,0,4.48.74,7.17,7.17,0,0,0,4.27-1.65,10.19,10.19,0,0,0,4-7.22l.05-.68.47.51a4.66,4.66,0,0,0,4.15,1.25,4.4,4.4,0,0,0,2-.83,9.77,9.77,0,0,0,1.44-1.61,14.52,14.52,0,0,0,2.23-3.5,4.68,4.68,0,0,0,.13-3.59l-.13-.34h.36a9.19,9.19,0,0,0,5.55-1.8,10.23,10.23,0,0,0,3-3.36A11.36,11.36,0,0,0,554.54,97.39Z" style="fill:#455a64"></path><path d="M555.43,173.4c-.11-.53-3.59.39-6.85-2s-3.86-6.14-4.35-6c-.23,0-.46,1-.09,2.59a9,9,0,0,0,3.43,5.09,7.87,7.87,0,0,0,5.69,1.42C554.75,174.25,555.51,173.64,555.43,173.4Z" style="fill:#263238"></path><path d="M471.4,476.82s4.82-51.94,16.12-68.2l135.78,5.5L630,475.68Z" style="fill:#263238"></path><path d="M514.19,212s2.62,13.88,37.72,22.82c0,0,16.1-10.45,12.83-24.2l40.56,24.23L615,349,628,429.39c-40.2,20.79-97,15.86-151.09-.52l15.71-49.66L491.28,359,473.62,251.68l31.62-31.62Z" style="fill:#e0e0e0"></path><rect x="574.32" y="252.78" width="18.29" height="5.89" rx="2.91" transform="translate(-15.7 39.34) rotate(-3.81)" style="fill:#373856"></rect><path d="M516.53,328.62c0,.1-1.49-.29-3.92-.41a24.79,24.79,0,0,0-4.26.18,28.19,28.19,0,0,0-5.06,1.21,27,27,0,0,0-4.7,2.25,24.12,24.12,0,0,0-3.42,2.53c-1.81,1.62-2.72,2.85-2.8,2.78a4.68,4.68,0,0,1,.6-.89,8.25,8.25,0,0,1,.8-1,15.5,15.5,0,0,1,1.15-1.2,22.39,22.39,0,0,1,3.42-2.67,26.24,26.24,0,0,1,4.78-2.33,25.1,25.1,0,0,1,5.18-1.19,22,22,0,0,1,4.33-.07,13.81,13.81,0,0,1,1.65.2,8.51,8.51,0,0,1,1.23.25A3.7,3.7,0,0,1,516.53,328.62Z" style="fill:#7c4236"></path><path d="M564.74,210.6c.78,0,27.84,7.58,31.86,8.77.21.07,10.8,3.75,11,3.78,2.48.32,17.66,6.06,23.8,19.62,5.55,12.25,14.2,41,14.2,41l-41.54-3.91L606,254,570.52,222.2Z" style="fill:#e0e0e0"></path><path d="M603.88,248.26a6.12,6.12,0,0,1,.22,1.3c.11.85.23,2.08.34,3.6.24,3,.42,7.25.33,11.9s-.44,8.86-.79,11.89c-.18,1.51-.35,2.74-.49,3.58a6.33,6.33,0,0,1-.26,1.29,6.27,6.27,0,0,1,.06-1.32c.09-.95.19-2.15.32-3.59.26-3,.55-7.22.64-11.86s0-8.83-.17-11.87c-.08-1.44-.14-2.65-.18-3.6A6.65,6.65,0,0,1,603.88,248.26Z" style="fill:#263238"></path><path d="M607.14,224.77a20.06,20.06,0,0,1-.67,2.6,59.46,59.46,0,0,0-2.07,12.72,18.49,18.49,0,0,1-.2,2.68,11.57,11.57,0,0,1-.17-2.69,41.38,41.38,0,0,1,2.09-12.81A11.36,11.36,0,0,1,607.14,224.77Z" style="fill:#263238"></path><path d="M595.49,263.12l-75,4.22a3.89,3.89,0,0,0-3.67,4l2.57,102.3a5.35,5.35,0,0,0,5.65,5.2l73.39-4.17a5.34,5.34,0,0,0,5-5.53L599.8,267.05A4.07,4.07,0,0,0,595.49,263.12Z" style="fill:#263238"></path><g style="opacity:0.30000000000000004"><path d="M495.42,375.73c7.83,4.32,17.42,3.67,26.22,2.07a143.65,143.65,0,0,0,34-10.65c6.68-3,13.25-6.65,20.48-7.93,11.76-2.09,28-.36,39.74-2.79l-.69-9.3-41.31-5.07Z"></path></g><path d="M546.44,267s-3.24-4.78-1.93-6.25c.89-1,23.25-2.42,24.73-1.26.86.68-.87,6-.87,6Z" style="fill:#e0e0e0"></path><path d="M546.44,267a1.43,1.43,0,0,1,.44-.07l1.24-.13,4.58-.39,15.65-1.18-.22.17a30.19,30.19,0,0,0,1-3.72,4.74,4.74,0,0,0,.07-1.86c0-.08-.06-.07-.07-.12l-.14-.07a4.46,4.46,0,0,0-.46-.11c-.32,0-.66-.09-1-.11a109.89,109.89,0,0,0-11.61.19c-3.58.21-6.8.46-9.46.84-.34.05-.66.1-1,.17a2.91,2.91,0,0,0-.8.25,1.85,1.85,0,0,0-.22,1.51,10.71,10.71,0,0,0,.92,2.55c.33.68.62,1.19.81,1.54a3.36,3.36,0,0,1,.29.54,2.84,2.84,0,0,1-.38-.49c-.22-.33-.54-.83-.9-1.5a10.17,10.17,0,0,1-1-2.59,2.13,2.13,0,0,1,.27-1.79,2.38,2.38,0,0,1,1-.36c.32-.08.65-.14,1-.2,2.69-.43,5.91-.71,9.49-.95a100.69,100.69,0,0,1,11.68-.23c.35,0,.7.06,1.06.12a3.84,3.84,0,0,1,.54.13,1.28,1.28,0,0,1,.3.17,1,1,0,0,1,.21.32,4.94,4.94,0,0,1,0,2.14,30.88,30.88,0,0,1-1,3.79l-.05.16h-.17l-15.78,1-4.55.24-1.21.05A2.28,2.28,0,0,1,546.44,267Z" style="fill:#263238"></path><path d="M593.48,268l-.25,0-.75.06-2.87.18-10.57.58-34.87,1.7L521,271.6l.22-.23c0,7.79,0,14.32,0,19,0,2.27,0,4.06,0,5.34,0,.59,0,1.05,0,1.41a1.61,1.61,0,0,1,0,.48,3.51,3.51,0,0,1,0-.48c0-.35,0-.82,0-1.41,0-1.28-.06-3.07-.1-5.34-.06-4.63-.14-11.17-.24-19v-.22H521L544.15,270,579,268.48l10.57-.41,2.88-.09h.74A.76.76,0,0,1,593.48,268Z" style="fill:#455a64"></path><path d="M567.18,264.67a6.49,6.49,0,0,1-1.2.17l-3.29.29c-2.78.22-6.62.49-10.86.76s-8.09.48-10.88.61l-3.3.13a6.65,6.65,0,0,1-1.21,0,4.62,4.62,0,0,1,1.2-.19c.77-.08,1.9-.18,3.29-.29,2.78-.23,6.62-.5,10.86-.77s8.09-.48,10.88-.61l3.3-.12A4.75,4.75,0,0,1,567.18,264.67Z" style="fill:#263238"></path><polygon points="543.99 265.86 544.48 272.13 570.93 270.79 570.54 264.32 543.99 265.86" style="fill:#e0e0e0"></polygon><path d="M544,265.86a2.53,2.53,0,0,1,.48-.06l1.47-.12,5.55-.4c4.74-.32,11.42-.76,19-1.22h.25l0,.25c.12,2,.25,4.16.39,6.32V271l-.26,0c-10.92.55-20.57,1-26.46,1.24h-.15v-.14c-.12-2-.21-3.54-.28-4.68l-.06-1.21a1.94,1.94,0,0,1,0-.4,3.15,3.15,0,0,1,.06.45l.14,1.24c.11,1.12.26,2.66.44,4.57l-.15-.14c5.87-.36,15.53-.9,26.44-1.45l-.24.27v-.15c-.13-2.16-.26-4.28-.38-6.32l.27.24-18.87,1-5.62.26-1.53.05Z" style="fill:#263238"></path><path d="M458.75,298.84s3.22,24,10.09,42.28,15.88,34.13,26,34.77,44.85-5.58,59.45-13.74,24.46-13.73,24.46-13.73l21-14.59-17.6-19.75s-46.36,14.38-54.09,14.81A59,59,0,0,1,514.2,328s1.21-19.1-.94-26.61-8.79-21.68-8.79-21.68Z" style="fill:#c17560"></path><path d="M583.89,309a81.8,81.8,0,0,1,3.9-10.81c2.32-5.05,2.9-10.84,3.14-14s-.33-9.52,2-10.93,7.7-1.9,7.86,6.13-2.38,12.33-1.4,16.05a19.44,19.44,0,0,0,2.89,6.21l1.74-1.2,1.6,6.67Z" style="fill:#c17560"></path><path d="M515.9,295.54l16.52,8.16s28.55,7.94,40.78,6.44,32.41-3,32.41-3-3.58-14.92-2.15-25.77a32.42,32.42,0,0,1,23.88-6.52c14.1,1.78,18,8.29,18.27,8.94,2.46,6.4,11.93,54.69-3.09,64.77s-59.24,1.75-69.75-1.93c-8.87-3.11-33.29-12.87-42-16.35a20.9,20.9,0,0,0-6.47-1.46l-10.51-.65,0-8.27a73.2,73.2,0,0,0-3-21.36l-1.91-8.06Z" style="fill:#c17560"></path><path d="M515.9,295.54l-.46-.3-1.32-.95-5.23-3.76.12-.08c.45,1.88,1,4.09,1.59,6.6.27,1.27.69,2.57,1.06,4s.71,2.9,1,4.48A71.52,71.52,0,0,1,513.94,316c.1,1.9.1,3.87.08,5.91s0,4.13,0,6.3l-.15-.16,7.18.43,3.77.24a19.81,19.81,0,0,1,3.85.68,32.81,32.81,0,0,1,3.78,1.36l3.81,1.52,7.92,3.15,17,6.64c3,1.14,6,2.29,9,3.42,1.54.56,3.08,1.14,4.68,1.6s3.22.88,4.87,1.27a197.57,197.57,0,0,0,20.62,3.6,145.07,145.07,0,0,0,22,1.13,66.67,66.67,0,0,0,11.29-1.3,34.45,34.45,0,0,0,5.49-1.69A15.82,15.82,0,0,0,644,347a15.4,15.4,0,0,0,3.23-4.78,28.16,28.16,0,0,0,1.87-5.58,61,61,0,0,0,1.43-11.88A138.3,138.3,0,0,0,649,301.64c-.53-3.77-1.16-7.5-1.94-11.16-.4-1.83-.81-3.65-1.33-5.41-.13-.44-.28-.89-.43-1.28a6.48,6.48,0,0,0-.76-1.09,13.34,13.34,0,0,0-1.93-1.9,25.55,25.55,0,0,0-9.68-4.61,38.26,38.26,0,0,0-10.48-1.34,32.06,32.06,0,0,0-10.1,1.9,30.74,30.74,0,0,0-8.78,4.79l.08-.15a60.61,60.61,0,0,0,.08,13.2,108.83,108.83,0,0,0,2.05,12.49l0,.25-.25,0c-8,.61-15.68,1.25-22.86,1.94l-10.41,1.09a51.19,51.19,0,0,1-9.74-.35,169.37,169.37,0,0,1-16.88-2.94c-5.05-1.11-9.5-2.24-13.34-3.29h0l-12.26-6.11L517,296.1c-.71-.36-1.06-.56-1.06-.56s.37.16,1.08.51l3.18,1.54,12.31,6h0c3.83,1,8.29,2.14,13.34,3.23s10.66,2.19,16.85,2.88a51.56,51.56,0,0,0,9.68.32l10.4-1.11c7.18-.72,14.82-1.37,22.87-2l-.2.27a110.06,110.06,0,0,1-2.07-12.54,61,61,0,0,1-.1-13.31v-.09l.07-.06a31.31,31.31,0,0,1,8.92-4.88,32.24,32.24,0,0,1,10.26-1.94,38.82,38.82,0,0,1,10.62,1.34,26.21,26.21,0,0,1,9.88,4.71,14.31,14.31,0,0,1,2,2,6.94,6.94,0,0,1,.82,1.19c.19.46.32.9.46,1.35.53,1.79.94,3.62,1.34,5.45.79,3.68,1.42,7.41,2,11.2A139.17,139.17,0,0,1,651,324.78a61.49,61.49,0,0,1-1.44,12,29.88,29.88,0,0,1-1.91,5.68,15.92,15.92,0,0,1-3.34,4.93c-2.94,2.79-6.84,4-10.57,4.87a66,66,0,0,1-11.39,1.3,141.92,141.92,0,0,1-22.08-1.15,195.63,195.63,0,0,1-20.68-3.63c-1.65-.39-3.28-.81-4.89-1.28s-3.17-1.05-4.71-1.61c-3.08-1.14-6.09-2.3-9-3.44l-17-6.67-7.92-3.17-3.8-1.52a33.15,33.15,0,0,0-3.74-1.37,20.71,20.71,0,0,0-3.78-.68l-3.76-.24-7.18-.45h-.16v-.16q0-3.26.05-6.31c0-2,0-4-.06-5.89a73.15,73.15,0,0,0-1.22-10.41c-.3-1.57-.64-3.06-1-4.46s-.76-2.72-1-4l-1.55-6.61,0-.2.16.12,5.18,3.82,1.3,1Z" style="fill:#7c4236"></path><path d="M630.14,325.62a44.91,44.91,0,0,0-1.57-4.59,22.47,22.47,0,0,0-17.79-13.37,43.19,43.19,0,0,0-4.84-.24,5.45,5.45,0,0,1,1.3-.19,20.22,20.22,0,0,1,3.59.06,21.89,21.89,0,0,1,18.08,13.6,20,20,0,0,1,1.05,3.42A5.23,5.23,0,0,1,630.14,325.62Z" style="fill:#7c4236"></path><path d="M514.19,212c-1.58,1.05-31.12,13.39-34,14.87,0,0-31.56,12-27.82,45.6,2.08,18.65,5.5,33.88,5.5,33.88s13.48-8.14,23-12.05c12.26-5,27.16-7.24,27.16-7.24l-8.4-29.83Z" style="fill:#e0e0e0"></path><path d="M499,258.28c.14,0,2.32,6.7,4.88,15.05s4.52,15.17,4.38,15.21-2.32-6.69-4.88-15.05S498.9,258.32,499,258.28Z" style="fill:#263238"></path><path d="M494.71,248.75a38.18,38.18,0,0,0-2.82-3.19l-.76-.7-.88-.69a22.69,22.69,0,0,0-2-1.42,32.59,32.59,0,0,0-5-2.59,29.07,29.07,0,0,0-10-2.31,24.36,24.36,0,0,0-4.24.35,4.83,4.83,0,0,1,1.1-.37,14.36,14.36,0,0,1,3.14-.35,27,27,0,0,1,10.15,2.2,31.42,31.42,0,0,1,5.08,2.66c.71.52,1.42,1,2,1.49l.88.73.75.74a11.64,11.64,0,0,1,1.2,1.34,7.45,7.45,0,0,1,.8,1.1A5.48,5.48,0,0,1,494.71,248.75Z" style="fill:#263238"></path><path d="M464.7,302.81a2,2,0,0,1-.17-.54c-.1-.42-.23-.94-.39-1.58-.33-1.38-.77-3.37-1.29-5.85-1-4.94-2.32-11.81-3.44-19.44s-1.85-14.58-2.22-19.62c-.19-2.52-.31-4.56-.36-6,0-.66,0-1.2-.05-1.63a2.52,2.52,0,0,1,0-.57,2.26,2.26,0,0,1,.09.57c0,.42.08,1,.14,1.62.13,1.47.31,3.49.52,5.95.47,5,1.25,12,2.37,19.58s2.35,14.48,3.3,19.44c.46,2.43.84,4.42,1.12,5.87.12.65.22,1.18.29,1.6A2.44,2.44,0,0,1,464.7,302.81Z" style="fill:#263238"></path><path d="M467.91,300.62a2.5,2.5,0,0,1-.15-.58c-.09-.43-.19-1-.32-1.66-.27-1.51-.64-3.59-1.08-6.12-.88-5.18-2-12.34-3.22-20.26s-2.17-15.12-2.78-20.33c-.3-2.61-.54-4.73-.66-6.19l-.14-1.69a2.69,2.69,0,0,1,0-.59,2.39,2.39,0,0,1,.12.58c.06.44.14,1,.23,1.68.2,1.52.48,3.61.82,6.16.71,5.2,1.75,12.38,2.93,20.3s2.28,15,3.07,20.28c.38,2.55.69,4.63.92,6.15.09.68.16,1.24.22,1.68A3.19,3.19,0,0,1,467.91,300.62Z" style="fill:#263238"></path><g style="opacity:0.30000000000000004"><path d="M507.82,289.65A71.64,71.64,0,0,1,515.93,324a48.32,48.32,0,0,1,26,10.71c-4.41-3-15.31-6.71-28.11-6.52C514.46,308.31,512,302.94,507.82,289.65Z"></path></g><path d="M564.74,210.4a6.41,6.41,0,0,1,.47,1.55c.13.52.29,1.16.46,1.93l.45,2.66a127.24,127.24,0,0,1,1.23,17.19c.1,7.3-.17,16-1,25.71a266.15,266.15,0,0,1-4.52,31.44l-.36,1.75-1-1.46-3.25-4.58c-6.95-9.7-13.68-18.89-19.4-27.53s-10.61-16.59-14.34-23.51a105,105,0,0,1-7.56-17c-.36-1-.62-2-.85-2.79s-.41-1.51-.53-2.07a7.52,7.52,0,0,1-.3-1.74c.14,0,.73,2.32,2.25,6.4a120.59,120.59,0,0,0,8,16.64c3.82,6.79,8.85,14.64,14.57,23.24s12.51,17.71,19.48,27.42l3.25,4.59-1.4.29a284,284,0,0,0,4.64-31.25c.92-9.63,1.3-18.31,1.34-25.57a152.3,152.3,0,0,0-.74-17.12l-.31-2.67c-.12-.76-.23-1.4-.31-1.93A6.54,6.54,0,0,1,564.74,210.4Z" style="fill:#455a64"></path><path d="M552.53,298.7a7.24,7.24,0,0,1,.44-4.08c.69-1.79,2.32-3.77,6.11-4a25.09,25.09,0,0,1,6.89.4,4.27,4.27,0,0,1,2.72,2l5.63,9.41-.69,3.33-6.58,1.56-4.16-5-4.34.74s-4.84,1-6-4.36Z" style="fill:#373856"></path><path d="M555.83,291.44s.08-.06.24-.13a3.52,3.52,0,0,1,.73-.23,4.31,4.31,0,0,1,2.8.29,6.51,6.51,0,0,1,3,2.92l2.48,4.39,3,5.47-.26-.11c1.94-.52,3.56-.94,4.7-1.22a9.25,9.25,0,0,1,1.82-.37,9.53,9.53,0,0,1-1.74.63c-1.12.35-2.73.84-4.66,1.4l-.17,0-.09-.16c-.91-1.62-2-3.47-3.07-5.43-1.83-3-2.94-6.32-5.15-7.24a4.41,4.41,0,0,0-2.61-.42A8.78,8.78,0,0,1,555.83,291.44Z" style="fill:#263238"></path><path d="M567.22,307.37c-.14,0-.11-.75.07-1.61s.43-1.53.57-1.5.11.75-.06,1.61S567.36,307.4,567.22,307.37Z" style="fill:#263238"></path><path d="M557.37,303.1c0-.08.44-.1,1.09-.26a3.93,3.93,0,0,0,2.11-1.38,4.06,4.06,0,0,0,.62-1.15l.16-.47.27.38a7.7,7.7,0,0,1,1.27,2.1c-.09.07-.77-.68-1.66-1.81l.43-.08a3.91,3.91,0,0,1-.68,1.35,3.73,3.73,0,0,1-2.45,1.42C557.8,303.28,557.37,303.16,557.37,303.1Z" style="fill:#263238"></path><path d="M560.19,297.19a4,4,0,0,1-.15-.71,3.32,3.32,0,0,0-.88-1.67,2.23,2.23,0,0,0-2.49-.52A3,3,0,0,0,555,297a3.07,3.07,0,0,0,1.47,2.83,2.24,2.24,0,0,0,2.52-.34,3.4,3.4,0,0,0,1-1.59,4,4,0,0,1,.2-.71,1.47,1.47,0,0,1,0,.75,3.42,3.42,0,0,1-1,1.83,2.72,2.72,0,0,1-1.3.7,2.59,2.59,0,0,1-1.69-.22,3.66,3.66,0,0,1,.24-6.4,2.6,2.6,0,0,1,1.71-.09,2.86,2.86,0,0,1,1.24.79,3.27,3.27,0,0,1,.81,1.89A1.44,1.44,0,0,1,560.19,297.19Z" style="fill:#263238"></path><path d="M567.94,293.74s0-.05.13-.05a.41.41,0,0,1,.32.23l.29.47.17.3a.57.57,0,0,1,.1.5.53.53,0,0,1-.19.26,1,1,0,0,1-.28.1l-.45.09-1,.19-2.31.4a.58.58,0,0,1-.49-.22,1.72,1.72,0,0,1-.17-.32l-.24-.54-.11-.27a.59.59,0,0,1-.06-.44.58.58,0,0,1,.31-.36,1.2,1.2,0,0,1,.33-.07l1.89-.21a5.31,5.31,0,0,1,1.75-.06,6.23,6.23,0,0,1-1.7.42l-1.87.33c-.23,0-.2,0-.23.08a2.07,2.07,0,0,0,.16.37l.24.53a2.12,2.12,0,0,1,.1.22l.05,0,2.27-.36,1-.14.45-.06c.17,0,.15,0,.2-.08s-.13-.36-.19-.54l-.21-.51C568.14,293.75,567.94,293.78,567.94,293.74Z" style="fill:#263238"></path><path d="M572.83,301.69a5.34,5.34,0,0,1-2.22.81,6.12,6.12,0,0,1-2.39.31c-.06-.13.93-.49,2.22-.8A5.67,5.67,0,0,1,572.83,301.69Z" style="fill:#263238"></path></g><g id="freepik--character-1--inject-21"><path d="M126.05,193.35s1.92-1.58,3.25,0,.83,4.32-.25,6.73-6.6,7.22-6.6,7.22l2.12-11.83Z" style="fill:#ae7461"></path><path d="M74,244.69c2.92-3-8.41,29.43-8.11,55.52.29,25.61,6.59,34.22,17.75,32.7S129,293.15,129,293.15l20.49-61s-13-2.37-23.9,6.67-29.44,37.37-29.44,37.37l.17-35Z" style="fill:#ae7461"></path><path d="M73.54,242s1.47-14.76,4.53-22.21S86.55,200.6,87,199.43,92.54,187.74,98.68,188a6.14,6.14,0,0,1,6.86-1.9s6.87-2.49,9.94,1.46c0,0-7.89-.29-7.89,2.48a7.8,7.8,0,0,0,1.9,4.82s-1.32,6.87,0,8.33,14.23,2,14.23,2c.25.06-1.76,4-5.46,8.2-7.66,8.71-13.25,8.59-13.25,8.59l-4.22,6.21s-2.15,8.33-1.9,11.19c.17,1.88-.8,10.77-2.8,12.25-3.76,2.78-22.55-6.09-22.55-6.09Z" style="fill:#263238"></path><path d="M114.67,187.55s3.38-.38,5.55,1.37c0,0,4.34-.6,5.14,2.36s-1,13.66-1.59,14.34-4.34,5.33-7.52,3.92c0,0-2.72,2.22-5.19.81,0,0-2.56-.69-2.71-3a3.29,3.29,0,0,1,1.34-2.58l2.36-1.92-3.53-14.1A14.83,14.83,0,0,1,114.67,187.55Z" style="fill:#ae7461"></path><path d="M114.67,187.55a1.8,1.8,0,0,1-.42,0l-1.23.11a13.33,13.33,0,0,0-4.44,1.13l.08-.16c.91,3.53,2.16,8.38,3.62,14.07l0,.15-.12.09c-.62.51-1.25,1-1.9,1.55a4.46,4.46,0,0,0-1.55,1.83,2.53,2.53,0,0,0,.32,2.3,4,4,0,0,0,2.05,1.44h.06a3.5,3.5,0,0,0,2.19.4,5.9,5.9,0,0,0,2.24-.85c.16-.11.33-.22.47-.33l.13-.1.14.06c1.36.6,2.89,0,4.07-.85a16.22,16.22,0,0,0,3.15-3l.08-.17.08-.24a4.1,4.1,0,0,0,.14-.5c.1-.34.17-.69.24-1,.15-.69.27-1.36.39-2,.23-1.34.41-2.64.56-3.9s.25-2.47.28-3.63a7.77,7.77,0,0,0-.38-3.19,3.19,3.19,0,0,0-2.22-1.57,7.45,7.45,0,0,0-2.5-.16h-.06l-.05,0a7.43,7.43,0,0,0-3.94-1.42c-1-.08-1.52,0-1.52-.06s.13,0,.39-.07a9.51,9.51,0,0,1,1.14,0,7.37,7.37,0,0,1,4.11,1.35l-.11,0a7.82,7.82,0,0,1,2.62.11,3.59,3.59,0,0,1,2.48,1.73,8.07,8.07,0,0,1,.46,3.37c0,1.18-.12,2.4-.25,3.67s-.31,2.58-.53,3.93c-.12.67-.24,1.36-.38,2-.08.34-.15.69-.24,1,0,.18-.09.35-.15.53l-.09.27a2.27,2.27,0,0,1-.17.31,16.45,16.45,0,0,1-3.24,3.09,7.45,7.45,0,0,1-2.12,1,3.69,3.69,0,0,1-2.45-.13l.27,0a5,5,0,0,1-.53.37,6.3,6.3,0,0,1-2.44.92,4,4,0,0,1-2.51-.46l.06,0a4.47,4.47,0,0,1-2.34-1.65,3,3,0,0,1-.36-2.77,4.8,4.8,0,0,1,1.71-2l1.9-1.54-.08.24-3.44-14.12,0-.12.1-.05a12.7,12.7,0,0,1,4.56-1c.54,0,.95,0,1.23,0A1.34,1.34,0,0,1,114.67,187.55Z" style="fill:#6f4439"></path><path d="M116.25,209.54a18.82,18.82,0,0,1,2-2.11c1.2-1.29,3.08-3.09,3.6-5.75a21.34,21.34,0,0,0,.36-3.79c0-1.19.07-2.26,0-3.14a11.19,11.19,0,0,0-.25-2.08c-.11-.49-.25-.72-.22-.74s.71,1,.84,2.79c.08.91.08,2,.08,3.18a19.28,19.28,0,0,1-.33,3.89,8.56,8.56,0,0,1-1.67,3.57,19.5,19.5,0,0,1-2.18,2.33A13.54,13.54,0,0,1,116.25,209.54Z" style="fill:#6f4439"></path><path d="M116.25,189.75a2.28,2.28,0,0,1,.84.49,8.85,8.85,0,0,1,.84.77,6.55,6.55,0,0,1,.48.54,3,3,0,0,1,.46.7,12.33,12.33,0,0,1,.28,3.94,45.25,45.25,0,0,1-.47,4.76c-.06.42-.13.83-.21,1.24l-.13.61a4.84,4.84,0,0,1-.23.61,9.09,9.09,0,0,1-1.36,1.93,27.58,27.58,0,0,1-2.82,2.71c-.84.72-1.55,1.27-2.06,1.64a3.18,3.18,0,0,1-.81.51c0-.06,1-.93,2.63-2.42a34.22,34.22,0,0,0,2.7-2.76,9.06,9.06,0,0,0,1.26-1.82c.08-.17.12-.35.19-.52l.12-.59.21-1.22c.25-1.66.41-3.25.5-4.71a12.65,12.65,0,0,0-.15-3.78,5.25,5.25,0,0,0-.8-1.17,7.76,7.76,0,0,0-.77-.81A8.68,8.68,0,0,1,116.25,189.75Z" style="fill:#6f4439"></path><path d="M110.84,189.3a8.62,8.62,0,0,1,3.31,5c-.34,3.23-.71,9.83-2.7,10.3a2.92,2.92,0,0,1-3.56-2.71c0-1.52,1.3-6.87,1.3-6.87s-4.28-4.58-.73-6.52" style="fill:#ae7461"></path><path d="M108.46,188.54a2,2,0,0,1-.41.35,2.31,2.31,0,0,0-.78,1.23c-.34,1.26.57,3.12,2.08,4.79l.07.09,0,.11c-.35,1.46-.72,3.11-1,4.89a5.55,5.55,0,0,0-.07,2.65,2.74,2.74,0,0,0,1.92,1.74,1.85,1.85,0,0,0,1.57-.24,3.65,3.65,0,0,0,.84-1.45,19.57,19.57,0,0,0,.74-3.33c.17-1.09.28-2.13.38-3.11q.09-.72.15-1.41a5.5,5.5,0,0,0,.06-.63,2.45,2.45,0,0,0-.14-.58,10.74,10.74,0,0,0-1.93-3.35,10.41,10.41,0,0,0-1-1s.12,0,.34.16a4.48,4.48,0,0,1,.84.69,9.73,9.73,0,0,1,2.14,3.37,2.63,2.63,0,0,1,.17.67,3.83,3.83,0,0,1,0,.7c0,.45-.07.93-.12,1.41-.08,1-.18,2-.33,3.13a19.86,19.86,0,0,1-.74,3.44,4.21,4.21,0,0,1-1,1.68,2.34,2.34,0,0,1-2,.35,3.26,3.26,0,0,1-2.3-2.08,3.31,3.31,0,0,1-.13-1.52c0-.48.12-.94.21-1.39.33-1.8.73-3.44,1.11-4.9l.05.19a10.17,10.17,0,0,1-1.74-2.7,3.66,3.66,0,0,1-.26-2.45,2.34,2.34,0,0,1,.93-1.26C108.28,188.6,108.45,188.52,108.46,188.54Z" style="fill:#6f4439"></path><path d="M94.6,219.26a32.35,32.35,0,0,0,5.11,2.09,33,33,0,0,0,5.49.67,12.61,12.61,0,0,1-10.6-2.76Z" style="fill:#455a64"></path><path d="M100.4,200.7A5.32,5.32,0,0,1,99.33,199,15.66,15.66,0,0,1,98,194.36a15.17,15.17,0,0,1,.15-4.83,5.56,5.56,0,0,1,.6-1.91,27.32,27.32,0,0,0-.23,6.68A27,27,0,0,0,100.4,200.7Z" style="fill:#455a64"></path><path d="M99.41,234.51a6.49,6.49,0,0,1-1.19-.59,11.54,11.54,0,0,1-1.32-.82,16.19,16.19,0,0,1-1.67-1.22l-.94-.76c-.31-.28-.62-.58-1-.89-.68-.6-1.3-1.34-2-2.08a33.72,33.72,0,0,1-3.71-5.45,32.82,32.82,0,0,1-2.48-6.11c-.27-1-.52-1.91-.67-2.8a23,23,0,0,1-.37-2.48c-.11-.75-.1-1.45-.14-2.06a11.35,11.35,0,0,1,0-1.56,6.4,6.4,0,0,1,.11-1.32c.11,0,0,1.9.39,4.9.11.75.21,1.57.42,2.44s.43,1.78.71,2.75a34,34,0,0,0,2.48,6,35.12,35.12,0,0,0,3.62,5.39c.67.74,1.26,1.48,1.92,2.08l.92.9.9.78C97.78,233.54,99.47,234.42,99.41,234.51Z" style="fill:#455a64"></path><path d="M96.09,249.28a5.62,5.62,0,0,1-1.15-.2,10.16,10.16,0,0,1-1.32-.35c-.5-.16-1.09-.32-1.71-.58a25.73,25.73,0,0,1-4.22-2.1,29.58,29.58,0,0,1-4.57-3.53,30,30,0,0,1-3.73-4.42A25,25,0,0,1,77.11,234a14.42,14.42,0,0,1-.66-1.68A9.79,9.79,0,0,1,76,231a5.76,5.76,0,0,1-.25-1.14c.11,0,.52,1.58,1.65,4a29.63,29.63,0,0,0,2.34,4,32.34,32.34,0,0,0,3.7,4.31,31,31,0,0,0,4.46,3.5,28.08,28.08,0,0,0,4.11,2.16C94.49,248.84,96.12,249.18,96.09,249.28Z" style="fill:#455a64"></path><path d="M94.83,308a5.69,5.69,0,0,1,.24-1.29c.2-.82.46-2,.75-3.5a71.48,71.48,0,0,0,1.29-11.67,71.12,71.12,0,0,0-.67-11.73c-.21-1.49-.4-2.7-.56-3.53a6.14,6.14,0,0,1-.17-1.3,7.22,7.22,0,0,1,.37,1.26c.22.82.47,2,.73,3.51a62.17,62.17,0,0,1,.83,11.8,61.45,61.45,0,0,1-1.46,11.74c-.34,1.48-.65,2.66-.91,3.47A6.64,6.64,0,0,1,94.83,308Z" style="fill:#6f4439"></path><path d="M106.47,475.69s6.88-50,20.48-75.74l6.2-23.11,105.39-11.27,9.78,18.86s21.57,26.32,21.57,91.26h-79.7l-4.26-15-6.8,15Z" style="fill:#263238"></path><path d="M186,437.22a1.52,1.52,0,0,1-.49-.06l-1.41-.28a21.93,21.93,0,0,1-2.2-.55c-.84-.25-1.82-.49-2.86-.9l-1.64-.59c-.57-.21-1.14-.49-1.75-.74-1.21-.49-2.45-1.16-3.76-1.83a50.76,50.76,0,0,1-14.76-12.06c-.92-1.15-1.81-2.23-2.54-3.32-.37-.54-.75-1.05-1.07-1.56l-.91-1.49c-.6-.94-1-1.85-1.45-2.63a17.88,17.88,0,0,1-1-2c-.22-.53-.41-1-.56-1.32a2.15,2.15,0,0,1-.16-.47s.11.14.26.43.38.77.64,1.28.6,1.23,1,2,.88,1.66,1.5,2.57l.93,1.47c.33.5.72,1,1.09,1.53.74,1.07,1.64,2.13,2.56,3.26a57.79,57.79,0,0,0,6.77,6.64,58.71,58.71,0,0,0,7.85,5.31c1.3.68,2.51,1.35,3.71,1.85.59.27,1.15.55,1.72.77l1.61.62c1,.42,2,.69,2.83,1s1.56.48,2.16.63l1.38.37A2.13,2.13,0,0,1,186,437.22Z" style="fill:#455a64"></path><path d="M238.54,365.57,231.6,346.5l12.2-109-29.52-7.63-41.21-1.32-27.18,5.71S127.28,268.66,128.26,290s5.59,32.87,5.59,32.87l3.42,25.46-2.61,32.94s10.84,25.17,44.9,24.39S238.54,365.57,238.54,365.57Z" style="fill:#ae7461"></path><path d="M136.53,349l-3.47-20.16s-7.92-20.28-8.75-30.6,11.17-32.8,11.17-32.8,5.83,33,33.88,30.05,45.78-30.05,45.78-30.05L234.85,318l-3.25,29.62Z" style="fill:#373856"></path><path d="M234,335c0,.14-22.1.26-49.35.26s-49.35-.12-49.35-.26,22.09-.26,49.35-.26S234,334.86,234,335Z" style="fill:#263238"></path><g style="opacity:0.30000000000000004"><path d="M176.13,294.11s4.61,33.4,12.31,47.48,14.08,18.43,22.12,14.74S232.11,343,232.11,343l1.48-13.09Z"></path></g><line x1="214.51" y1="266.3" x2="222.19" y2="231.91" style="fill:#ae7461"></line><path d="M215.11,266.47l6.72-30.07,1-4.32c.18-.78-1-1.12-1.2-.33l-6.72,30.07-1,4.32c-.18.78,1,1.12,1.2.33Z" style="fill:#263238"></path><path d="M134.9,247.11a17.41,17.41,0,0,1-.1,2.68c-.09,1.64-.16,3.91-.05,6.42s.37,4.77.6,6.4a17.29,17.29,0,0,1,.33,2.65,11.71,11.71,0,0,1-.69-2.59,42.89,42.89,0,0,1-.76-6.44,43.61,43.61,0,0,1,.2-6.47A11.78,11.78,0,0,1,134.9,247.11Z" style="fill:#6f4439"></path><path d="M135.92,270.43l4.83-37.08c.11-.79-1.14-.78-1.25,0l-4.83,37.08c-.11.8,1.14.79,1.25,0Z" style="fill:#263238"></path><path d="M184.53,327a5,5,0,0,1-1.09-.06,22.35,22.35,0,0,1-2.93-.5,31.13,31.13,0,0,1-4.23-1.3,35.71,35.71,0,0,1-4.87-2.39,34.76,34.76,0,0,1-4.39-3.18,31.74,31.74,0,0,1-3.13-3.13,24.94,24.94,0,0,1-1.81-2.36,4.45,4.45,0,0,1-.56-.94c.08-.06,1,1.22,2.65,3a34.87,34.87,0,0,0,3.16,3,37.74,37.74,0,0,0,4.35,3.1,37.35,37.35,0,0,0,4.78,2.39,34.6,34.6,0,0,0,4.13,1.39C183,326.68,184.55,326.86,184.53,327Z" style="fill:#263238"></path><path d="M201.29,87a10.59,10.59,0,0,1,8.61-3.82c1.32.06,2.78.35,3.86-.42a8.3,8.3,0,0,0,1.69-2.26,5.36,5.36,0,0,1,7.68-.79,6.11,6.11,0,0,0,1.63,1.38c2.66,1.15,5.12-3.86,7.76-2.69a6,6,0,0,0-2.67,2.45,2.76,2.76,0,0,0,.56,3.36c2.55,1.92,6.13-3.07,8.92-1.53,1.51.83,1.89,3.25,3.59,3.53a5.83,5.83,0,0,0,2-.29,4.42,4.42,0,0,1,5,3.43c.33,1.88-.45,4.27,1.07,5.43.94.72,2.27.49,3.42.22a11.36,11.36,0,0,1-.87,5.12,6.9,6.9,0,0,1,3,9.11,14.68,14.68,0,0,1,4.29,3.77,5.14,5.14,0,0,1,.44,5.41,5.06,5.06,0,0,0-.64,1.13,2.54,2.54,0,0,0,.1,1.39c.5,1.75,1.41,3.41,1.49,5.23s-1.11,3.9-2.93,3.88c-.43,0-.9-.11-1.24.15a1.22,1.22,0,0,0-.37.86,12.47,12.47,0,0,0,.55,3.86,5.15,5.15,0,0,1-.3,3.81c-.68,1.11-2.43,1.61-3.32.66.67,2,1.33,4,2,5.93.4,1.18.75,2.61-.05,3.55-1.06,1.24-3.19.49-4.16-.82s-1.34-3-2.34-4.27a9.59,9.59,0,0,1-1.22-1.57c-.23-.47-.34-1.05-.77-1.35-.87-.61-2,.62-1.84,1.66a5.65,5.65,0,0,0,1.8,2.54c.73.77,1.35,1.89.88,2.83-.23.46-.67.78-.89,1.24-.74,1.6,1.63,2.93,2,4.65.29,1.27-.56,2.5-1.41,3.48-1,1.21-3.14,2.28-4,.91a14.29,14.29,0,0,1-.46-1.58,4.11,4.11,0,0,0-1.36-1.36,8.3,8.3,0,0,1-2.75-3.87c1.46,1.55,3,3.63,2.23,5.6a9.09,9.09,0,0,1-1.6,2.12c-1.12,1.35-1.75,3-2.84,4.4s-3,2.37-4.58,1.64a3.93,3.93,0,0,1-6.27,4.39,3.28,3.28,0,0,0-1.14-.87,2.78,2.78,0,0,0-1.53.15,8.49,8.49,0,0,1-8.45-2.67l1.51-.67c-3.09-.17-6.31-.37-9-1.93s-4.58-4.89-3.47-7.78c.48-1.25,1.49-2.57.9-3.77a3.31,3.31,0,0,0-2.3-1.39l-11.19-3c-1.82-.49-3.73-1-5-2.4s-1.58-3.85-.1-5a10,10,0,0,0-4.09-3.81c-1.89-.95-4-1.28-6-2.15s-3.77-2.55-3.79-4.67,2.76-4,4.33-2.55c-.53-3.16-6.21-2.93-6.93-6-.59-2.53,2.59-4.11,4.13-6.2-.41-.87-1.36-1.37-1.8-2.22-.92-1.79.86-3.78,2.6-4.78s3.89-2,4.18-4-1.59-4.17-.66-6a2.28,2.28,0,0,1,2.93-1c1.18-3.78,8.28-1.54,10-5.08a1.45,1.45,0,0,0,.17-.91,1.53,1.53,0,0,0-.41-.69,16.3,16.3,0,0,0-3.21-2.1c-1.07-.71-2-2-1.65-3.19s2.64-1.36,2.71-.08a2.83,2.83,0,0,1,4.39.76,3,3,0,0,1,3.78-.63,8.91,8.91,0,0,1,3,2.9" style="fill:#263238"></path><path d="M221.7,126.19c-1.65-5.14-5.94-9-10.54-11.84a13.72,13.72,0,0,0-6.27-2.4,5.81,5.81,0,0,0-5.66,3l.68,3.73c.12,6,5.22,10.57,8,15.93,1.19,2.33,2.26,5.16,4.75,6a5.63,5.63,0,0,0,4-.44C221.53,137.84,223.36,131.33,221.7,126.19Z" style="fill:#373856"></path><path d="M225,153.74a12.07,12.07,0,0,0-2.82-15.22c1.88-3,.61-7.16-1.93-9.63s-6-3.65-9.38-4.77c-2.67-7.85-12.36-12.49-20.16-9.64-4.87-5.66-13.87-5.61-20.76-2.72a19.45,19.45,0,0,1-5.16,1.76,31.59,31.59,0,0,1-4-.1c-7.36-.15-14,5.77-16,12.84a13.67,13.67,0,0,1-1.18,3.32c-.8,1.32-2.15,2.19-3.26,3.27a11.65,11.65,0,0,0-3.45,9.06c.2,2.83,1.43,5.72.54,8.41-.45,1.35-1.4,2.51-1.71,3.89-.9,4,3.83,7.49,3.5,11.6-.07.83-.35,1.64-.49,2.47a7.19,7.19,0,0,0,1,4.94c.71,1.13,1.76,2.11,2,3.41a11.72,11.72,0,0,1-.26,3c-.21,2.45,6,11.11,8.23,12.18l62-6.5a11.65,11.65,0,0,0,7.81-11,4.29,4.29,0,0,1,.32-2.34,4.78,4.78,0,0,1,1.56-1.29c3.75-2.6,3.6-8.13,2.67-12.58a5.56,5.56,0,0,1-.18-1.9A7,7,0,0,1,225,153.74Z" style="fill:#263238"></path><path d="M207.26,156c-1.06-11-9.37-22.78-20.86-26.89-7.25-2.6-12.6-2-16.25-2a25.25,25.25,0,0,0-14.25,4.72c-3.33,1.19-14.52,14.07-13.76,26.56.85,13.89,2.44,30.8,5.36,40.88,5.86,20.25,22,20.91,22,20.91s.75,10.85.75,10.85l-.89,32.09,39-24.72,5.66-4.18Z" style="fill:#ae7461"></path><path d="M176.46,192.18a4.09,4.09,0,0,0-1.59-2.41,4.17,4.17,0,0,0-5.07.06c-1.46,1.16-1.53,3-1.1,5h0c.94,1.12,1.66,2.25,3.12,2.27a5.1,5.1,0,0,0,.68,0,4.6,4.6,0,0,0,3-1.43A4.08,4.08,0,0,0,176.46,192.18Z" style="fill:#6f4439"></path><path d="M153,174.07a2.67,2.67,0,0,0,2.89,2.35,2.54,2.54,0,0,0,2.43-2.73,2.67,2.67,0,0,0-2.88-2.36A2.56,2.56,0,0,0,153,174.07Z" style="fill:#263238"></path><path d="M147.87,165.56c.37.3,2.19-1.44,5-1.78s5.12.81,5.38.43c.14-.18-.28-.76-1.27-1.31a7.32,7.32,0,0,0-4.37-.77,7,7,0,0,0-4,1.85C147.91,164.76,147.69,165.42,147.87,165.56Z" style="fill:#263238"></path><path d="M167.37,186c0-.17-1.82-.25-4.74-.26-.74,0-1.45,0-1.63-.53a3.67,3.67,0,0,1,.22-2.21q.69-2.77,1.46-5.82c2-8.27,3.36-15,3-15.11s-2.24,6.56-4.24,14.83c-.48,2-.93,4-1.37,5.84a4.24,4.24,0,0,0,0,2.9,1.87,1.87,0,0,0,1.33.92,5.39,5.39,0,0,0,1.26,0C165.58,186.37,167.38,186.16,167.37,186Z" style="fill:#263238"></path><path d="M169.52,220a53.18,53.18,0,0,0,26.85-10.84s-5.55,15.48-26.48,16.13Z" style="fill:#6f4439"></path><path d="M147.74,155.85c.4.75,2.64.53,5.17,1s4.57,1.41,5.21.84c.28-.28.08-1-.73-1.79a8.17,8.17,0,0,0-8.36-1.51C148,154.89,147.57,155.49,147.74,155.85Z" style="fill:#263238"></path><path d="M183.68,171.72a2.68,2.68,0,0,1-2.33,2.91,2.55,2.55,0,0,1-2.95-2.16,2.68,2.68,0,0,1,2.33-2.91A2.55,2.55,0,0,1,183.68,171.72Z" style="fill:#263238"></path><path d="M187,161.81c-.3.37-2.44-.94-5.31-.69s-4.83,1.87-5.17,1.55c-.17-.14.11-.8,1-1.54a7.27,7.27,0,0,1,4.1-1.67,7,7,0,0,1,4.27,1C186.83,161,187.18,161.64,187,161.81Z" style="fill:#263238"></path><path d="M184.39,150c-.34.8-2.65.83-5.2,1.61s-4.56,1.92-5.26,1.43c-.32-.24-.18-1,.57-1.86a8.24,8.24,0,0,1,3.89-2.38,8.15,8.15,0,0,1,4.54-.07C184,149.1,184.53,149.64,184.39,150Z" style="fill:#263238"></path><path d="M206.37,175.85c-.19-1.54,1.14-5.39,2.63-5.82,4-1.14,11.33-1.72,12.69,8.57,1.85,14.08-12.67,13-12.75,12.64S207,181.16,206.37,175.85Z" style="fill:#ae7461"></path><path d="M212.15,185.58c.06-.05.27.14.71.28a2.49,2.49,0,0,0,1.84-.2c1.41-.75,2.35-3.27,2.09-5.82a8.06,8.06,0,0,0-1.15-3.42,2.85,2.85,0,0,0-2.09-1.64,1.26,1.26,0,0,0-1.36.86c-.14.42,0,.69-.08.72s-.34-.19-.3-.79a1.52,1.52,0,0,1,.44-.95,1.85,1.85,0,0,1,1.31-.54,3.48,3.48,0,0,1,2.85,1.85,8.43,8.43,0,0,1,1.36,3.81c.29,2.85-.82,5.69-2.77,6.55a2.65,2.65,0,0,1-2.3-.08C212.22,185.92,212.11,185.62,212.15,185.58Z" style="fill:#6f4439"></path><path d="M139,158.8c2.63-2.13,4.14-4.78,3.55-8.11,2,.33,3.57-2.34,4.47-4.11s2.15-2.76,1.82-4.72a2.17,2.17,0,0,1,0-1.16c.22-.58.86-.84,1.42-1.09a9.53,9.53,0,0,0,5.41-7.33,20.16,20.16,0,0,0,9.85.39,7.7,7.7,0,0,0,12.85-2.16,6.89,6.89,0,0,0,5,2.8,20.42,20.42,0,0,0,5.88-.4,8.15,8.15,0,0,0,6.46,8.49,2,2,0,0,1,1.41.61,2.07,2.07,0,0,1,0,1.6,6.4,6.4,0,0,0,5.27,7.57,4.78,4.78,0,0,0,1.35,7.38c.55.25,1.27.54,1.26,1.14a1.29,1.29,0,0,1-.24.64,9.3,9.3,0,0,0-1.64,4.93c.09,1.76,1.51,3.56,3.26,3.42A4.59,4.59,0,0,0,205,172c.13,1.23,1.53,2.32,2.61,1.74.47-.25,7.31-2.5,7.57-3,3.32-5.9-2.44-11.26-3.67-17.92A44.1,44.1,0,0,0,203,134.58a32.34,32.34,0,0,0-5.85-6.18,43,43,0,0,0-8.46-4.74c-3.83-1.77-7.77-3.53-12-4-7.83-.86-15.38,2.89-22.07,7a33.48,33.48,0,0,0-7.1,5.46,30.16,30.16,0,0,0-5.4,9.22c-2,4.79-3.45,9.89-3.31,15.06" style="fill:#263238"></path><path d="M135.66,154.21a5.17,5.17,0,0,1,.57-1.6c.24-.51.59-1.1.91-1.85a6.68,6.68,0,0,0,.46-2.73,19.62,19.62,0,0,0-.49-3.48,15.91,15.91,0,0,1-.4-4.2,11.84,11.84,0,0,1,1.31-4.67,11.53,11.53,0,0,1,1.48-2.21,17.75,17.75,0,0,1,2-1.93,8.56,8.56,0,0,0,1.91-2.11,11.28,11.28,0,0,0,1-2.81,19.05,19.05,0,0,1,7.7-10.75,17.16,17.16,0,0,1,3.24-1.69,15.31,15.31,0,0,1,3.65-.87,17.41,17.41,0,0,1,1.92-.08c.64,0,1.28.07,1.91.11a9.3,9.3,0,0,0,3.77-.46c1.23-.4,2.41-1,3.68-1.49a24.85,24.85,0,0,1,8-1.75,22.32,22.32,0,0,1,4.23.26,14,14,0,0,1,7.67,3.81l.61.63-.24-.06A16.46,16.46,0,0,1,211,124.06l-.13-.13a45.32,45.32,0,0,1,5.26,2,14.9,14.9,0,0,1,4.48,3.12,9.75,9.75,0,0,1,2.43,4.64,6.75,6.75,0,0,1-.77,4.93l0-.24a11.71,11.71,0,0,1,4.13,6.84,12,12,0,0,1-.6,7.19,11.15,11.15,0,0,1-.77,1.5c-.29.47-.59.92-.82,1.38a3.11,3.11,0,0,0-.33,1.45,8.91,8.91,0,0,0,.22,1.45,23.14,23.14,0,0,1,.51,5.37,11.46,11.46,0,0,1-.89,4.24,7,7,0,0,1-1.91,2.56c-.67.57-1.29.83-1.62,1.14a2.74,2.74,0,0,0-.46.49,1.63,1.63,0,0,1,.42-.53c.33-.33.94-.61,1.59-1.18a6.91,6.91,0,0,0,1.83-2.54,11.25,11.25,0,0,0,.83-4.18,23.36,23.36,0,0,0-.54-5.32,8.71,8.71,0,0,1-.24-1.5,3.39,3.39,0,0,1,.35-1.56,14,14,0,0,1,.82-1.41,10.76,10.76,0,0,0,.74-1.48,11.77,11.77,0,0,0,.56-7,11.45,11.45,0,0,0-4-6.63l-.12-.1.08-.13a6.33,6.33,0,0,0,.7-4.67,9.42,9.42,0,0,0-2.34-4.45,14.7,14.7,0,0,0-4.37-3,44.33,44.33,0,0,0-5.22-2l-.09,0,0-.09a16.06,16.06,0,0,0-19.88-9.51l-.13,0-.11-.11-.59-.61a13.55,13.55,0,0,0-7.43-3.69,20.61,20.61,0,0,0-4.14-.25,24,24,0,0,0-4.06.53,25.07,25.07,0,0,0-3.84,1.17c-1.24.47-2.43,1.08-3.7,1.5a9.33,9.33,0,0,1-2,.44,11.8,11.8,0,0,1-2,0l-1.91-.12c-.62,0-1.25,0-1.86.08a15.27,15.27,0,0,0-3.56.84,16.62,16.62,0,0,0-3.16,1.65A17.92,17.92,0,0,0,147.5,121a18.24,18.24,0,0,0-2.73,5.75,11.49,11.49,0,0,1-1.06,2.89,9,9,0,0,1-2,2.18,17.35,17.35,0,0,0-2,1.89,11.17,11.17,0,0,0-1.46,2.15,11.59,11.59,0,0,0-1.31,4.56,15.7,15.7,0,0,0,.36,4.14,19.7,19.7,0,0,1,.46,3.51,6.56,6.56,0,0,1-.52,2.79c-.33.75-.69,1.34-.94,1.84a8.06,8.06,0,0,0-.52,1.15C135.7,154.07,135.67,154.22,135.66,154.21Z" style="fill:#455a64"></path><path d="M183.7,112.19s-.4-.17-1.13-.42a9.46,9.46,0,0,0-3.18-.52,9,9,0,0,0-4.55,1.24,9.33,9.33,0,0,0-3.75,4.33,8.28,8.28,0,0,0-.51,1.68,1.81,1.81,0,0,0,.29,1.48l.4.43-.59-.09a5.89,5.89,0,0,0-4.29,1.05,5.7,5.7,0,0,0-2.08,2.9,6.1,6.1,0,0,0-.26,2.39c0,.57.13.87.1.88s-.05-.07-.09-.21a4.06,4.06,0,0,1-.16-.65,6,6,0,0,1,2.27-5.6,6.18,6.18,0,0,1,4.58-1.17l-.19.35a2.18,2.18,0,0,1-.4-1.82,8,8,0,0,1,.54-1.78,9.49,9.49,0,0,1,3.94-4.51,9,9,0,0,1,4.75-1.2,9.12,9.12,0,0,1,3.24.66,6.75,6.75,0,0,1,.81.4C183.62,112.12,183.71,112.18,183.7,112.19Z" style="fill:#455a64"></path><path d="M208.54,125.58s-.12.23-.43.57a9.33,9.33,0,0,1-1.46,1.3,6.86,6.86,0,0,1-2.71,1.19,5.11,5.11,0,0,1-3.63-.63l.31-.09-.34.63c-.13.21-.28.41-.41.61a8.55,8.55,0,0,1-3.26,2.62,8.7,8.7,0,0,1-3.31.83,7.69,7.69,0,0,1-2.28-.23,3,3,0,0,1-.78-.3,12.88,12.88,0,0,0,3,.23,9.06,9.06,0,0,0,3.16-.88,8.5,8.5,0,0,0,3.08-2.52c.13-.2.27-.39.39-.58l.33-.59.11-.21.2.12a4.83,4.83,0,0,0,3.33.62,6.86,6.86,0,0,0,2.61-1.05C207.84,126.31,208.49,125.53,208.54,125.58Z" style="fill:#455a64"></path><path d="M217.59,137.75a.74.74,0,0,1,0,.26,2.15,2.15,0,0,1-.23.72,3.76,3.76,0,0,1-2.08,1.79,7.28,7.28,0,0,1-4.08,0,23.73,23.73,0,0,1-2.34-.6,3.94,3.94,0,0,1-2.16-1.54l-.11-.22.34.06a16.21,16.21,0,0,1-3.87,3,7.41,7.41,0,0,1-3.91.9,5.32,5.32,0,0,1-2.58-.82,3.21,3.21,0,0,1-.57-.45c-.12-.13-.17-.19-.16-.2s.28.21.82.51a5.45,5.45,0,0,0,2.5.66,7.24,7.24,0,0,0,3.71-.94,16.56,16.56,0,0,0,3.76-3l.2-.2.14.26.1.18a3.45,3.45,0,0,0,1.93,1.36c.76.26,1.55.44,2.28.62a7.14,7.14,0,0,0,3.89,0,3.76,3.76,0,0,0,2.05-1.58A7.14,7.14,0,0,0,217.59,137.75Z" style="fill:#455a64"></path><path d="M226.54,85.57s-.24,0-.66.2A3.28,3.28,0,0,0,224.44,87a4.43,4.43,0,0,0-.74,2.82,13,13,0,0,0,1,3.78l.08.22-.23,0a8.15,8.15,0,0,0-4.7,2.09,6.28,6.28,0,0,0-2.07,5.26,5.85,5.85,0,0,0,2.63,4.45l.52.31-.61.07a7.35,7.35,0,0,0-5,3,7.09,7.09,0,0,0-1.28,4.55,7.7,7.7,0,0,0,.86,3c.35.67.61,1,.59,1a1.43,1.43,0,0,1-.21-.22,4.69,4.69,0,0,1-.5-.72,7.34,7.34,0,0,1-1-3.1A7.23,7.23,0,0,1,215,108.8a7.61,7.61,0,0,1,5.3-3.21l-.08.38a6.19,6.19,0,0,1-2.84-4.76,6.43,6.43,0,0,1,.46-3.14,7.16,7.16,0,0,1,1.75-2.46,8.42,8.42,0,0,1,5-2.14l-.16.24a12.81,12.81,0,0,1-1-3.89,4.6,4.6,0,0,1,.86-3,3.17,3.17,0,0,1,1.58-1.19,1.78,1.78,0,0,1,.51-.1Z" style="fill:#455a64"></path><path d="M255.43,113a.83.83,0,0,1-.22.16,5.37,5.37,0,0,1-.66.41,9.8,9.8,0,0,1-2.76,1,11.09,11.09,0,0,1-4.5,0,10.66,10.66,0,0,1-5.13-2.53l.32-.06a9,9,0,0,1-5.82,5.12,6.84,6.84,0,0,1-7.47-2.87l.36-.06a5.71,5.71,0,0,1-1.4,2.6A7.58,7.58,0,0,1,226,118.4a10.56,10.56,0,0,1-4.24,1,21.35,21.35,0,0,1-2.82-.11,5.58,5.58,0,0,1-1-.15,7,7,0,0,1,1,0c.65,0,1.6.07,2.8,0a10.6,10.6,0,0,0,4.1-1,6.17,6.17,0,0,0,3.31-4l.11-.5.26.44a6.49,6.49,0,0,0,7,2.66,8.68,8.68,0,0,0,5.55-4.88l.12-.24.2.18a10.51,10.51,0,0,0,4.93,2.49,11,11,0,0,0,4.38.08A13.25,13.25,0,0,0,255.43,113Z" style="fill:#455a64"></path><path d="M243.16,135.47s0,.11-.13.27a1.42,1.42,0,0,1-.75.46,6.54,6.54,0,0,1-3.18-.14,7.65,7.65,0,0,1-3.95-2.56,7.88,7.88,0,0,1-1.73-5.48v0l.34.19a9.21,9.21,0,0,1-5.56,1.47,10.29,10.29,0,0,1-4.51-1.32,11.6,11.6,0,0,1-2.52-1.91,5.21,5.21,0,0,1-.75-.88,17.55,17.55,0,0,0,3.42,2.52,10.18,10.18,0,0,0,4.38,1.2,9,9,0,0,0,5.3-1.43l.35-.24,0,.43v.05a7.45,7.45,0,0,0,5.33,7.71,6.93,6.93,0,0,0,3.06.27A1.42,1.42,0,0,0,243.16,135.47Z" style="fill:#455a64"></path><path d="M195.79,89.85a12.1,12.1,0,0,0-.11,4.41,10,10,0,0,0,1.92,4.32,9.88,9.88,0,0,0,8.07,3.67l.26,0,0,.26a12.52,12.52,0,0,0,0,4.62,12.39,12.39,0,0,0,1.24,3.47,8.26,8.26,0,0,0,.73,1.19,1,1,0,0,0,.82.48.69.69,0,0,0,.54-.24.9.9,0,0,0,.11-.19s0,.09-.05.23a.73.73,0,0,1-.6.35,1.23,1.23,0,0,1-1-.49,8.06,8.06,0,0,1-.81-1.2,12.39,12.39,0,0,1-1.36-3.53,12.58,12.58,0,0,1-.09-4.76l.21.24a10,10,0,0,1-3.47-.44,9.74,9.74,0,0,1-6.84-7.91,9.4,9.4,0,0,1,.06-3.3,6.78,6.78,0,0,1,.23-.87A1.48,1.48,0,0,1,195.79,89.85Z" style="fill:#455a64"></path><path d="M176,188.24c-.4-.06-.62,2.67-3.11,4.42s-5.37,1.23-5.42,1.61c-.05.17.61.58,1.83.71a6.81,6.81,0,0,0,4.51-1.19,5.91,5.91,0,0,0,2.44-3.72C176.4,188.94,176.15,188.24,176,188.24Z" style="fill:#263238"></path><path d="M232.55,272.68S216.41,287,216.63,299.2l-23.51-37-22,13.72s5.88,29.63,11.27,41.38,16.16,29.14,24,30.86,28.9-12.74,38-22.9,19-47.28,20.75-63.19c2.17-19.7-21.25-24.53-21.25-24.53" style="fill:#ae7461"></path><path d="M243.8,237.56s.29,0,.84.17,1.37.36,2.42.71a35.85,35.85,0,0,1,8.71,4.23,24.76,24.76,0,0,1,5.21,4.68,18.77,18.77,0,0,1,3.78,7.41,23.53,23.53,0,0,1,.17,9.56q-.71,5-1.89,10.57c-1.56,7.36-3.61,15.35-6.3,23.79-.64,2.11-1.41,4.23-2.14,6.4s-1.58,4.33-2.5,6.5c-.45,1.1-.9,2.2-1.41,3.28s-1,2.2-1.56,3.26-1.09,2.19-1.77,3.22l-1,1.58c-.32.53-.75,1-1.12,1.51a25.72,25.72,0,0,1-2.49,2.83c-.88.9-1.79,1.79-2.74,2.65-1.87,1.73-3.85,3.4-5.9,5a105,105,0,0,1-13.22,8.92,53.27,53.27,0,0,1-7.44,3.5,21.88,21.88,0,0,1-4,1.09,7.87,7.87,0,0,1-4.24-.34,20.24,20.24,0,0,1-6.8-5.08,62.18,62.18,0,0,1-5.4-6.67,118.83,118.83,0,0,1-8.8-14.62,69.14,69.14,0,0,1-3.43-7.62c-1-2.58-1.79-5.2-2.59-7.8-3-10.41-5.33-20.6-7.32-30.32l0-.16.14-.09L193,262l.19-.12.11.18,23.46,37-.28.08a21.06,21.06,0,0,1,1.4-7,37,37,0,0,1,2.85-5.63,60,60,0,0,1,6-8,57.72,57.72,0,0,1,5.85-5.91l-.38.38L231,274.17c-1,1-2.44,2.48-4.21,4.53a59.71,59.71,0,0,0-5.89,8,37,37,0,0,0-2.8,5.6,20.86,20.86,0,0,0-1.35,6.9v.52l-.28-.44-23.56-36.94.3.07-22,13.73.11-.25c2,9.7,4.3,19.88,7.34,30.27.79,2.58,1.59,5.2,2.58,7.76a70.93,70.93,0,0,0,3.42,7.57A118.87,118.87,0,0,0,193.41,336a61.37,61.37,0,0,0,5.36,6.61,19.58,19.58,0,0,0,6.61,5,7.24,7.24,0,0,0,4,.32,21.77,21.77,0,0,0,4-1.07,52.58,52.58,0,0,0,7.36-3.46,103.62,103.62,0,0,0,13.16-8.86q3.08-2.4,5.88-5c.94-.85,1.84-1.73,2.73-2.63a24.93,24.93,0,0,0,2.46-2.79c.36-.5.77-.95,1.09-1.47l1-1.56c.68-1,1.18-2.13,1.76-3.19s1-2.17,1.55-3.24,1-2.17,1.41-3.26c.93-2.16,1.7-4.35,2.51-6.48s1.5-4.27,2.15-6.38c2.7-8.42,4.77-16.39,6.35-23.74.8-3.67,1.45-7.19,1.92-10.54a23,23,0,0,0-.13-9.44,18.45,18.45,0,0,0-3.68-7.32,24.23,24.23,0,0,0-5.14-4.67,36.2,36.2,0,0,0-8.62-4.3c-1-.36-1.85-.6-2.4-.75Z" style="fill:#6f4439"></path><path d="M132.35,213.86s.65,6.14,1.48,7.8,3.3.77,4-.68.57-4.9.57-4.9Z" style="fill:#ae7461"></path><path d="M138.14,206.14c-.37.35-6.43,5.94-5.81,8s5.07,4,5.81,4,9.41,20.6,12.75,23.35a37.58,37.58,0,0,0,6.16,4.18s8.8,29,11.65,30.86,25.74-13.61,25.74-13.61,1.48-2,.74-3-17.69-29.82-17.69-29.82-10.77-21.41-12.75-24-7.3-5.2-10.88-1.74c0,0-5.94-2-8.17.5C145.69,204.9,140.83,203.58,138.14,206.14Z" style="fill:#263238"></path><path d="M219.75,316.75c-.09,0,.33-1.09.62-2.88a17.33,17.33,0,0,0,.23-3.15,19.9,19.9,0,0,0-.47-3.84,20.65,20.65,0,0,0-1.27-3.66,17.79,17.79,0,0,0-1.6-2.72c-1.06-1.47-1.9-2.24-1.83-2.31s.25.15.63.49a11.49,11.49,0,0,1,1.49,1.59,16.4,16.4,0,0,1,1.74,2.75,18.64,18.64,0,0,1,1.35,3.74,18.16,18.16,0,0,1,.44,3.95,15.64,15.64,0,0,1-.35,3.23,11,11,0,0,1-.62,2.09C219.91,316.51,219.79,316.76,219.75,316.75Z" style="fill:#6f4439"></path><path d="M172.79,222.28a8,8,0,0,1-1.33.12c-.85,0-2.09.07-3.62.08-3.06,0-7.29-.14-11.94-.59s-8.83-1.13-11.83-1.73c-1.5-.3-2.71-.57-3.54-.78a7.19,7.19,0,0,1-1.27-.37,5.55,5.55,0,0,1,1.31.17l3.57.61c3,.51,7.18,1.13,11.81,1.58s8.85.65,11.9.74l3.61.08A5.85,5.85,0,0,1,172.79,222.28Z" style="fill:#455a64"></path><path d="M179.54,234.12c0,.09-1.41.37-3.66,1a51.33,51.33,0,0,0-16.37,7.92c-1.9,1.38-3,2.32-3.06,2.26a3.9,3.9,0,0,1,.71-.74c.48-.46,1.2-1.08,2.13-1.81a43.82,43.82,0,0,1,16.49-8c1.15-.28,2.09-.46,2.74-.55A4.11,4.11,0,0,1,179.54,234.12Z" style="fill:#455a64"></path><path d="M190.26,251.53c0,.14-6.27,1.75-14.07,3.59S162,258.35,162,258.21s6.26-1.75,14.06-3.59S190.22,251.39,190.26,251.53Z" style="fill:#455a64"></path></g><g id="freepik--character-2--inject-21"><path d="M290,475.69s-5.21-9.24,2.21-47.48c4.26-21.94,23.12-50.23,23.12-50.23s90.29,2.24,90.37,3.68,27.63,29.43,31.63,58.54,3.22,35.49,3.22,35.49Z" style="fill:#263238"></path><path d="M361.28,441.81c-.14,0-.82-11.52-1.52-25.73s-1.14-25.75-1-25.76.83,11.51,1.52,25.73S361.43,441.8,361.28,441.81Z" style="fill:#455a64"></path><path d="M369.4,393.94c-1.64-.08-3.25,1.59-3.71,3a4.76,4.76,0,1,0,2.39-2.75" style="fill:#455a64"></path><path d="M338.6,220.41l5.93-15,35.38-1.87,14.45,1.87,1.59,4.15,9.81,173.54s-34.27,6.91-51.41,4.51-37.27-10.22-37.27-10.22V278.7Z" style="fill:#e0e0e0"></path><path d="M391.85,227.46a1.23,1.23,0,0,1-.24.31l-.77.86c-.68.75-1.7,1.82-3,3.14a122.79,122.79,0,0,1-11.59,10.13l-.16.14-.15-.16a131.1,131.1,0,0,1-10.62-13.29l-1.05-1.53h.43l-8.51,11.45a5.59,5.59,0,0,1-1.18,1.2,2.28,2.28,0,0,1-1.64.45,2.66,2.66,0,0,1-1.42-.81,14.19,14.19,0,0,1-1-1.14L347.6,234l-4.82-6.08-1.29-1.67a4.07,4.07,0,0,1-.42-.6,3.06,3.06,0,0,1,.5.54c.34.4.8.93,1.36,1.6l4.95,6,3.4,4.16c.61.73,1.22,1.62,2.14,1.77s1.75-.65,2.38-1.49l8.46-11.47.21-.29.21.3,1.05,1.52a137.38,137.38,0,0,0,10.54,13.27l-.32,0a139.17,139.17,0,0,0,11.67-10c1.36-1.29,2.4-2.33,3.11-3,.34-.33.61-.59.82-.81A1.56,1.56,0,0,1,391.85,227.46Z" style="fill:#263238"></path><g style="opacity:0.30000000000000004"><path d="M351.43,238.47s4.48,5.52,5.74,4.14,7.91-11.68,8.71-12.11,8.82,14,12,13,14.39-12.24,14.39-12.24l.22-4.43-16.37,14.9-11.62-14.8-9.78,12.72S352.62,241.26,351.43,238.47Z"></path></g><path d="M323.3,120.65s-9.25,34.6-10.05,59.09l-.27,8.15s20.43,17,37.55,18l14.36-35.3Z" style="fill:#263238"></path><path d="M414,141.87c-3.9-16.88-5.4-36.52-19.44-47.52-10.41-8.17-22.28-10.45-35.5-9.89-6.51.27-13.86,3.27-19.54,6.48-7.77,4.4-11.06,13.33-14.82,21.44-7.51,16.25-6.56,38.25-1.47,44.36l67.89,35.85c13.56-7.05,22.05-9.86,24.22-27.93A66.2,66.2,0,0,0,414,141.87Z" style="fill:#263238"></path><path d="M393.85,107.76,351.13,95.15c-13.77-2-23.63,14.65-25.05,28.49-1.57,15.37-2.89,34.2-1.52,45.77,2.76,23.26,20.37,26.9,20.37,26.9s-.13,9.34-.13,9.34l19.46,20.68L394,206.45l6.8-90.16A8.13,8.13,0,0,0,393.85,107.76Z" style="fill:#ffbf9d"></path><path d="M333.92,144.69a3,3,0,0,0,2.74,3.1,2.83,2.83,0,0,0,3.16-2.55,3,3,0,0,0-2.74-3.1A2.83,2.83,0,0,0,333.92,144.69Z" style="fill:#263238"></path><path d="M328.91,137.58c.35.4,2.66-1.17,5.86-1s5.46,1.82,5.82,1.44c.18-.16-.17-.87-1.16-1.66a8.12,8.12,0,0,0-4.64-1.63,7.81,7.81,0,0,0-4.68,1.31C329.1,136.71,328.74,137.4,328.91,137.58Z" style="fill:#263238"></path><path d="M361.94,144.69a3,3,0,0,0,2.74,3.1,2.82,2.82,0,0,0,3.16-2.55,3,3,0,0,0-2.74-3.1A2.83,2.83,0,0,0,361.94,144.69Z" style="fill:#263238"></path><path d="M360.3,138c.35.41,2.66-1.17,5.85-1s5.47,1.82,5.83,1.44c.18-.17-.17-.88-1.16-1.66a8.16,8.16,0,0,0-4.65-1.64,7.92,7.92,0,0,0-4.68,1.31C360.49,137.09,360.12,137.77,360.3,138Z" style="fill:#263238"></path><path d="M347.87,158.64c0-.18-1.95-.6-5.15-1.14-.81-.11-1.57-.31-1.69-.87a4.16,4.16,0,0,1,.64-2.39l2.65-6.11c3.7-8.7,6.41-15.87,6.05-16s-3.63,6.78-7.32,15.49l-2.55,6.15a4.67,4.67,0,0,0-.55,3.18,2,2,0,0,0,1.29,1.24,5.54,5.54,0,0,0,1.38.25C345.84,158.73,347.85,158.82,347.87,158.64Z" style="fill:#263238"></path><path d="M344.83,196.31a58.81,58.81,0,0,0,31.29-7s-8.29,15.88-31.34,12.8Z" style="fill:#ff9a6c"></path><path d="M358.22,165.73a4.66,4.66,0,0,0-3.77-2.25,6.06,6.06,0,0,0-5.59,2.5,3.8,3.8,0,0,0-.35,2.7c.19.46,0,.23.38.56a10.56,10.56,0,0,0,4.2,2.84,4.53,4.53,0,0,0,4.84-1.57A4.62,4.62,0,0,0,358.22,165.73Z" style="fill:#ff9a6c"></path><path d="M357.74,161.36c-.51-.06-.68,3.41-3.75,5.73s-6.74,1.78-6.79,2.26c-.06.21.79.71,2.34.82a8.64,8.64,0,0,0,5.66-1.69,7.48,7.48,0,0,0,2.93-4.82C358.33,162.22,358,161.35,357.74,161.36Z" style="fill:#263238"></path><path d="M359.09,126.28c.23.89,3.44.79,7.13,1.6s6.6,2.12,7.17,1.4c.26-.35-.19-1.22-1.32-2.17a12.74,12.74,0,0,0-10.9-2.29C359.75,125.24,359,125.85,359.09,126.28Z" style="fill:#263238"></path><path d="M329.18,129c.72.63,3-.47,6-.93s5.47-.3,5.94-1.13c.19-.4-.3-1.06-1.48-1.59a9.18,9.18,0,0,0-5-.47A9,9,0,0,0,330,127C329.08,127.89,328.85,128.68,329.18,129Z" style="fill:#263238"></path><path d="M351,92.66c0,.17-.07.33-.11.5l.08,0Z" style="fill:#263238"></path><path d="M384.74,204.56a3.86,3.86,0,0,1-4.85-3.06,47.7,47.7,0,0,1-.12-14.06c.75-6.42,5.11-13.14,5.65-19.59,1-12.29-.05-19.18-1.42-29.49-5.79-.72-11.19-4.19-15-8.69-4.64-5.4-7.44-12.1-10.17-18.68a31.23,31.23,0,0,0,6.29,18,8.42,8.42,0,0,1-7.21-2.34,18.89,18.89,0,0,1-4.23-6.57,51.46,51.46,0,0,1-4.1-18.5,66.46,66.46,0,0,0,3,27c-1.62-.5-3.36-.05-5,.19s-3.6.2-4.79-1a6.05,6.05,0,0,1-1.31-3.09,69.4,69.4,0,0,1-.76-23.53,71.5,71.5,0,0,0-5.31,13,25.43,25.43,0,0,0-.1,13.92,2,2,0,0,1-2.87,0,4.82,4.82,0,0,1-1.25-2.9c-.61-3.89.07-7.85.76-11.72-2.31,4.1-3.08,8.86-4.36,13.38s-3.32,9.18-7.25,11.76a61.66,61.66,0,0,1,.58-17.75c.77-4.85,3.07-9.66,5.2-14.08a41.85,41.85,0,0,1,9.37-13c6.82-6,9.67-3.4,14-1.13l.51.22c0-.11,0-.22,0-.32l.19-.93a65.25,65.25,0,0,1,34.37,1.61c8.2,2.67,9,20.33,11,11.94,1.21-5.08,7.79-.44,7.87-.3,9.67,17.45,19.93,45.13,20.4,88.87h0Z" style="fill:#263238"></path><g style="opacity:0.30000000000000004"><path d="M327.78,318.61q-9.3,61-18.59,122l1.44,13.22c1.63,1.86,4.88,1.24,6.54-.6s2.15-4.41,2.56-6.85C326.81,404.19,330.63,361.28,327.78,318.61Z"></path></g><path d="M327.2,215.86l-21,4.1A25.5,25.5,0,0,0,287,237.48a40.14,40.14,0,0,0-1.43,6.62c-1.83,14.18-10.5,52.52-10.5,52.52s-19.33,9.19-20.17,17.07,6.69,22.18,6.69,22.18,8.35,21.94,19.43,26.52c12.16,5,20.62-10.11,20.62-10.11h0c.08,1.38.13,2.15.13,2.15l-31.83,72c8.1,14.45,23.31,31.37,38.76,35.05,0,0,17.93-111.89,18.94-136.33s16.7-119.42,16.7-119.42Z" style="fill:#373856"></path><path d="M253.55,232.33s-3.36-1.34-4.3,1.47c-.61,1.82-1.84,6.63-2.64,9.78a6.54,6.54,0,0,0,1,5.36l2.56,3.58a11.39,11.39,0,0,0-.4,7.11s-3.95,4-3.45,7.54c0,0-5.06,3.22-3.77,8.58s16.28,21.6,16.28,21.6l9.58,3L280.74,291s2.79-15,2.29-21.46c-.6-7.76-3.5-8.53-3.5-8.53l-12.9-12.14-4.6-6.54s-4.33.68-3.55,6.27l-3.86-2.73-1-4.62S256.46,235.47,253.55,232.33Z" style="fill:#ffbf9d"></path><path d="M243,205.76c.78.44,15.79,44.05,15.79,44.05l3.64,1.82L246.28,204.8Z" style="fill:#263238"></path><path d="M257.08,258.19a2.6,2.6,0,0,1,.46.26l1.26.81,4.61,3c1,.62,2,1.31,3.23,2,.58.35,1.19.69,1.83,1a6.61,6.61,0,0,0,2,.73,2,2,0,0,0,1-.12,1.45,1.45,0,0,0,.69-.73,6.28,6.28,0,0,0,.43-2.3,5.11,5.11,0,0,0,0-1.19,3.51,3.51,0,0,0-.53-1.06,12.18,12.18,0,0,0-1.69-1.93,59.15,59.15,0,0,0-7.85-6.09,52.13,52.13,0,0,0-7-4.09,2.55,2.55,0,0,0-2.73.55,8.34,8.34,0,0,0-1.53,1.75c-.73,1.07-1,1.73-1.06,1.71a2,2,0,0,1,.18-.49,11,11,0,0,1,.71-1.33,8.05,8.05,0,0,1,1.51-1.86,3.44,3.44,0,0,1,1.32-.77,2.47,2.47,0,0,1,1.73.1,48,48,0,0,1,7.14,4,57.26,57.26,0,0,1,8,6.11,13.42,13.42,0,0,1,1.75,2,3.91,3.91,0,0,1,.6,1.23,5.53,5.53,0,0,1,.05,1.33,6.75,6.75,0,0,1-.49,2.5,2,2,0,0,1-.93,1,2.47,2.47,0,0,1-1.28.14,6.84,6.84,0,0,1-2.17-.79c-.65-.35-1.26-.71-1.85-1.07-1.17-.71-2.23-1.42-3.2-2.06-1.93-1.29-3.47-2.38-4.53-3.14l-1.2-.89C257.21,258.33,257.07,258.21,257.08,258.19Z" style="fill:#ff9a6c"></path><path d="M250.29,266.22a4.68,4.68,0,0,1,.88-.19l2.51-.42h0l0,0,4,2.9h0l0,0c1.64,1.72,3.6,3.75,5.86,5.87.57.53,1.16,1.07,1.78,1.58a5.55,5.55,0,0,0,2,1.22,1.89,1.89,0,0,0,2-.8,5.26,5.26,0,0,0,.94-2.31,1.85,1.85,0,0,0-.3-1.15,11.05,11.05,0,0,0-.68-1.14c-.49-.74-1-1.45-1.56-2.13-1.08-1.36-2.19-2.62-3.26-3.81a63.41,63.41,0,0,0-6.06-5.93,6.94,6.94,0,0,0-2.8-1.5,5,5,0,0,0-2.38,0,6.93,6.93,0,0,0-1.9.84,1.56,1.56,0,0,1,.42-.36,5.37,5.37,0,0,1,1.42-.68,5,5,0,0,1,2.5-.11,6.94,6.94,0,0,1,3,1.49,58.55,58.55,0,0,1,6.18,5.9c1.09,1.18,2.21,2.44,3.31,3.82.54.68,1.08,1.39,1.59,2.15.25.39.5.77.72,1.2a2.34,2.34,0,0,1,.35,1.47,5.88,5.88,0,0,1-1,2.54,2.83,2.83,0,0,1-1.11.88,2.21,2.21,0,0,1-1.41.1,6,6,0,0,1-2.21-1.34c-.63-.52-1.22-1.07-1.79-1.6-2.26-2.16-4.2-4.21-5.81-6l0,0-3.93-3,.09,0-2.52.3A5.07,5.07,0,0,1,250.29,266.22Z" style="fill:#ff9a6c"></path><path d="M266,276.46a3.06,3.06,0,0,1-.24.86,7.49,7.49,0,0,1-.38,1,1.82,1.82,0,0,1-1.2.85,9.55,9.55,0,0,1-3.68-.17,20.28,20.28,0,0,1-4.08-1.83c-1.64-.91-3.14-1.83-4.42-2.67l.29,0-.29.28,0,0a2.21,2.21,0,0,1-1.17.72,6.24,6.24,0,0,1-1.13.25,14.5,14.5,0,0,1-1.85.11,3.89,3.89,0,0,1-1.59-.17,1.52,1.52,0,0,1,.41,0l1.18-.06c.5,0,1.11-.1,1.79-.22a7.5,7.5,0,0,0,1.06-.27,1.83,1.83,0,0,0,.92-.58v0h0l.29-.3.12-.13.17.1c1.29.8,2.8,1.7,4.42,2.6a21.62,21.62,0,0,0,3.94,1.82,9.94,9.94,0,0,0,3.48.29,1.55,1.55,0,0,0,1-.65c.19-.32.31-.67.44-.92A3.13,3.13,0,0,1,266,276.46Z" style="fill:#ff9a6c"></path><path d="M281.17,287l-21.46,10.56,1,20.1s15.36,2,29-15.33Z" style="fill:#ffbf9d"></path><path d="M269.89,426.42a3.33,3.33,0,0,1,.14-.37l.45-1.07,1.76-4.09,6.62-15.17c5.68-12.91,13.61-30.91,22.63-51.39l0,.11c-.16-5.51-.37-11.26-.64-17.12-.62-13.22-1.34-25.81-1.82-37.26s-.78-21.79-.87-30.46,0-15.7,0-20.55l.13-5.58c0-.62,0-1.1,0-1.45s0-.5,0-.5a4.79,4.79,0,0,1,0,.5c0,.35,0,.83,0,1.45,0,1.3,0,3.18,0,5.59,0,4.85,0,11.86.12,20.53s.46,19,1,30.44,1.2,24.05,1.86,37.27c.27,5.86.47,11.61.64,17.13v.05l0,.06-22.78,51.31C276.3,412.26,274,417.4,272.4,421L270.56,425c-.2.45-.37.79-.48,1.05A3.12,3.12,0,0,1,269.89,426.42Z" style="fill:#263238"></path><path d="M326.45,313a.91.91,0,0,1-.09-.26l-.19-.78c-.17-.72-.4-1.73-.7-3-.54-2.62-1.32-6.43-2-11.17s-1.42-10.41-2-16.72-1-13.27-1.34-20.58c-.12-2.72-.24-5.4-.36-8-.06-1.31-.11-2.6-.17-3.87l-.09-1.9,0-.94v-.48c0-.08,0-.17,0-.26l0-.17a.36.36,0,0,1,.07-.1.31.31,0,0,1,.28-.08c.18.1.13.11.18.16l-.36-.08,5.62-3.92,0,.41-6.1-2.86-.17-.08.05-.17c.92-3.47,2-6.55,3-9.28s1.87-5.08,2.62-7,1.36-3.43,1.78-4.45c.21-.48.37-.87.49-1.16a3.2,3.2,0,0,1,.19-.39,1.43,1.43,0,0,1-.12.41l-.44,1.19L325,222c-.71,1.94-1.57,4.31-2.52,7s-2,5.82-2.89,9.26l-.12-.25,6.12,2.83.37.17-.33.24-5.6,3.94-.36-.08s.18-.13.16-.13,0,0,0,0a.24.24,0,0,0,.11.06l.08,0h0v0l0,.21v.45l0,.93c0,.63.06,1.26.1,1.89.06,1.28.11,2.57.17,3.88.12,2.61.25,5.29.37,8,.34,7.3.77,14.25,1.3,20.56s1.19,12,1.86,16.71,1.38,8.55,1.86,11.18q.39,1.94.6,3l.14.79C326.44,312.94,326.45,313,326.45,313Z" style="fill:#263238"></path><path d="M299.16,304c-.09,0-.13-.9-.62-2.25a9,9,0,0,0-8.5-6c-1.43,0-2.3.27-2.32.18a5,5,0,0,1,2.31-.54,8.71,8.71,0,0,1,8.86,6.21A4.93,4.93,0,0,1,299.16,304Z" style="fill:#263238"></path><path d="M291.67,299.06a10.73,10.73,0,0,1-.75,1.48,14,14,0,0,1-1,1.67c-.44.62-.89,1.37-1.51,2.1-.3.37-.62.76-.94,1.17s-.73.78-1.11,1.2a34.78,34.78,0,0,1-2.6,2.49,35.94,35.94,0,0,1-14.52,7.55,32,32,0,0,1-3.54.7c-.55.08-1.09.18-1.61.22l-1.5.1a22.65,22.65,0,0,1-2.59,0,13.31,13.31,0,0,1-1.94-.12,10.36,10.36,0,0,1-1.64-.24c0-.13,2.36.24,6.14,0l1.48-.13c.52-.05,1.05-.16,1.6-.24,1.1-.15,2.26-.46,3.47-.74a37.14,37.14,0,0,0,14.34-7.46,34.42,34.42,0,0,0,2.6-2.42c.38-.41.78-.77,1.11-1.17s.66-.77,1-1.13C290.51,301.13,291.56,299,291.67,299.06Z" style="fill:#263238"></path><path d="M268.3,277.33c.16,0,.09,2.05.78,4.44s1.81,4.11,1.67,4.2a10.75,10.75,0,0,1-2.45-8.64Z" style="fill:#ff9a6c"></path><path d="M269,266c.14.05-.06.9-.2,2s-.17,1.92-.32,1.93-.35-.88-.2-2S268.84,266,269,266Z" style="fill:#ff9a6c"></path><path d="M425,366.67l20.37-137.09-37.6-13.78s-8.81-8.1-13.5-12.3l-1.65,21.2S387.49,311.37,395.5,355s6.87,42.17,12.73,70.57c4.26,20.66,5,38.71,11.38,40.53s28.63-30.71,28.63-30.71Z" style="fill:#373856"></path><path d="M445.33,229.58s11.4,5.59,13.1,21.51c1.51,14,4,100,3.67,106.91s-6.29,26.53-17,27.21c-16.95,1.08-21.61-12-21.61-12L428,329.3Z" style="fill:#373856"></path><path d="M402.21,308.39l0-.26c0-.2.08-.44.14-.75.14-.69.33-1.65.57-2.86.45-2.5,1.14-6.11,1.78-10.6,1.34-9,2.48-21.47,3.14-35.3.16-3.26.31-6.45.45-9.53.07-1.54.14-3.06.21-4.54,0-.74.08-1.48.11-2.2,0-.36,0-.72.05-1.08v-.53a1.79,1.79,0,0,0,0-.24.38.38,0,0,0,0-.08l0,0,0,0a.18.18,0,0,0,.15.05c.06,0,.16-.07.14-.06h0l-.35.07-5.6-3.94-.32-.23.35-.16,6.13-2.82-.11.23a71,71,0,0,1-1.25-7.45c-.28-2.21-.56-4.11-.86-5.64s-.63-2.72-.87-3.51c-.12-.37-.22-.66-.29-.9a1.25,1.25,0,0,1-.09-.31,1.11,1.11,0,0,1,.14.29c.08.2.21.49.35.88a29.81,29.81,0,0,1,1,3.5c.33,1.54.64,3.44,1,5.64s.65,4.71,1.31,7.4l0,.16-.15.07-6.1,2.87,0-.39,5.62,3.92-.35.07,0-.07a.3.3,0,0,1,.19-.09.27.27,0,0,1,.19.06l.05.06a.25.25,0,0,1,0,.09,1,1,0,0,1,0,.18c0,.11,0,.2,0,.29v.55l0,1.09c0,.73-.08,1.46-.11,2.2-.07,1.49-.13,3-.2,4.54q-.21,4.63-.44,9.53a338.33,338.33,0,0,1-3.3,35.34c-.68,4.49-1.43,8.09-1.94,10.58-.29,1.2-.51,2.16-.67,2.85l-.18.73A.9.9,0,0,1,402.21,308.39Z" style="fill:#263238"></path><g style="opacity:0.30000000000000004"><path d="M346.92,379.05s-2.57,3.34,3.08,4.36,69.61-3.7,69.61-3.7l12.16,7.06-1.59-5.1L420,370.85Z"></path></g><path d="M423.79,272.66l-80.54,4.11a3.7,3.7,0,0,0-3.51,3.5l-5.35,95.53a3.71,3.71,0,0,0,3.9,3.91l78.14-4.09a3.7,3.7,0,0,0,3.5-3.4l7.74-95.56A3.71,3.71,0,0,0,423.79,272.66Z" style="fill:#263238"></path><path d="M440.69,251.72a7.29,7.29,0,0,1-.13.86c-.12.61-.28,1.42-.47,2.44l-1.77,9c-1.47,7.57-3.39,18-5.23,29.67s-3.24,22.18-4.17,29.83c-.46,3.8-.83,6.88-1.09,9.07-.13,1-.23,1.86-.3,2.47a5.92,5.92,0,0,1-.14.85,4.65,4.65,0,0,1,0-.86c.06-.62.12-1.44.21-2.48.19-2.15.5-5.25.92-9.09.84-7.67,2.19-18.24,4-29.88s3.83-22.1,5.39-29.65c.78-3.78,1.44-6.83,1.93-8.93.24-1,.42-1.82.56-2.42A5.48,5.48,0,0,1,440.69,251.72Z" style="fill:#263238"></path><path d="M425.43,335.22s4.64.27,8.74,7.13l7.85,5s6.87,10.79,0,20.87-15.16,1.51-15.16,1.51-8.3,4.11-10.61,3.4-18-9.17-20.34-11.11c-.68-.58-5.74-6.39-5.74-6.39s-7-1.5-7.82-3.11-.86-5.29,3.87-4.93c0,0-4.6-1.39-5.13-3.71s0-5.34,8.15-4.18,23.77,5.5,25.58,5.06a1.13,1.13,0,0,0-.18-2.05c-.58-.27-19-7.43-21.95-8.24-3.19-.87-3.65-8,2.95-6.3s28.1,6.87,28.1,6.87Z" style="fill:#ffbf9d"></path><path d="M413.3,362.53a27.27,27.27,0,0,1-3.41-1c-2.09-.69-5-1.61-8.2-2.55s-6.15-1.71-8.28-2.26a24.4,24.4,0,0,1-3.43-1,3.89,3.89,0,0,1,.95.11c.61.1,1.49.27,2.57.49,2.15.46,5.11,1.18,8.34,2.12s6.11,1.93,8.17,2.7c1,.39,1.86.71,2.43,1A3.59,3.59,0,0,1,413.3,362.53Z" style="fill:#ff9a6c"></path><path d="M415.94,354a6.33,6.33,0,0,1-1.2-.08c-.77-.09-1.89-.23-3.26-.44-2.74-.41-6.52-1.06-10.66-2s-7.85-1.83-10.52-2.59c-1.34-.37-2.41-.69-3.15-.93a6.51,6.51,0,0,1-1.14-.42,5.28,5.28,0,0,1,1.19.22l3.19.78c2.69.66,6.41,1.55,10.54,2.43s7.89,1.6,10.61,2.1l3.23.6A4.55,4.55,0,0,1,415.94,354Z" style="fill:#ff9a6c"></path><path d="M438.27,352.16a2.79,2.79,0,0,1,0,.85,13.76,13.76,0,0,1-.3,2.27,20.32,20.32,0,0,1-8.2,12.44,13.69,13.69,0,0,1-2,1.17c-.49.24-.77.36-.78.32s1-.63,2.54-1.79a22.47,22.47,0,0,0,5.05-5.43,22.76,22.76,0,0,0,3-6.79C438.09,353.35,438.17,352.15,438.27,352.16Z" style="fill:#ff9a6c"></path><path d="M440.87,370.85c-.08-.07,1-1.11,2.22-3.16a18.12,18.12,0,0,0,.55-17.72c-1.08-2.12-2.1-3.23-2-3.29a3.74,3.74,0,0,1,.73.75A15.63,15.63,0,0,1,444,349.8a17.53,17.53,0,0,1-.57,18.09,15.92,15.92,0,0,1-1.75,2.26A4,4,0,0,1,440.87,370.85Z" style="fill:#263238"></path><path d="M459,336.56c-.06.09-1.32-.88-3.59-2a26.78,26.78,0,0,0-4.13-1.58A29.35,29.35,0,0,0,446,332a29,29,0,0,0-5.41.15,25.8,25.8,0,0,0-4.31.95c-2.41.76-3.8,1.53-3.84,1.43a4.65,4.65,0,0,1,.94-.57,9.19,9.19,0,0,1,1.17-.57,16.36,16.36,0,0,1,1.61-.64,23.29,23.29,0,0,1,4.37-1.07,27.43,27.43,0,0,1,5.51-.2,27.92,27.92,0,0,1,5.42,1,24.12,24.12,0,0,1,4.16,1.71,17,17,0,0,1,1.49.87,9.88,9.88,0,0,1,1.08.74A4.44,4.44,0,0,1,459,336.56Z" style="fill:#263238"></path><g style="opacity:0.30000000000000004"><path d="M406.37,217.53s6.79,15.84,5.84,17.16-4.52,2.26-4.52,2.26,5.85,2.52,5.84,4.77c0,4.47-6.27,30.93-6.27,30.93l1.55-32.32-5.61-3.93,6.11-2.84Z"></path></g><path d="M423.46,276.06a3.88,3.88,0,0,1-.45.05l-1.33.1-5.11.34-18.78,1.14-27.87,1.62-16.45.94-4.32.24-2.18.13c-.36,0-.76,0-1.08.06a1.7,1.7,0,0,0-.86.39,1.72,1.72,0,0,0-.52.8,5.22,5.22,0,0,0-.12,1l-.15,2.23-.3,4.51c-1.67,24.19-3.18,46.08-4.27,62-.57,7.91-1,14.32-1.35,18.77-.17,2.2-.31,3.91-.4,5.1-.05.57-.09,1-.11,1.33s-.06.45-.06.45,0-.15,0-.45,0-.77.07-1.33c.07-1.2.17-2.91.29-5.11.28-4.46.69-10.87,1.19-18.78,1.06-15.88,2.51-37.78,4.12-62q.15-2.26.3-4.5l.15-2.23a5.63,5.63,0,0,1,.14-1.17,2.25,2.25,0,0,1,.68-1,2.29,2.29,0,0,1,1.13-.51c.41,0,.74,0,1.12-.07l2.18-.12,4.32-.24,16.46-.91,27.87-1.51,18.79-1,5.11-.24,1.33-.05Z" style="fill:#455a64"></path></g></svg>