<?xml version="1.0" encoding="UTF-8" standalone="no"?>
<svg
   xmlns:dc="http://purl.org/dc/elements/1.1/"
   xmlns:cc="http://creativecommons.org/ns#"
   xmlns:rdf="http://www.w3.org/1999/02/22-rdf-syntax-ns#"
   xmlns:svg="http://www.w3.org/2000/svg"
   xmlns="http://www.w3.org/2000/svg"
   xmlns:sodipodi="http://sodipodi.sourceforge.net/DTD/sodipodi-0.dtd"
   xmlns:inkscape="http://www.inkscape.org/namespaces/inkscape"
   viewBox="0 0 174.10371 46.01852"
   version="1.1"
   id="svg1140"
   inkscape:version="1.0.1 (3bc2e813f5, 2020-09-07)"
   sodipodi:docname="logoScritta.svg">
  <defs
     id="defs1134" />
  <sodipodi:namedview
     id="base"
     pagecolor="#ffffff"
     bordercolor="#666666"
     borderopacity="1.0"
     inkscape:pageopacity="0.0"
     inkscape:pageshadow="2"
     inkscape:zoom="0.98994949"
     inkscape:cx="245.32562"
     inkscape:cy="164.60866"
     inkscape:document-units="mm"
     inkscape:current-layer="layer1"
     inkscape:document-rotation="0"
     showgrid="false"
     inkscape:window-width="1507"
     inkscape:window-height="1009"
     inkscape:window-x="78"
     inkscape:window-y="0"
     inkscape:window-maximized="0" />
  <metadata
     id="metadata1137">
    <rdf:RDF>
      <cc:Work
         rdf:about="">
        <dc:format>image/svg+xml</dc:format>
        <dc:type
           rdf:resource="http://purl.org/dc/dcmitype/StillImage" />
        <dc:title></dc:title>
      </cc:Work>
    </rdf:RDF>
  </metadata>
  <g
     inkscape:label="Livello 1"
     inkscape:groupmode="layer"
     id="layer1"
     transform="translate(-87.573144,-76.0205)">
    <g
       id="g4259"
       style="fill:#373856;fill-opacity:1"
       transform="translate(-50.298426,-173.38657)">
      <path
         id="path1350-4-8-5-5-8"
         style="fill:#373856;fill-opacity:1;fill-rule:evenodd;stroke:none;stroke-width:0.2;stroke-linejoin:round;stroke-opacity:1"
         d="m 143.8433,258.55337 v 5.3e-4 c -2.08415,-4e-5 -4.0903,0.33106 -5.97173,0.93948 1.73236,0.0659 3.45067,0.33805 5.11855,0.8108 8.12157,2.30216 14.18505,9.08465 15.5665,17.41238 l -0.003,-0.001 c 0.22029,1.15157 0.33121,2.32139 0.33126,3.49384 2e-5,5.48014 -2.41655,10.68192 -6.60477,14.21619 2.34,-1.11378 4.39923,-2.75704 6.12418,-4.65398 1.44486,-1.58897 2.60903,-3.47784 3.3946,-5.47667 0.91231,-2.32118 1.44283,-4.82401 1.44283,-7.34167 -1.3e-4,-0.99523 -0.0768,-1.98897 -0.22945,-2.97243 0.004,-0.0146 0.008,-0.0288 0.0124,-0.0434 a 19.160107,19.160107 0 0 0 -2.75487,-7.30239 c -3.54944,-5.65126 -9.75442,-9.08147 -16.42793,-9.08162 z" />
      <path
         id="path3556-1-5-4-6"
         style="fill:#373856;fill-opacity:1;fill-rule:evenodd;stroke:none;stroke-width:0.2;stroke-linejoin:round;stroke-opacity:1"
         d="m 153.59233,279.01022 c -3.93571,0.29604 -2.80295,5.63423 -0.003,6.80436 3.48898,1.21405 3.41385,-3.37932 0.39706,-3.96989 -0.84721,-0.67423 -1.19418,-1.97004 -0.39401,-2.83447 z" />
      <path
         id="path1350-4-8-5-5-7-2"
         style="fill:#373856;fill-opacity:1;fill-rule:evenodd;stroke:none;stroke-width:0.2;stroke-linejoin:round;stroke-opacity:1"
         d="m 167.16493,249.4071 c -2.34,1.11379 -4.39923,2.75704 -6.12418,4.65399 -1.44486,1.58896 -2.60905,3.47783 -3.39463,5.47666 -0.91231,2.32118 -1.4428,4.82401 -1.4428,7.34167 3e-5,0.18695 0.006,0.37391 0.0109,0.56069 l 5.97588,4.29225 c -0.59433,-1.46781 -1.03576,-3.01295 -1.30175,-4.61626 l 0.003,10e-4 c -0.22027,-1.15157 -0.33118,-2.32139 -0.33124,-3.49385 -2e-5,-5.48014 2.41655,-10.68191 6.60477,-14.21618 z" />
    </g>
    <path
       id="path922"
       style="fill:#373856;fill-opacity:1;stroke:none;stroke-width:1;stroke-opacity:1"
       d="m 242.79424,89.689252 c -1.21869,0.0646 -2.10518,2.01355 -2.96108,6.165 -0.58021,2.81437 -1.43005,6.021388 -1.88833,7.126448 l -0.83322,2.00927 -1.01393,-1.94815 c -0.55767,-1.07149 -1.47988,-4.270168 -2.04914,-7.107828 -0.56922,-2.83765 -1.38295,-5.38333 -1.80826,-5.65737 -1.22313,-0.78791 -2.38651,-0.32847 -3.30293,1.30429 -0.76336,1.36005 -0.72287,1.99751 0.40996,6.47131 1.24613,4.921358 3.44254,10.028228 5.14442,11.960898 0.48651,0.55254 1.61791,1.00464 2.51423,1.00464 2.20608,0 4.46432,-3.18581 6.39158,-9.01711 2.09776,-6.347168 2.52084,-10.033038 1.29267,-11.261248 -0.71958,-0.71957 -1.34203,-1.07949 -1.89597,-1.05015 z m -83.82967,0.0993 c -2.03827,0.004 -4.02991,0.19441 -4.96037,0.54816 l -1.47273,0.55979 v 9.371908 c 0,6.52363 0.20949,9.58075 0.68901,10.06029 0.37891,0.37905 1.1021,0.68902 1.60729,0.68902 1.64314,0 2.2963,-1.31705 2.2963,-4.63048 v -3.25276 l 3.30094,-1.23221 c 3.68835,-1.37699 4.63578,-2.014098 6.05437,-4.072348 2.19065,-3.1784 0.65075,-6.94169 -3.15178,-7.70218 -1.1641,-0.23286 -2.77772,-0.34236 -4.36303,-0.33919 z m -13.83131,0.0136 c -1.10405,-0.0453 -2.1712,1.11034 -3.37667,3.5996 -0.71653,1.47955 -1.52793,2.68999 -1.8033,2.68999 -0.27536,0 -0.88867,-0.96876 -1.36276,-2.15279 -1.27921,-3.19475 -2.93405,-4.50459 -4.68397,-3.70724 -1.9218,0.87563 -2.6125,3.62583 -3.01722,12.016058 -0.25262,5.23713 -0.15371,7.23954 0.38903,7.89354 0.39998,0.48194 1.16033,0.87639 1.69,0.87639 1.87716,0 2.34082,-1.26702 2.34082,-6.39589 0,-5.328318 0.49475,-6.518548 1.74117,-4.18962 0.85833,1.60535 3.15517,2.42588 4.46669,1.59864 0.47492,-0.29958 1.33926,-1.43135 1.92057,-2.515228 l 1.05679,-1.97074 v 5.765678 c 0,6.63076 0.60469,8.11197 3.05942,7.49587 2.128,-0.53413 2.39664,-2.2552 1.60827,-10.31177 -0.69355,-7.087478 -1.3511,-9.295278 -3.08899,-10.374878 -0.31876,-0.19803 -0.6307,-0.30492 -0.93985,-0.31761 z m 28.17423,0.01 c -1.62801,0.006 -2.43826,0.23023 -3.24445,0.75846 -1.45668,0.95399 -1.45746,0.963 -1.45746,9.798818 0,7.27452 0.16027,9.00429 0.9023,9.74633 1.02742,1.02741 1.8802,1.12127 3.11091,0.34318 0.60987,-0.38555 0.91599,-1.8674 1.06544,-5.1577 0.18802,-4.14059 0.32636,-4.61686 1.34116,-4.61686 1.7721,0 4.35664,2.98659 4.76903,5.51086 0.60705,3.71591 1.26696,4.8225 2.87602,4.8225 2.99908,0 3.18796,-5.12722 0.36013,-9.77723 -1.03126,-1.695818 -1.03041,-1.798928 0.0355,-3.953408 2.27407,-4.59627 0.12296,-6.87152 -6.95534,-7.35667 -1.15434,-0.0791 -2.06326,-0.12112 -2.80327,-0.11828 z m 83.07718,0.0169 c -0.54544,-0.002 -1.17323,0.009 -1.90427,0.0293 -7.07059,0.19723 -6.65237,-0.46501 -6.65237,10.530708 0,8.36499 0.11283,9.4904 1.00463,10.01941 v 2.7e-4 c 0.55288,0.32788 3.42962,0.53463 6.39756,0.45912 4.41602,-0.11208 5.50724,-0.31881 6.0248,-1.14151 1.22997,-1.95492 -0.2233,-2.99576 -4.44511,-3.18365 l -3.8152,-0.17011 v -3.10484 -3.10493 l 3.87501,-0.169748 c 3.61704,-0.15845 3.88815,-0.26312 4.07302,-1.57274 0.27863,-1.97398 -1.28894,-2.9026 -4.90025,-2.9026 -4.40096,0 -3.7556,-1.0643 0.76742,-1.26542 2.9473,-0.13112 3.95933,-0.4064 4.44909,-1.21028 0.51672,-0.84805 0.37783,-1.25111 -0.75082,-2.17704 -0.94493,-0.77534 -1.75987,-1.02701 -4.12351,-1.03586 z m -131.52378,0.003 c -0.39175,-0.0194 -0.67872,0.246181 -1.27904,0.846501 -0.74367,0.743649 -0.90232,2.488599 -0.90232,9.931707 0,6.25742 0.21161,9.24071 0.68902,9.71809 0.3789,0.37908 1.10209,0.68903 1.60728,0.68903 2.0447,0 2.2963,-1.17409 2.2963,-10.71509 0,-8.643908 -0.0823,-9.381217 -1.11028,-9.931368 -0.62828,-0.33623 -0.99628,-0.52382 -1.30096,-0.53887 z m 70.88604,0.10265 c -4.14845,0.0301 -8.18417,2.71696 -9.25829,7.725441 -1.22647,5.718837 1.07128,10.884867 5.65438,12.712377 2.40199,0.95784 6.44141,0.73835 8.40084,-0.45646 4.91142,-2.99485 6.73401,-9.35171 4.12683,-14.394088 -1.97174,-3.813359 -5.48646,-5.61223 -8.92376,-5.58727 z m 21.48764,0.0205 c -1.81723,-0.01 -3.64476,0.54145 -5.4474,1.64948 -4.42288,2.71864 -5.78926,10.511898 -2.62521,14.974138 0.90101,1.27065 2.5383,2.78913 3.63847,3.37434 4.48964,2.38818 10.69668,0.46132 13.04428,-4.04941 3.10834,-5.972467 0.63931,-13.034238 -5.35804,-15.324638 -1.07511,-0.41059 -2.16175,-0.618109 -3.2521,-0.62391 z m -59.59589,0.958791 c 2.8921,-0.002 6.63012,0.63793 7.55037,1.470729 2.67187,2.41804 0.14236,6.331611 -5.48164,8.480908 l -3.44446,1.31625 -0.28703,3.65542 c -0.26493,3.3738 -0.92267,4.64002 -1.90163,3.66106 -0.21706,-0.21703 -0.39468,-4.3509 -0.39468,-9.18621 v -8.791518 l 1.4847,-0.37276 c 0.6404,-0.16073 1.51034,-0.23296 2.47437,-0.233879 z m 15.53126,10e-4 c 0.79239,0.002 1.76846,0.0852 2.97105,0.18604 6.31904,0.52974 7.60963,1.94785 5.55405,6.10254 -1.14079,2.30608 -1.14085,2.31047 0.007,4.185967 1.44024,2.35192 2.52728,6.33952 2.06009,7.55701 -0.56125,1.46257 -1.90049,1.07296 -2.25544,-0.65614 -1.27376,-6.20503 -3.28845,-8.754647 -6.91781,-8.754647 h -1.96524 v 4.258717 c 0,2.34222 -0.15681,4.66724 -0.34849,5.16669 -0.19166,0.49944 -0.51456,0.88881 -0.71759,0.86277 -1.67775,-0.20601 -1.8043,-0.84916 -1.8043,-9.1676 0,-8.232487 -0.0174,-9.750097 3.41622,-9.741347 z m 79.91247,0.0176 c 0.63395,-0.002 1.36512,0.009 2.2086,0.009 6.64799,0.002 7.14819,2.08671 0.57408,2.39298 -3.59451,0.16746 -3.73779,0.23175 -3.91288,1.75246 -0.17862,1.55267 -0.12945,1.57872 2.96672,1.57872 3.67542,0 4.96468,0.38868 4.96468,1.49665 0,0.60723 -0.96637,0.79965 -4.01852,0.79965 h -4.01853 v 4.280647 4.28031 l 4.16204,0.16844 c 3.24192,0.13136 4.16205,0.35915 4.16205,1.02989 0,0.68942 -0.97327,0.8828 -4.87964,0.97007 -2.68379,0.0599 -5.20254,-0.0262 -5.59724,-0.19135 -0.52967,-0.22164 -0.71759,-2.59971 -0.71759,-9.08356 0,-8.860337 -0.3314,-9.470397 4.10623,-9.483537 z m -56.74844,0.2083 c 0.3753,0.002 0.7417,0.0311 1.09234,0.0904 8.00817,1.35298 9.89375,13.407727 2.72719,17.435557 v -2.6e-4 c -2.60653,1.46521 -5.35003,1.53291 -7.96995,0.19702 -5.05892,-2.57966 -6.42796,-9.555452 -2.85909,-14.567522 1.309,-1.83828 4.38236,-3.16864 7.00951,-3.15508 z m 21.05542,0.021 c 1.95089,0.0299 3.84341,0.82696 5.71086,2.39829 4.46151,3.75412 3.46819,12.534717 -1.71725,15.180117 -2.73474,1.39494 -5.38408,1.43605 -7.95866,0.12325 -6.91007,-3.52357 -6.37418,-14.360707 0.8465,-17.118287 1.05883,-0.40436 2.09665,-0.59905 3.11855,-0.58337 z m 13.61935,0.0107 c 0.77322,0.0358 1.36272,1.55589 1.82056,4.63413 0.78153,5.254677 2.87995,10.615787 4.15541,10.617077 1.16163,0.001 3.11131,-4.93509 4.03514,-10.215757 0.77922,-4.45812 1.62661,-5.82362 2.75942,-4.45872 0.59596,0.7181 0.56911,1.60516 -0.14552,4.76503 -1.13997,5.040557 -3.01523,10.007497 -4.48197,11.872207 -1.26146,1.60367 -2.8767,1.9186 -3.84644,0.75015 -2.8047,-3.37952 -6.58778,-15.767447 -5.29193,-17.328907 0.36193,-0.43612 0.69276,-0.64922 0.99533,-0.63521 z m -96.23674,0.0501 c 0.81355,-0.0445 1.5676,0.95199 3.02186,3.83348 1.78849,3.54374 2.84034,3.46025 4.65175,-0.36875 1.69033,-3.57304 3.3902,-4.26566 4.33978,-1.76808 0.79084,2.08013 1.92265,13.798447 1.49665,15.495717 -0.40722,1.62249 -1.75467,1.94377 -2.29098,0.54617 -0.19167,-0.49943 -0.34851,-3.1909 -0.34851,-5.98095 0,-7.166547 -0.848,-8.760697 -2.65011,-4.981627 -1.29202,2.709527 -2.8945,3.614597 -4.24111,2.395967 -0.5724,-0.518007 -1.35395,-1.698127 -1.73685,-2.622537 -0.69811,-1.68542 -2.21758,-2.30828 -2.34946,-0.96311 -0.0387,0.39468 -0.23244,3.409667 -0.43056,6.699877 -0.24111,4.00417 -0.5976,6.06043 -1.07772,6.21881 -1.21103,0.39987 -1.47242,-1.44031 -1.10928,-7.80849 0.38517,-6.754527 1.14219,-10.144897 2.37006,-10.616077 0.12086,-0.0463 0.23824,-0.0741 0.35448,-0.0804 z m -9.39418,0.3578 c 0.71307,0.0284 0.75089,1.25827 0.61759,8.867947 -0.11565,6.60335 -0.35174,9.10367 -0.87574,9.2779 -1.17294,0.38991 -1.33269,-0.93299 -1.16475,-9.6357 0.14305,-7.411897 0.26797,-8.311557 1.17938,-8.486217 0.0887,-0.017 0.16976,-0.0268 0.24352,-0.024 z m 47.24631,1.58303 v 2.00163 c 0,1.82553 0.16404,2.02284 1.86572,2.2448 3.13532,0.40871 4.59169,0.16241 5.24941,-0.88802 1.15441,-1.8437 -0.24329,-2.99333 -3.87368,-3.18599 z m 23.46898,0.10436 c -0.86326,0.0197 -1.77363,0.28223 -2.74979,0.78702 -2.20098,1.13815 -3.12217,3.64042 -2.79463,7.590227 0.21861,2.63609 0.56396,3.50536 1.82489,4.58994 2.31319,1.98973 5.56025,1.8388 7.39654,-0.34352 2.73876,-3.25486 2.46155,-9.128467 -0.54252,-11.491477 -0.99256,-0.78073 -2.02458,-1.15747 -3.13449,-1.13219 z m 21.31887,0.0594 c -2.07006,-0.0485 -4.16556,1.06178 -5.06469,3.03517 -1.53017,3.35835 -0.41189,9.161927 2.04083,10.590497 0.55254,0.32171 1.9506,0.59222 3.10659,0.60231 5.44346,0.0452 7.60408,-9.512947 2.97369,-13.155237 -0.89459,-0.70368 -1.9721,-1.0473 -3.05642,-1.07274 z m -61.14903,0.18074 -0.17607,3.09229 -0.17641,3.09197 1.66874,-0.33354 c 0.91768,-0.18357 2.62532,-0.89825 3.79494,-1.58835 1.71337,-1.01092 2.09267,-1.54719 1.95213,-2.75875 -0.16654,-1.43558 -0.32998,-1.50362 -3.61887,-1.50362 z m 3.44446,0.86111 c 2.78226,0 3.15915,0.44915 1.57771,1.88037 -0.55313,0.50054 -1.71564,1.18004 -2.58334,1.50993 -1.53322,0.58293 -1.57771,0.54357 -1.57771,-1.39532 0,-1.98208 0.0171,-1.99498 2.58334,-1.99498 z m 15.34058,0.0684 c 0.31574,-0.006 0.70002,0.009 1.1641,0.0422 1.70755,0.12354 2.43982,0.43489 2.43982,1.03752 0,0.47361 -0.51668,0.89493 -1.14816,0.9362 -2.09559,0.13732 -3.73149,-0.43099 -3.73149,-1.29633 0,-0.48619 0.32848,-0.69981 1.27573,-0.71959 z m 20.95542,0.0113 c 0.29239,0.007 0.59429,0.0494 0.90431,0.12724 3.41963,0.85825 4.76764,7.599337 2.08966,10.449957 -2.79963,2.98006 -6.76431,1.15309 -7.27197,-3.35075 -0.47425,-4.207617 1.45153,-7.301097 4.278,-7.226447 z m 21.41854,0.10265 c 1.59278,-0.01 2.93215,1.02082 3.74145,2.95775 1.15873,2.773177 1.04105,4.414667 -0.47872,6.677607 -2.64226,3.93448 -7.15751,2.4652 -7.71847,-2.51158 -0.38814,-3.443657 0.60801,-5.860077 2.78866,-6.763317 0.57701,-0.239 1.13616,-0.35738 1.66708,-0.36046 z"
       inkscape:original-d="m 293.09267,263.07582 c -1.21869,0.0646 -2.10518,2.01355 -2.96108,6.165 -0.58021,2.81437 -1.43005,6.02139 -1.88833,7.12645 l -0.83322,2.00927 -1.01393,-1.94815 c -0.55767,-1.07149 -1.47988,-4.27017 -2.04914,-7.10783 -0.56922,-2.83765 -1.38295,-5.38333 -1.80826,-5.65737 -1.22313,-0.78791 -2.38651,-0.32847 -3.30293,1.30429 -0.76336,1.36005 -0.72287,1.99751 0.40996,6.47131 1.24613,4.92136 3.44254,10.02823 5.14442,11.9609 0.48651,0.55254 1.61791,1.00464 2.51423,1.00464 2.20608,0 4.46432,-3.18581 6.39158,-9.01711 2.09776,-6.34717 2.52084,-10.03304 1.29267,-11.26125 -0.71958,-0.71957 -1.34203,-1.07949 -1.89597,-1.05015 z m -83.82967,0.0993 c -2.03827,0.004 -4.02992,0.19441 -4.96038,0.54816 l -1.47272,0.55979 v 9.37191 c 0,6.52363 0.20948,9.58075 0.68901,10.06029 0.37891,0.37905 1.1021,0.68902 1.60729,0.68902 1.64313,0 2.2963,-1.31705 2.2963,-4.63048 v -3.25276 l 3.30094,-1.23221 c 3.68835,-1.37699 4.63578,-2.0141 6.05437,-4.07235 2.19065,-3.1784 0.65075,-6.94169 -3.15178,-7.70218 -1.16411,-0.23286 -2.77772,-0.34236 -4.36303,-0.33919 z m -13.83131,0.0136 c -1.10405,-0.0453 -2.1712,1.11034 -3.37667,3.5996 -0.71653,1.47955 -1.52793,2.68999 -1.8033,2.68999 -0.27536,0 -0.88867,-0.96876 -1.36277,-2.15279 -1.2792,-3.19475 -2.93404,-4.50459 -4.68396,-3.70724 -1.9218,0.87563 -2.6125,3.62583 -3.01722,12.01606 -0.25262,5.23713 -0.15371,7.23954 0.38903,7.89354 0.39998,0.48194 1.16033,0.87639 1.69,0.87639 1.87716,0 2.34082,-1.26702 2.34082,-6.39589 0,-5.32832 0.49475,-6.51855 1.74117,-4.18962 0.85833,1.60535 3.15517,2.42588 4.46669,1.59864 0.47492,-0.29958 1.33926,-1.43135 1.92056,-2.51523 l 1.0568,-1.97074 v 5.76568 c 0,6.63076 0.60468,8.11197 3.05941,7.49587 2.12801,-0.53413 2.39665,-2.2552 1.60827,-10.31177 -0.69355,-7.08748 -1.3511,-9.29528 -3.08898,-10.37488 -0.31876,-0.19803 -0.63071,-0.30492 -0.93985,-0.31761 z m 28.17423,0.01 c -1.62802,0.006 -2.43826,0.23023 -3.24446,0.75846 -1.45667,0.95399 -1.45745,0.963 -1.45745,9.79882 0,7.27452 0.16027,9.00429 0.9023,9.74633 1.02742,1.02741 1.8802,1.12127 3.11091,0.34318 0.60987,-0.38555 0.91599,-1.8674 1.06544,-5.1577 0.18802,-4.14059 0.32636,-4.61686 1.34116,-4.61686 1.77209,0 4.35664,2.98659 4.76902,5.51086 0.60705,3.71591 1.26697,4.8225 2.87603,4.8225 2.99907,0 3.18796,-5.12722 0.36013,-9.77723 -1.03127,-1.69582 -1.03041,-1.79893 0.0355,-3.95341 2.27406,-4.59627 0.12295,-6.87152 -6.95535,-7.35667 -1.15434,-0.0791 -2.06326,-0.12112 -2.80327,-0.11828 z m 83.07718,0.0169 c -0.54544,-0.002 -1.17323,0.009 -1.90427,0.0293 -7.07059,0.19723 -6.65237,-0.46501 -6.65237,10.53071 0,8.36499 0.11283,9.4904 1.00463,10.01941 v 3.5e-4 c 0.55288,0.32788 3.42962,0.53463 6.39756,0.45912 4.41602,-0.11208 5.50724,-0.31881 6.0248,-1.14151 1.22997,-1.95492 -0.2233,-2.99576 -4.44511,-3.18365 l -3.8152,-0.17011 v -3.10492 -3.10493 l 3.87501,-0.16975 c 3.61704,-0.15845 3.88815,-0.26312 4.07302,-1.57274 0.27863,-1.97398 -1.28894,-2.9026 -4.90025,-2.9026 -4.40096,0 -3.7556,-1.0643 0.76742,-1.26542 2.9473,-0.13112 3.95933,-0.4064 4.44909,-1.21028 0.51672,-0.84805 0.37783,-1.25111 -0.75082,-2.17704 -0.94493,-0.77534 -1.75987,-1.02701 -4.12351,-1.03586 z m -131.52378,0.003 c -0.39175,-0.0194 -0.67872,0.24618 -1.27905,0.8465 -0.74366,0.74365 -0.90231,2.4886 -0.90231,9.93171 0,6.25742 0.21161,9.24071 0.68902,9.71809 0.37889,0.37908 1.10209,0.68903 1.60728,0.68903 2.0447,0 2.2963,-1.17409 2.2963,-10.71509 0,-8.64391 -0.0823,-9.38122 -1.11028,-9.93137 -0.62828,-0.33623 -0.99628,-0.52382 -1.30096,-0.53887 z m 70.88604,0.10265 c -4.14845,0.0301 -8.18417,2.71696 -9.25829,7.72544 -1.22648,5.71884 1.07127,10.88487 5.65438,12.71238 2.40199,0.95784 6.44141,0.73835 8.40084,-0.45646 4.91142,-2.99485 6.73401,-9.35171 4.12683,-14.39409 -1.97174,-3.81336 -5.48646,-5.61223 -8.92376,-5.58727 z m 21.48764,0.0205 c -1.81723,-0.01 -3.64476,0.54145 -5.4474,1.64948 -4.42288,2.71864 -5.78926,10.5119 -2.62521,14.97414 0.90101,1.27065 2.5383,2.78913 3.63847,3.37434 4.48964,2.38818 10.69668,0.46132 13.04428,-4.04941 3.10834,-5.97247 0.63931,-13.03424 -5.35804,-15.32464 -1.07511,-0.41059 -2.16175,-0.61811 -3.2521,-0.62391 z m -59.59589,0.95879 c 2.89209,-0.002 6.63012,0.63793 7.55036,1.47073 2.67188,2.41804 0.14237,6.33161 -5.48164,8.48091 l -3.44445,1.31625 -0.28703,3.65542 c -0.26494,3.3738 -0.92267,4.64002 -1.90163,3.66106 -0.21706,-0.21703 -0.39468,-4.3509 -0.39468,-9.18621 v -8.79152 l 1.4847,-0.37276 c 0.6404,-0.16073 1.51033,-0.23296 2.47437,-0.23388 z m 15.53126,10e-4 c 0.79239,0.002 1.76846,0.0852 2.97105,0.18604 6.31904,0.52974 7.60963,1.94785 5.55405,6.10254 -1.14079,2.30608 -1.14085,2.31047 0.007,4.18597 1.44024,2.35192 2.52728,6.33952 2.06009,7.55701 -0.56125,1.46257 -1.90049,1.07296 -2.25544,-0.65614 -1.27376,-6.20503 -3.28845,-8.75465 -6.91781,-8.75465 h -1.96525 v 4.25872 c 0,2.34222 -0.15682,4.66724 -0.3485,5.16669 -0.19165,0.49944 -0.51456,0.88881 -0.71759,0.86277 -1.67775,-0.20601 -1.80429,-0.84916 -1.80429,-9.1676 0,-8.23249 -0.0174,-9.7501 3.41622,-9.74135 z m 79.91247,0.0176 c 0.63395,-0.002 1.36512,0.009 2.2086,0.009 6.64799,0.002 7.14819,2.08671 0.57408,2.39298 -3.59451,0.16746 -3.73779,0.23175 -3.91288,1.75246 -0.17862,1.55267 -0.12945,1.57872 2.96672,1.57872 3.67542,0 4.96468,0.38868 4.96468,1.49665 0,0.60723 -0.96637,0.79965 -4.01852,0.79965 h -4.01853 v 4.28065 4.28031 l 4.16204,0.16844 c 3.24192,0.13136 4.16205,0.35915 4.16205,1.02989 0,0.68942 -0.97327,0.8828 -4.87964,0.97007 -2.68379,0.0599 -5.20254,-0.0262 -5.59724,-0.19135 -0.52967,-0.22164 -0.71759,-2.59971 -0.71759,-9.08356 0,-8.86034 -0.3314,-9.4704 4.10623,-9.48354 z m -56.74844,0.2083 c 0.3753,0.002 0.7417,0.0311 1.09234,0.0904 8.00817,1.35298 9.89375,13.40773 2.72719,17.43556 v -3.5e-4 c -2.60653,1.46521 -5.35003,1.53291 -7.96995,0.19702 -5.05893,-2.57966 -6.42796,-9.55545 -2.85909,-14.56752 1.309,-1.83828 4.38236,-3.16864 7.00951,-3.15508 z m 21.05542,0.021 c 1.95089,0.0299 3.84341,0.82696 5.71086,2.39829 4.46151,3.75412 3.46819,12.53472 -1.71725,15.18012 -2.73474,1.39494 -5.38408,1.43605 -7.95866,0.12325 -6.91007,-3.52357 -6.37418,-14.36071 0.8465,-17.11829 1.05883,-0.40436 2.09665,-0.59905 3.11855,-0.58337 z m 13.61935,0.0107 c 0.77322,0.0358 1.36272,1.55589 1.82056,4.63413 0.78153,5.25468 2.87995,10.61579 4.15541,10.61708 1.16163,0.001 3.11131,-4.93509 4.03514,-10.21576 0.77922,-4.45812 1.62661,-5.82362 2.75942,-4.45872 0.59596,0.7181 0.56911,1.60516 -0.14552,4.76503 -1.13997,5.04056 -3.01523,10.0075 -4.48197,11.87221 -1.26146,1.60367 -2.8767,1.9186 -3.84644,0.75015 -2.8047,-3.37952 -6.58778,-15.76745 -5.29193,-17.32891 0.36193,-0.43612 0.69276,-0.64922 0.99533,-0.63521 z m -96.23674,0.0501 c 0.81355,-0.0445 1.5676,0.95199 3.02186,3.83348 1.78849,3.54374 2.84034,3.46025 4.65175,-0.36875 1.69032,-3.57304 3.3902,-4.26566 4.33978,-1.76808 0.79084,2.08013 1.92265,13.79845 1.49665,15.49572 -0.40722,1.62249 -1.75467,1.94377 -2.29098,0.54617 -0.19167,-0.49943 -0.34851,-3.1909 -0.34851,-5.98095 0,-7.16655 -0.848,-8.7607 -2.65011,-4.98163 -1.29202,2.70953 -2.8945,3.6146 -4.24111,2.39597 -0.5724,-0.51801 -1.35395,-1.69813 -1.73685,-2.62254 -0.69812,-1.68542 -2.21758,-2.30828 -2.34946,-0.96311 -0.0387,0.39468 -0.23244,3.40967 -0.43056,6.69988 -0.24111,4.00417 -0.5976,6.06043 -1.07772,6.21881 -1.21103,0.39987 -1.47242,-1.44031 -1.10928,-7.80849 0.38517,-6.75453 1.14219,-10.1449 2.37006,-10.61608 0.12086,-0.0463 0.23824,-0.0741 0.35448,-0.0804 z m -9.39418,0.3578 c 0.71307,0.0284 0.75089,1.25827 0.61759,8.86795 -0.11565,6.60335 -0.35174,9.10367 -0.87574,9.2779 -1.17294,0.38991 -1.33269,-0.93299 -1.16475,-9.6357 0.14304,-7.4119 0.26797,-8.31156 1.17938,-8.48622 0.0887,-0.017 0.16975,-0.0268 0.24352,-0.024 z m 47.2463,1.58303 v 2.00163 c 0,1.82553 0.16405,2.02284 1.86573,2.2448 3.13531,0.40871 4.59169,0.16241 5.24941,-0.88802 1.15441,-1.8437 -0.24329,-2.99333 -3.87368,-3.18599 z m 23.46899,0.10436 c -0.86326,0.0197 -1.77363,0.28223 -2.74979,0.78702 -2.20098,1.13815 -3.12217,3.64042 -2.79463,7.59023 0.21861,2.63609 0.56396,3.50536 1.82489,4.58994 2.31319,1.98973 5.56025,1.8388 7.39654,-0.34352 2.73876,-3.25486 2.46155,-9.12847 -0.54252,-11.49148 -0.99256,-0.78073 -2.02458,-1.15747 -3.13449,-1.13219 z m 21.31887,0.0594 c -2.07006,-0.0485 -4.16556,1.06178 -5.06469,3.03517 -1.53017,3.35835 -0.41189,9.16193 2.04083,10.5905 0.55254,0.32171 1.9506,0.59222 3.10659,0.60231 5.44346,0.0452 7.60408,-9.51295 2.97369,-13.15524 -0.89459,-0.70368 -1.9721,-1.0473 -3.05642,-1.07274 z m -61.14903,0.18074 -0.17607,3.09229 -0.17641,3.09197 1.66874,-0.33354 c 0.91768,-0.18357 2.62532,-0.89825 3.79494,-1.58835 1.71337,-1.01092 2.09267,-1.54719 1.95212,-2.75875 -0.16653,-1.43558 -0.32998,-1.50362 -3.61887,-1.50362 z m 3.44445,0.86111 c 2.78227,0 3.15916,0.44915 1.57772,1.88037 -0.55313,0.50054 -1.71564,1.18004 -2.58334,1.50993 -1.53322,0.58293 -1.57771,0.54357 -1.57771,-1.39532 0,-1.98208 0.0171,-1.99498 2.58333,-1.99498 z m 15.34059,0.0684 c 0.31574,-0.006 0.70001,0.009 1.1641,0.0422 1.70755,0.12354 2.43981,0.43489 2.43981,1.03752 0,0.47361 -0.51667,0.89493 -1.14815,0.9362 -2.09559,0.13732 -3.73149,-0.43099 -3.73149,-1.29633 0,-0.48619 0.32848,-0.69981 1.27573,-0.71959 z m 20.95542,0.0113 c 0.29239,0.007 0.59429,0.0494 0.90431,0.12724 3.41963,0.85825 4.76764,7.59934 2.08966,10.44996 -2.79963,2.98006 -6.76431,1.15309 -7.27197,-3.35075 -0.47425,-4.20762 1.45153,-7.3011 4.278,-7.22645 z m 21.41854,0.10265 c 1.59278,-0.01 2.93215,1.02082 3.74145,2.95775 1.15873,2.77318 1.04105,4.41467 -0.47872,6.67761 -2.64226,3.93448 -7.15751,2.4652 -7.71847,-2.51158 -0.38814,-3.44366 0.60801,-5.86008 2.78866,-6.76332 0.57701,-0.239 1.13616,-0.35738 1.66708,-0.36046 z" />
    <path
       style="opacity:1;fill:#373856;fill-opacity:1;fill-rule:evenodd;stroke:none;stroke-width:0.2;stroke-linejoin:round;stroke-opacity:1"
       d="m 134.77209,91.021182 c -0.93512,0.05374 -1.42162,1.020207 -1.67828,1.803877 -0.7785,2.474542 -0.94983,5.087805 -1.16599,7.657991 -0.13875,2.54138 -0.3725,5.09625 -0.15503,7.63942 0.0947,0.67456 0.18163,1.61616 0.95304,1.85262 0.56984,0.16031 0.96982,-0.41805 1.05795,-0.90991 0.49511,-2.05271 0.54348,-4.18052 0.71094,-6.2771 0.14593,-2.03793 0.21343,-4.082763 0.4222,-6.114657 0.0302,-0.354991 0.43717,-0.458152 0.69801,-0.268975 1.00762,0.552661 1.23192,1.776545 1.84668,2.65684 0.55265,0.823383 1.14537,1.868432 2.22168,2.026602 0.64475,0.11634 1.29208,-0.11361 1.76204,-0.55965 1.29112,-1.066294 1.72695,-2.764284 2.72942,-4.040581 0.12295,-0.173196 0.40532,-0.387085 0.54725,-0.10541 0.48973,0.782849 0.45571,1.75985 0.55795,2.634827 0.22155,3.111894 0.0568,6.257394 0.38838,9.368684 0.0524,0.73414 0.48712,1.63185 1.3149,1.67108 0.91025,-0.0594 1.42502,-1.03245 1.55314,-1.83877 0.11778,-3.00157 -0.19871,-6.00157 -0.49722,-8.984935 -0.25832,-2.069651 -0.44035,-4.166817 -0.99581,-6.183313 -0.25016,-0.776975 -0.7218,-1.755246 -1.64955,-1.819328 -1.01033,0.02143 -1.68407,0.933106 -2.2102,1.686587 -0.89246,1.357577 -1.38072,2.959179 -2.48615,4.171579 -0.32297,0.389811 -0.93792,0.429657 -1.27189,0.0403 -1.08518,-1.164934 -1.62094,-2.708248 -2.45469,-4.043918 -0.49029,-0.752025 -0.93648,-1.702673 -1.84026,-2.022898 -0.11644,-0.03223 -0.23784,-0.04543 -0.35851,-0.04096 z"
       id="path4473" />
    <path
       style="opacity:1;fill:#373856;fill-opacity:1;fill-rule:evenodd;stroke:none;stroke-width:0.2;stroke-linejoin:round;stroke-opacity:1"
       d="m 125.29347,91.374798 c -0.66553,0 -1.10369,0.624575 -1.16308,1.236583 -0.33406,2.170324 -0.28562,4.377955 -0.36704,6.56725 -0.036,3.038899 -0.19217,6.087929 0.0652,9.120849 0.10196,0.57153 0.0989,1.35805 0.69621,1.65195 0.47933,0.19976 1.00411,-0.147 1.08352,-0.64555 0.43747,-1.67572 0.41476,-3.42964 0.50853,-5.14813 0.10085,-3.73124 0.13218,-7.466097 0.0581,-11.197966 -0.041,-0.54811 -0.004,-1.379775 -0.66443,-1.564322 -0.071,-0.01614 -0.14424,-0.02249 -0.21704,-0.02064 z"
       id="path4475" />
    <path
       style="opacity:1;fill:#373856;fill-opacity:1;fill-rule:evenodd;stroke:none;stroke-width:0.2;stroke-linejoin:round;stroke-opacity:1"
       d="m 157.5145,90.699237 c -1.32148,0 -2.64164,0.250402 -3.89617,0.632328 -0.27219,0.274108 -0.0617,0.759831 -0.12787,1.119267 0.0286,5.014013 -0.0757,10.031758 0.13556,15.042808 0.0828,0.69995 0.0138,1.44711 0.27139,2.11169 0.32263,0.49348 1.14432,0.55065 1.4472,0 0.65835,-1.11024 0.68266,-2.45673 0.83635,-3.70544 0.11168,-1.18438 0.18364,-2.37225 0.30505,-3.55573 2.70897,-1.10705 5.6384,-1.94358 7.86644,-3.93724 1.18187,-1.024652 2.25121,-2.492692 2.0805,-4.136945 -0.14103,-1.249971 -1.08956,-2.339102 -2.30572,-2.65938 -2.12801,-0.663999 -4.39261,-0.874078 -6.61273,-0.912257 z m 0.11589,3.038714 c 1.61255,0.02408 3.23688,-0.01296 4.83342,0.13036 0.68152,0.274558 0.67854,1.124294 0.65229,1.740985 -0.10185,0.912971 -1.00195,1.419807 -1.69719,1.87235 -1.52652,0.893286 -3.17212,1.598612 -4.92464,1.86436 -0.40008,0.204443 -0.34892,-0.138086 -0.32019,-0.438917 0.0888,-1.715135 0.19874,-3.435218 0.2941,-5.152867 0.38716,-0.01614 0.77479,-0.01455 1.16221,-0.0164 z"
       id="path4477" />
    <path
       style="opacity:1;fill:#373856;fill-opacity:1;fill-rule:evenodd;stroke:none;stroke-width:0.2;stroke-linejoin:round;stroke-opacity:1"
       d="m 173.00567,90.704688 c -1.00078,-0.0071 -2.19043,0.213995 -2.70835,1.17938 -0.733,1.355513 -0.61579,2.957777 -0.69972,4.447884 -0.039,3.519038 -0.0845,7.041908 0.0658,10.558858 0.1,0.91041 0.0451,1.9816 0.71702,2.69632 0.48803,0.50675 1.50892,0.61809 1.86373,-0.0995 0.53676,-1.03817 0.45146,-2.26057 0.53329,-3.39437 0.0601,-2.11553 0.0332,-4.23225 0.0406,-6.348331 1.23412,0.07969 2.4992,-0.09382 3.69165,0.308631 1.72527,0.62985 2.8461,2.26063 3.49695,3.88795 0.69202,1.59377 0.97216,3.31767 1.48077,4.98089 0.24153,0.60788 0.84068,1.31397 1.56826,1.09297 0.88675,-0.32782 1.07251,-1.38658 0.99682,-2.22033 -0.2054,-2.64256 -1.32326,-5.12403 -2.66105,-7.37754 -0.38986,-0.581237 -0.39261,-1.344507 -0.0513,-1.948207 0.60502,-1.417055 1.53995,-2.81522 1.42653,-4.422987 0.018,-1.138396 -0.99859,-1.9608 -1.98967,-2.30243 -2.13238,-0.743823 -4.42005,-0.829575 -6.65141,-1.008116 -0.37277,-0.02275 -0.74631,-0.03646 -1.11982,-0.03109 z m -0.0902,2.700205 c 1.57525,0.07112 3.175,0.121497 4.74351,0.363934 0.80332,0.182219 1.76477,0.403067 2.1691,1.211951 0.22805,0.740965 -0.24064,1.569455 -0.85304,1.978289 -1.06998,0.566817 -2.34699,0.381794 -3.49504,0.337609 -0.75427,-0.09541 -1.56967,-0.09112 -2.25343,-0.454131 -0.55986,-0.528717 -0.31782,-1.387528 -0.39656,-2.068539 -0.008,-0.456433 -0.0161,-0.912918 -0.0241,-1.369378 l 0.0661,1.59e-4 z"
       id="path4479" />
    <path
       style="opacity:1;fill:#373856;fill-opacity:1;fill-rule:evenodd;stroke:none;stroke-width:0.2;stroke-linejoin:round;stroke-opacity:1"
       d="m 196.18089,90.999222 c -3.17399,0.03908 -6.5147,1.623986 -7.87156,4.622853 -2.1745,4.176739 -1.25484,9.996325 2.73701,12.757995 2.3649,1.71712 5.60408,2.11344 8.27545,0.88988 3.14727,-1.28493 5.30061,-4.50078 5.3994,-7.88377 0.38069,-4.004864 -1.76302,-8.397662 -5.62961,-9.894224 -0.92308,-0.376212 -1.91815,-0.514509 -2.91069,-0.492734 z m 0.0589,2.497772 c 2.71158,0.02381 4.65857,2.573153 5.05782,5.067671 0.43728,2.828845 -0.2005,6.127855 -2.56135,7.989675 -2.18937,1.59959 -5.46748,0.82013 -7.00757,-1.33583 -1.07402,-1.627 -0.96393,-3.69311 -0.98496,-5.537118 -0.0214,-2.029513 0.65246,-4.236905 2.5042,-5.311458 0.89683,-0.538612 1.93704,-0.893127 2.99186,-0.87294 z"
       id="path4481" />
    <path
       style="opacity:1;fill:#373856;fill-opacity:1;fill-rule:evenodd;stroke:none;stroke-width:0.2;stroke-linejoin:round;stroke-opacity:1"
       d="m 216.91505,91.042111 c -4.40719,0.03141 -8.17034,3.963088 -8.44844,8.282173 -0.37732,2.917396 0.5089,6.026996 2.69219,8.063866 1.79072,1.88016 4.50254,2.89425 7.08768,2.51277 3.47446,-0.31734 6.48724,-2.98238 7.3759,-6.3324 0.9131,-3.26282 0.58547,-7.21855 -1.97469,-9.680074 -1.71694,-1.7544 -4.08287,-2.986141 -6.58538,-2.848134 l -0.13229,0.0026 z m 0.38782,2.494174 c 2.68058,0.01826 4.86326,2.325899 5.29786,4.876562 0.56184,2.875733 -0.20913,6.275093 -2.6275,8.113603 -1.56154,1.14822 -3.66829,0.92906 -5.37665,0.2757 -1.69706,-1.01433 -2.27235,-3.13245 -2.57974,-4.96268 -0.27101,-2.280316 -0.25045,-4.991078 1.49789,-6.74127 0.98898,-1.000575 2.37447,-1.602978 3.78814,-1.561915 z"
       id="path4483" />
    <path
       style="opacity:1;fill:#373856;fill-opacity:1;fill-rule:evenodd;stroke:none;stroke-width:0.2;stroke-linejoin:round;stroke-opacity:1"
       d="m 230.91108,91.029464 c -1.15911,0.166873 -1.48577,1.562708 -1.32704,2.551271 0.49866,4.337235 1.95024,8.521805 3.72948,12.489155 0.71134,1.33286 1.29292,2.91169 2.597,3.78013 1.55297,0.64497 3.04694,-0.71506 3.79357,-1.96295 2.25239,-3.89673 3.44564,-8.307199 4.39766,-12.676211 0.22011,-1.289446 0.69231,-3.059668 -0.61262,-3.945228 -0.66344,-0.632566 -1.36551,0.312235 -1.60895,0.889847 -1.03921,2.830221 -1.26021,5.888937 -2.1939,8.741512 -0.58986,1.77946 -1.08207,3.71065 -2.37845,5.12715 -0.69479,0.50448 -1.16377,-0.63592 -1.49352,-1.09384 -1.96545,-3.60995 -2.44644,-7.777505 -3.33758,-11.744588 -0.26789,-0.774991 -0.53671,-2.10738 -1.56565,-2.156248 z"
       id="path4485" />
    <path
       style="opacity:1;fill:#373856;fill-opacity:1;fill-rule:evenodd;stroke:none;stroke-width:0.2;stroke-linejoin:round;stroke-opacity:1"
       d="m 254.37079,90.776575 c -1.30882,0.05612 -2.65147,-0.05699 -3.93727,0.211746 -1.26772,0.502391 -1.56416,2.008214 -1.58221,3.222731 -0.10355,4.096967 -0.0714,8.199118 0.0477,12.295588 0.10607,0.99396 -0.0143,2.10714 0.52401,2.99288 0.52541,0.48623 1.34604,0.25681 1.99657,0.36852 2.57919,0.10041 5.17668,0.0787 7.74025,-0.23808 0.5615,-0.0435 1.31855,-0.38422 1.17041,-1.0701 -0.20182,-0.80272 -1.22809,-0.7865 -1.88722,-0.88705 -2.11095,-0.18766 -4.23037,-0.25384 -6.34634,-0.363 0,-2.70738 0,-5.41473 0,-8.122104 2.31219,-0.05448 4.64843,0.125862 6.94311,-0.2227 0.57457,-0.05149 1.17536,-0.544618 0.96634,-1.175332 -0.31991,-1.029785 -1.588,-1.094105 -2.48658,-1.194726 -1.72598,-0.167799 -3.48205,-0.0558 -5.18552,-0.308399 -0.4333,-0.315092 -0.12435,-0.984779 -0.12914,-1.42068 0.0276,-0.490061 0.23913,-1.05492 0.82322,-1.057857 2.30299,-0.415925 4.75168,-0.126576 6.98294,-0.969618 0.52427,-0.127318 0.98724,-0.908818 0.41365,-1.270159 -1.79332,-0.926492 -3.90287,-0.747157 -5.85822,-0.792216 -0.0652,1.86e-4 -0.13046,0 -0.19568,0 z"
       id="path4487" />
  </g>
</svg>
