<svg xmlns="http://www.w3.org/2000/svg" viewBox="0 0 500 500"><g id="freepik--background-simple--inject-2"><path d="M460.49,313.69c-14.22,38.09-43.27,79.31-84.16,91.52-61.78,18.44-69.16,68.24-179.81,63.62a223.56,223.56,0,0,1-47.85-7,184.85,184.85,0,0,1-22.5-7.49C61.53,428.15,27.81,370.52,25,310.23c-3.69-79.3,51.64-117.1,87.6-139.23S191.91,63.11,300.72,66.79A216.38,216.38,0,0,1,349.91,74c36.61,9.91,73.83,31.82,95.46,63.87,1.62,2.4,3.17,4.87,4.65,7.38C479,194.33,479.88,261.77,460.49,313.69Z" style="fill:#90CAF9"></path><path d="M460.49,313.69c-14.22,38.09-43.27,79.31-84.16,91.52-61.78,18.44-69.16,68.24-179.81,63.62a223.56,223.56,0,0,1-47.85-7,184.85,184.85,0,0,1-22.5-7.49C61.53,428.15,27.81,370.52,25,310.23c-3.69-79.3,51.64-117.1,87.6-139.23S191.91,63.11,300.72,66.79A216.38,216.38,0,0,1,349.91,74c36.61,9.91,73.83,31.82,95.46,63.87,1.62,2.4,3.17,4.87,4.65,7.38C479,194.33,479.88,261.77,460.49,313.69Z" style="fill:#fff;opacity:0.8"></path></g><g id="freepik--character-3--inject-2"><path d="M417.51,297.49,415,300l-3.12,1.51-2.12,7.06,2.22.7,1.49-1.57,1.37,1.48L413,314.45s-2.48.72-2.5,1.33,1.56,1.9,1.56,1.9l2.9-1.31,8-.91,2.3-1.54-2.5-13.52Z" style="fill:#ccc;stroke:#263238;stroke-linecap:round;stroke-linejoin:round"></path><line x1="414.92" y1="316.37" x2="417.81" y2="311.7" style="fill:none;stroke:#263238;stroke-linecap:round;stroke-linejoin:round"></line><line x1="418.75" y1="315.95" x2="420.7" y2="311.37" style="fill:none;stroke:#263238;stroke-linecap:round;stroke-linejoin:round"></line><line x1="422.92" y1="315.46" x2="423.58" y2="311.49" style="fill:none;stroke:#263238;stroke-linecap:round;stroke-linejoin:round"></line><polygon points="411.47 236.45 430.93 267.3 423.81 300.68 416.15 299 415.74 267.8 403.49 255.61 411.47 236.45" style="fill:#fff;stroke:#263238;stroke-linecap:round;stroke-linejoin:round"></polygon><polygon points="396.43 226.2 411.47 236.45 394.79 279.66 366.92 271.49 364.14 246.8 367.41 225.24 381.08 223.65 396.43 226.2" style="fill:#fff;stroke:#263238;stroke-linecap:round;stroke-linejoin:round"></polygon><path d="M382.83,235l2.81,3.05a3.9,3.9,0,0,0,6.21-.65l6.49-10.88-4.5-4.6-9.95.43-4.19,2.21-1.94,5.52a3.89,3.89,0,0,0,5.07,4.92Z" style="fill:#fff;stroke:#263238;stroke-linecap:round;stroke-linejoin:round"></path><path d="M386.69,193.5s-4.72,3.12-5.31,4.39a14.21,14.21,0,0,0-.83,3.49l-5.33,2.12,2.3,3.39s-2,7.67-.63,8.86,6.3,4.12,6.3,4.12l-.13,9.63a2.78,2.78,0,0,0,4.35,2.33l8.47-5.78,2.55-5.91s8.5-7,8.4-11.31-2.18-11-8.43-14.5S387,192.42,387,192.42Z" style="fill:#ccc;stroke:#263238;stroke-linecap:round;stroke-linejoin:round"></path><path d="M389.53,193.13s3.5.7.2,9-6.53,14.57-1.63,19.84,8.28,8.49,5.94,12.17-9.16,2.39-7.18,10.72,8.59,10,11.45,5.58,1.38-12,1.7-13.55a5,5,0,0,1,1.14-2.41l1.91.38,11.4,6s-.14-1.13.61-8.25-5.66-8.07-4.4-14.43,8.2-4.65,5.71-13.74-17.13-15.31-17.13-15.31-5.92-10.1-12.59-4.81S384.43,195,384.43,195Z" style="fill:#263238;stroke:#263238;stroke-linecap:round;stroke-linejoin:round"></path><path d="M383.19,202.15c-.19.82,0,1.57.45,1.67s1-.46,1.16-1.28,0-1.56-.45-1.67S383.39,201.34,383.19,202.15Z" style="fill:#263238"></path><path d="M387.62,200.24a3.51,3.51,0,0,0-4-1.65" style="fill:none;stroke:#263238;stroke-linecap:round;stroke-linejoin:round"></path><path d="M329.33,225.12l-.38-4.41a16.55,16.55,0,0,0,0-4.39,32.24,32.24,0,0,0-1.47-4.45c-.5-1.26-1.16-2-1.89-.76s-.42,3.55-.42,3.55a10.08,10.08,0,0,0-1.24-3.34c-.78-1-3.36-1.79-5.93-2.58s-1.4.64-1,1.34,2.81,1.89,2.81,1.89-3.79-1.38-4.87-1.7-2.79,1-1.58,1.72a21.7,21.7,0,0,0,3.78,1.52,22.84,22.84,0,0,0-4,1.35c-1.13.65-.63,1.9.06,1.93a26.35,26.35,0,0,0,2.75-.3s-1.84,1.43-1.46,2.27,3.85-.26,3.85-.26a7.66,7.66,0,0,0,2.05,3.65,19.42,19.42,0,0,0,3.61,2.48l3.15,3.7Z" style="fill:#ccc;stroke:#263238;stroke-linecap:round;stroke-linejoin:round"></path><line x1="319.83" y1="211.97" x2="318.67" y2="217.01" style="fill:#ccc;stroke:#263238;stroke-linecap:round;stroke-linejoin:round"></line><path d="M325.21,214.66l.21,1.65s-2.25,1.42-1.93,3.63" style="fill:#ccc;stroke:#263238;stroke-linecap:round;stroke-linejoin:round"></path><polygon points="367.41 225.24 345.59 241.83 329.37 224.16 324.97 228.02 341.67 257.12 364.41 244.61 367.41 225.24" style="fill:#fff;stroke:#263238;stroke-linecap:round;stroke-linejoin:round"></polygon><path d="M400,334.33l.13-25.63c.39-16.7-4.53-28-5.36-28.78a.84.84,0,0,0-.46-.26l-27.87-8.17s-3.57,10.15-6.42,12c-31.5,20.5-38.78,30.48-38.5,31,8.24,15.17,34.86,40.67,34,38.9l6.74-2.28L341.5,317l30.43-12,6,29.13,30.6,57,8.34-3Z" style="fill:#263238;stroke:#263238;stroke-linecap:round;stroke-linejoin:round"></path><path d="M355.46,353.4l-3.18,6.32s-3.18,1-4.37,1.59-1.79.71-2.41,1.66a5.25,5.25,0,0,0-.68,2.33l15.82.63,7.13-7.15c2.24-2.26-5.57-7.66-5.57-7.66Z" style="fill:#fff;stroke:#263238;stroke-linecap:round;stroke-linejoin:round"></path><path d="M416.88,388.12s-.16,3.91-.3,7.42-4.46,8.82-7.08,10.68-5,2.15-4.19-2.71a106.92,106.92,0,0,1,3.23-12.4S416.1,387.89,416.88,388.12Z" style="fill:#fff;stroke:#263238;stroke-linecap:round;stroke-linejoin:round"></path></g><g id="freepik--character-2--inject-2"><line x1="234.19" y1="45.23" x2="216.39" y2="57.46" style="fill:none;stroke:#263238;stroke-linecap:round;stroke-linejoin:round"></line><line x1="236.67" y1="43.52" x2="235.48" y2="44.34" style="fill:none;stroke:#263238;stroke-linecap:round;stroke-linejoin:round"></line><line x1="209.97" y1="31.83" x2="205.96" y2="31.28" style="fill:none;stroke:#263238;stroke-linecap:round;stroke-linejoin:round"></line><line x1="235.87" y1="35.39" x2="212.52" y2="32.18" style="fill:none;stroke:#263238;stroke-linecap:round;stroke-linejoin:round"></line><line x1="240.12" y1="19.66" x2="232.4" y2="11.8" style="fill:none;stroke:#263238;stroke-linecap:round;stroke-linejoin:round"></line><line x1="243.31" y1="22.91" x2="241.52" y2="21.08" style="fill:none;stroke:#263238;stroke-linecap:round;stroke-linejoin:round"></line><line x1="263.98" y1="23.03" x2="272.93" y2="13.89" style="fill:none;stroke:#263238;stroke-linecap:round;stroke-linejoin:round"></line><line x1="262.27" y1="24.78" x2="263.13" y2="23.91" style="fill:none;stroke:#263238;stroke-linecap:round;stroke-linejoin:round"></line><line x1="283.73" y1="35.87" x2="301.9" y2="33.85" style="fill:none;stroke:#263238;stroke-linecap:round;stroke-linejoin:round"></line><line x1="267.13" y1="37.72" x2="281.54" y2="36.11" style="fill:none;stroke:#263238;stroke-linecap:round;stroke-linejoin:round"></line><line x1="279.49" y1="53.67" x2="287.74" y2="62.19" style="fill:none;stroke:#263238;stroke-linecap:round;stroke-linejoin:round"></line><line x1="267.78" y1="41.58" x2="277.89" y2="52.02" style="fill:none;stroke:#263238;stroke-linecap:round;stroke-linejoin:round"></line><rect x="251.43" y="41.09" width="4.61" height="13.28" style="fill:#90CAF9;stroke:#263238;stroke-linecap:round;stroke-linejoin:round"></rect><polygon points="259.42 53.28 259.42 51.38 248.04 51.38 248.04 53.28 242.62 53.28 242.62 60.87 264.84 60.87 264.84 53.28 259.42 53.28" style="fill:#263238;stroke:#263238;stroke-linecap:round;stroke-linejoin:round"></polygon><polygon points="253.73 16.43 259.12 27.34 271.17 29.1 262.45 37.59 264.51 49.59 253.73 43.93 242.95 49.59 245.01 37.59 236.29 29.1 248.34 27.34 253.73 16.43" style="fill:#90CAF9;stroke:#263238;stroke-linecap:round;stroke-linejoin:round"></polygon><polyline points="238.64 30.23 253.73 34.16 267.01 30.84" style="fill:#90CAF9;stroke:#263238;stroke-linecap:round;stroke-linejoin:round"></polyline><line x1="254.03" y1="21.18" x2="254.03" y2="30.84" style="fill:#90CAF9;stroke:#263238;stroke-linecap:round;stroke-linejoin:round"></line><polyline points="244.68 47.74 253.43 36.27 253.43 41.1" style="fill:#90CAF9;stroke:#263238;stroke-linecap:round;stroke-linejoin:round"></polyline><line x1="264.51" y1="49.6" x2="255.54" y2="36.27" style="fill:#90CAF9;stroke:#263238;stroke-linecap:round;stroke-linejoin:round"></line><path d="M221.52,183.92s14.06,5.85,28.09,6.52,39.22-6.52,39.22-6.52l-16.72-21.55H233.35Z" style="fill:#263238;stroke:#263238;stroke-linecap:round;stroke-linejoin:round"></path><path d="M288.11,292.24c-.51-1.54-4.88-13.09-4.88-13.09s-2.56-19.26-2.56-28.25-3.09-14.37-3.09-14.37L274,172.21l-2.33-8.14h-5.13l-14.26.13L238,164.07h-1.79l-5.87,11.16L227,236.53s-3.08,5.39-3.08,14.37-2.57,28.25-2.57,28.25-4.36,11.55-4.88,13.09-4.36,5.14-4.36,6.42a2.77,2.77,0,0,0,1,2.06H227s.77-.26,1.29-2.83a34.23,34.23,0,0,0,.51-6.67c0-1.54,1.54-14.38,1.54-14.38l19.77-82.33h4.37l19.77,82.33s1.54,12.84,1.54,14.38a34.23,34.23,0,0,0,.51,6.67c.51,2.57,1.28,2.83,1.28,2.83h13.87a2.77,2.77,0,0,0,1-2.06C292.48,297.38,288.63,293.78,288.11,292.24Z" style="fill:#fff;stroke:#263238;stroke-linecap:round;stroke-linejoin:round"></path><path d="M283.23,279.15s-2.56-19.26-2.56-28.25-3.09-14.37-3.09-14.37L274,172.21l-2.33-8.14h-5.13l-14.26.13L238,164.07h-1.79l-5.87,11.16L227,236.53s-3.08,5.39-3.08,14.37-2.57,28.25-2.57,28.25l-.09.26H230c.17-1.53.3-2.57.3-2.57l19.77-82.33h4.37l19.77,82.33s.12,1,.3,2.57h8.78Z" style="fill:#263238;stroke:#263238;stroke-linecap:round;stroke-linejoin:round"></path><path d="M229.71,282.19l-5,11.85h-9.37c-1.31,1.67-3.21,3.72-3.21,4.62a2.77,2.77,0,0,0,1,2.06H227s.77-.26,1.29-2.83a34.23,34.23,0,0,0,.51-6.67C228.8,290.35,229.29,285.91,229.71,282.19Z" style="fill:#90CAF9;stroke:#263238;stroke-linecap:round;stroke-linejoin:round"></path><path d="M274.87,282.19l5,11.85h9.36c1.31,1.67,3.22,3.72,3.22,4.62a2.77,2.77,0,0,1-1,2.06H277.58s-.77-.26-1.28-2.83a34.23,34.23,0,0,1-.51-6.67C275.79,290.35,275.3,285.91,274.87,282.19Z" style="fill:#90CAF9;stroke:#263238;stroke-linecap:round;stroke-linejoin:round"></path><path d="M250.86,80.63s-4.56-2.39-8,2.4-1.09,9.12-1.09,10.43-5.21,5.65-3.69,7.61,3.91,3,3.69,3.91-6.3-.44-5.86,1.74.86,5.65,8.69,11.52,19.13,1.08,22.17-2.18,5.65-6.52,5.22-8.47-3.48-1.31-3.48-2.18,3.26-3.91,3.26-5.65-3.48-3.91-3.7-5,1.74-2.61,1.74-4.34-4.35-3.92-4.35-5.44,3.27-4.13-1.73-7.61S252,76.5,250.86,80.63Z" style="fill:#263238;stroke:#263238;stroke-linecap:round;stroke-linejoin:round"></path><path d="M249.49,107.66l-1.74,8.84s-4.06-1.74-5.22-2.18S238,164.07,238,164.07h32.31l-1.74-49.46-7.24,1.89-2.18-9Z" style="fill:#fff;stroke:#263238;stroke-linecap:round;stroke-linejoin:round"></path><path d="M261.8,131l1.28-14.94-1.71.45-2.18-9-9.7.15-1.74,8.84-1.43-.61,1.57,15.1Z" style="fill:#fff;stroke:#263238;stroke-linecap:round;stroke-linejoin:round"></path><path d="M248.4,109.45s5.81,5.57,7,5.57,4.84-5.08,4.84-5.08l-.48-1.7L248.4,108Z" style="fill:#263238;stroke:#263238;stroke-linecap:round;stroke-linejoin:round"></path><path d="M229.65,74l10-10.41-2.86-7.8s2.84-5.27,3.09-5.87,1.29-2.41,1.29-2.41a1.61,1.61,0,0,1,1.71,1.62,34.13,34.13,0,0,1,.1,5.8c-.23.89,2.28,5.8,1.28,8S233.05,79.1,233.05,79.1Z" style="fill:#fff;stroke:#263238;stroke-linecap:round;stroke-linejoin:round"></path><path d="M242.88,50.69s-3.17,4.58-3.14,5a8.24,8.24,0,0,0,.22,1.15" style="fill:none;stroke:#263238;stroke-linecap:round;stroke-linejoin:round"></path><polyline points="242.26 47.98 238.04 54.22 238.03 56.25" style="fill:none;stroke:#263238;stroke-linecap:round;stroke-linejoin:round"></polyline><path d="M245.43,115.05s-1,26.71-2.46,37-3.19,16.23-6.67,21.45-14.78,10.43-14.78,10.43,8.11-28,9.71-35.64,1.59-23.81,1.59-23.81a66.28,66.28,0,0,1-13-13.62c-5.79-8.26-10.49-16.79-10.24-18s23-23.14,23-23.14l4.67,6.3L224.59,95.32s11.86,13.79,12.72,14.51S241.52,111,245.43,115.05Z" style="fill:#90CAF9;stroke:#263238;stroke-linecap:round;stroke-linejoin:round"></path><path d="M244.74,114.37l0,.1s-4.78,8.84-4.78,17.1c0,4.75,1.44,20,2.66,23,.13-.83.26-1.67.39-2.56,1.44-10.28,2.46-37,2.46-37C245.2,114.81,245,114.58,244.74,114.37Z" style="fill:#90CAF9;stroke:#263238;stroke-linecap:round;stroke-linejoin:round"></path><path d="M279.52,73.75,268.8,64l2.31-8s-3.18-5.07-3.47-5.65-1.45-2.32-1.45-2.32a1.61,1.61,0,0,0-1.6,1.74,33.4,33.4,0,0,0,.29,5.8c.29.87-1.88,5.94-.72,8.11s12.31,15.36,12.31,15.36Z" style="fill:#fff;stroke:#263238;stroke-linecap:round;stroke-linejoin:round"></path><path d="M264.74,51.44s3.48,4.34,3.48,4.78a7.66,7.66,0,0,1-.15,1.16" style="fill:none;stroke:#263238;stroke-linecap:round;stroke-linejoin:round"></path><polyline points="265.17 48.68 269.81 54.63 269.95 56.65" style="fill:none;stroke:#263238;stroke-linecap:round;stroke-linejoin:round"></polyline><path d="M264.92,115.05s1,26.71,2.46,37,3.19,16.23,6.67,21.45,14.78,10.43,14.78,10.43-8.12-28-9.71-35.64-1.6-23.81-1.6-23.81a66,66,0,0,0,13-13.62c5.8-8.26,12.9-17.93,12.47-19.09s-26-21.35-26-21.35l-3.63,7,12.53,19s-12,12.75-12.9,13.47S268.83,111,264.92,115.05Z" style="fill:#90CAF9;stroke:#263238;stroke-linecap:round;stroke-linejoin:round"></path><path d="M238,115.19c-1.21,4.86-5.18,9.28-5.18,9.28s2.45-5.64,1.84-10.5" style="fill:none;stroke:#263238;stroke-linecap:round;stroke-linejoin:round"></path><path d="M270.81,114a71.42,71.42,0,0,0,6.71,10.5s-3.06-11.1-3.06-12.62" style="fill:none;stroke:#263238;stroke-linecap:round;stroke-linejoin:round"></path><path d="M265.6,114.37l0,.1s4.78,8.84,4.78,17.1c0,4.75-1.43,20-2.66,23-.13-.83-.25-1.67-.38-2.56-1.45-10.28-2.46-37-2.46-37C265.15,114.81,265.38,114.58,265.6,114.37Z" style="fill:#90CAF9;stroke:#263238;stroke-linecap:round;stroke-linejoin:round"></path><path d="M245.28,98.82s-2.89-4.2-3.33-.58,3,6.23,3,6.23Z" style="fill:#fff;stroke:#263238;stroke-linecap:round;stroke-linejoin:round"></path><path d="M264.85,98s2.46-2.46,3.18.43-3,5.51-3,5.51Z" style="fill:#fff;stroke:#263238;stroke-linecap:round;stroke-linejoin:round"></path><path d="M251.73,84.55s-.65,3.69-3.26,4.56A6.83,6.83,0,0,0,245,91.28s-.43,12.61.44,13.91S252,112,254.85,112s9.63-5.08,9.85-6.38-.14-13.48-.36-14.35-3-2.17-5.44-2.17-4.34-2.61-4.78-3.48S251.73,84.55,251.73,84.55Z" style="fill:#fff;stroke:#263238;stroke-linecap:round;stroke-linejoin:round"></path><path d="M253.61,94.91a4,4,0,0,0,2,.87,2,2,0,0,0,1.55-1" style="fill:none;stroke:#263238;stroke-linecap:round;stroke-linejoin:round"></path><path d="M249.3,90.76a2.09,2.09,0,0,1,3.26-1.05" style="fill:none;stroke:#263238;stroke-linecap:round;stroke-linejoin:round"></path><path d="M257.4,89.81s2.32-1.79,4.11,1.26" style="fill:none;stroke:#263238;stroke-linecap:round;stroke-linejoin:round"></path><path d="M251.56,99s5,3,8.26-1.08" style="fill:none;stroke:#263238;stroke-linecap:round;stroke-linejoin:round"></path><path d="M251.66,91.71c0,.6-.34,1.09-.76,1.09s-.76-.49-.76-1.09.34-1.08.76-1.08S251.66,91.11,251.66,91.71Z" style="fill:#263238"></path><path d="M259.7,91.81c0,.6-.34,1.09-.76,1.09s-.76-.49-.76-1.09.34-1.09.76-1.09S259.7,91.21,259.7,91.81Z" style="fill:#263238"></path></g><g id="freepik--character-1--inject-2"><polygon points="106.65 226.2 91.61 236.45 103.57 287.3 140 280.6 140.36 227.34 122 223.65 106.65 226.2" style="fill:#fff;stroke:#263238;stroke-linecap:round;stroke-linejoin:round"></polygon><polygon points="115.04 235.79 119.7 241.96 120.46 275.03 126.35 284.18 130.76 270.21 121.9 241.87 124.11 234.88 119.22 230.11 115.04 235.79" style="fill:#90CAF9;stroke:#263238;stroke-linecap:round;stroke-linejoin:round"></polygon><polygon points="120.25 235.03 113.9 241.91 104.73 226.55 109.24 221.95 119.19 222.38 127.64 226.74 128.09 238.03 120.25 235.03" style="fill:#fff;stroke:#263238;stroke-linecap:round;stroke-linejoin:round"></polygon><path d="M124.67,193.75s4,4,4.35,5.34a14,14,0,0,1,.15,3.58l4.81,3.12-2.92,2.88s2.8,7.89,1.18,8.78S123,220.3,123,220.3L120.25,235l-10.93-11.15L108,217.59s-7-8.55-6-12.73,4.28-10.38,11.09-12.58,7.21-1.37,7.21-1.37Z" style="fill:#ccc;stroke:#263238;stroke-linecap:round;stroke-linejoin:round"></path><path d="M111.3,211.39s4.1-1,4-2.92-2.9-3.47-.75-4.94,4.33-2.1,4.29-3.21-2-2.12-.69-3.28,6.49-3.29,6.49-3.29-2.17-6-10.18-6.22-15.34,9.72-14.81,16,7.48,14.6,9.16,15.09S111.3,211.39,111.3,211.39Z" style="fill:#263238;stroke:#263238;stroke-linecap:round;stroke-linejoin:round"></path><path d="M113,212.7s-2.63-3.76-4.71-.64,2.73,6.24,5.21,6.14,3-1.23,3-1.23" style="fill:#ccc;stroke:#263238;stroke-linecap:round;stroke-linejoin:round"></path><path d="M126.42,202.92c0,.84-.31,1.53-.77,1.55s-.85-.65-.88-1.48.31-1.53.76-1.55S126.39,202.08,126.42,202.92Z" style="fill:#263238"></path><path d="M122.45,200.18s2.37-2.85,4.9-1.57" style="fill:none;stroke:#263238;stroke-linecap:round;stroke-linejoin:round"></path><path d="M85.57,297.49,88.12,300l3.12,1.51,2.11,7.06-2.21.7-1.49-1.57-1.37,1.48,1.84,5.23s2.48.72,2.5,1.33-1.56,1.9-1.56,1.9l-2.91-1.31-8-.91-2.31-1.54,2.51-13.52Z" style="fill:#ccc;stroke:#263238;stroke-linecap:round;stroke-linejoin:round"></path><line x1="88.15" y1="316.37" x2="85.27" y2="311.7" style="fill:none;stroke:#263238;stroke-linecap:round;stroke-linejoin:round"></line><line x1="84.33" y1="315.95" x2="82.38" y2="311.37" style="fill:none;stroke:#263238;stroke-linecap:round;stroke-linejoin:round"></line><line x1="80.16" y1="315.46" x2="79.5" y2="311.49" style="fill:none;stroke:#263238;stroke-linecap:round;stroke-linejoin:round"></line><polygon points="91.61 236.45 72.15 267.3 79.27 300.68 86.93 299 87.34 267.8 97.06 255.55 91.61 236.45" style="fill:#fff;stroke:#263238;stroke-linecap:round;stroke-linejoin:round"></polygon><path d="M178.57,219.42l.37-4.4a16.61,16.61,0,0,1,0-4.4,32.69,32.69,0,0,1,1.47-4.45c.5-1.25,1.16-2,1.89-.76s.42,3.55.42,3.55a10.33,10.33,0,0,1,1.24-3.34c.78-1,3.36-1.78,5.94-2.57s1.4.63,1,1.33-2.81,1.9-2.81,1.9,3.79-1.39,4.88-1.71,2.78,1,1.58,1.73a22.91,22.91,0,0,1-3.79,1.52,23.13,23.13,0,0,1,4,1.35c1.12.64.62,1.9-.06,1.92a23.8,23.8,0,0,1-2.76-.3s1.84,1.44,1.46,2.28-3.85-.26-3.85-.26a7.6,7.6,0,0,1-2.05,3.65,20,20,0,0,1-3.61,2.48l-3.15,3.69Z" style="fill:#ccc;stroke:#263238;stroke-linecap:round;stroke-linejoin:round"></path><line x1="188.06" y1="206.28" x2="189.23" y2="211.31" style="fill:#ccc;stroke:#263238;stroke-linecap:round;stroke-linejoin:round"></line><path d="M182.68,209l-.21,1.66s2.25,1.42,1.93,3.63" style="fill:#ccc;stroke:#263238;stroke-linecap:round;stroke-linejoin:round"></path><polygon points="140.36 227.34 157.49 241.83 178.53 218.46 182.93 222.33 161.41 257.12 140.39 248.85 140.36 227.34" style="fill:#fff;stroke:#263238;stroke-linecap:round;stroke-linejoin:round"></polygon><path d="M103.57,287.3l2.61,47.4-20,53.42,8.34,3,30.59-57,4.47-25.41L157,313.31l-16.1,37.81,6.75,2.28s33.95-51.24,34.54-51.27-41-16.75-41-16.75L140,280.6Z" style="fill:#263238;stroke:#263238;stroke-linecap:round;stroke-linejoin:round"></path><path d="M147.62,353.4l3.18,6.32s3.17,1,4.37,1.59,1.79.71,2.41,1.66a5.25,5.25,0,0,1,.68,2.33l-15.82.63-7.13-7.15c-2.24-2.26,5.56-7.66,5.56-7.66Z" style="fill:#fff;stroke:#263238;stroke-linecap:round;stroke-linejoin:round"></path><path d="M86.2,388.12s.16,3.91.3,7.42,4.46,8.82,7.08,10.68,5,2.15,4.19-2.71a106.92,106.92,0,0,0-3.23-12.4S87,387.89,86.2,388.12Z" style="fill:#fff;stroke:#263238;stroke-linecap:round;stroke-linejoin:round"></path></g><g id="freepik--Stairs--inject-2"><rect x="193.27" y="298.92" width="115.63" height="66.07" style="fill:#dbdbdb;stroke:#263238;stroke-linecap:round;stroke-linejoin:round"></rect><rect x="125.45" y="363.26" width="251.25" height="66.07" style="fill:#adadad;stroke:#263238;stroke-linecap:round;stroke-linejoin:round"></rect><rect x="51.19" y="408.32" width="399.78" height="66.07" style="fill:#919191;stroke:#263238;stroke-linecap:round;stroke-linejoin:round"></rect></g></svg>