<svg xmlns="http://www.w3.org/2000/svg" viewBox="0 0 500 500"><g id="freepik--background-simple--inject-12"><path d="M325.83,44.06S246.49,12.89,170.61,56.88,58.28,191.38,26.83,263.82,16.63,411.43,76.41,447.1s98.47-13.38,181-13.52,105.06,12.73,172.29-33.76,76.55-160.45,20.22-246.54S325.83,44.06,325.83,44.06Z" style="fill:#407BFF"></path><path d="M325.83,44.06S246.49,12.89,170.61,56.88,58.28,191.38,26.83,263.82,16.63,411.43,76.41,447.1s98.47-13.38,181-13.52,105.06,12.73,172.29-33.76,76.55-160.45,20.22-246.54S325.83,44.06,325.83,44.06Z" style="fill:#fff;opacity:0.7000000000000001"></path></g><g id="freepik--Character--inject-12"><path d="M305.16,208s6.21,3.59,14.39,12.42,12.75,35.64,3.59,40.87-14.71-4.9-14.71,2.94,8.83,12.43-1,20.6-30.74,7.52-33.35-6.86,9.15-23.22,11.11-32.7-.65-28.12,1.31-35.31S294.37,202.4,305.16,208Z" style="fill:#263238;stroke:#263238;stroke-linecap:round;stroke-linejoin:round"></path><path d="M157.74,119.52s-2.48-2-3.81-2-1.91,1.68-3.82,3.17-4.77,2.23-3.06,3a5.53,5.53,0,0,0,5.54-.93c1.53-1.31,1.53-.56,2.67-.38l1.15.19Z" style="fill:none;stroke:#263238;stroke-linecap:round;stroke-linejoin:round"></path><path d="M154.69,123.8s-5.15-.93-5.54.56a3,3,0,0,0,1,3.36,3.81,3.81,0,0,0,2.67.37Z" style="fill:none;stroke:#263238;stroke-linecap:round;stroke-linejoin:round"></path><path d="M148.77,125.48s-2.86,1.12-2.1,3.17,4,2.42,4,2.42l1.15-2.42A6.34,6.34,0,0,1,148.77,125.48Z" style="fill:none;stroke:#263238;stroke-linecap:round;stroke-linejoin:round"></path><path d="M146.86,129.4a3.39,3.39,0,0,0-.38,2.42c.38,1.12,2.67,2.05,2.67,2.05l1.53-2.8S147.05,130.14,146.86,129.4Z" style="fill:none;stroke:#263238;stroke-linecap:round;stroke-linejoin:round"></path><path d="M146.48,131.82s-1.33.75-.76,1.86A3.22,3.22,0,0,0,148,135l1.14-1.12S146.67,132.57,146.48,131.82Z" style="fill:none;stroke:#263238;stroke-linecap:round;stroke-linejoin:round"></path><path d="M282.27,204s-12.75-9.15-18-12.09-17-4.91-17-4.91l-29.76-21.9s-17.65-13.08-26.48-18-23.87-15-23.87-15L158.68,120l-9.48,16.34,16,3.6S195,166.43,202.49,173.3s13.08,9.16,13.08,9.16,14.72,14.71,20.93,19.61,9.15,6.21,9.15,6.21-.65,14.06-2,19.3-3.27,9.48-6.21,10.46a15.45,15.45,0,0,1-3.92,1s-2,19.29,4.57,29.75,20.93,10.14,24.85,10.14,12.75-11.77,12.75-11.77,9.16-3.6,12.75-6.87,9.63-17.42,9.63-17.42a89.88,89.88,0,0,0,20.78,2.71c10.79,0,25.83-5.56,25.83-5.56s20.6,0,30.41-2.94,35.31-11.77,35.31-11.77,9.15,2.61,16.35,2.29,13.4-1,15.36-2a5.57,5.57,0,0,0,2.62-2.94,2.54,2.54,0,0,0,2-1A23.9,23.9,0,0,0,448,219.4s1.63,0,1.63-1.31-4.9-3.27-4.9-3.27,5.56-2,3.27-2.61-21.58-1-21.58-1-.65-1.64,2-2.29,6.87-3.6,4.91-3.92l-2-.33a22.52,22.52,0,0,1-5.88,2,11,11,0,0,0-5.56,2.29c-1.31,1-8.17,7.85-8.17,7.85a102.73,102.73,0,0,1-21.91,2.61c-13.4.33-18,0-26.48,1.64S346,224.63,346,224.63l-23.22,1.31s-9.15-.33-11.44-1-6.86-2-12.75-7.85a136.43,136.43,0,0,0-14.06-11.77Z" style="fill:#fff;stroke:#263238;stroke-linecap:round;stroke-linejoin:round"></path><line x1="444.77" y1="214.82" x2="435.94" y2="215.15" style="fill:none;stroke:#263238;stroke-linecap:round;stroke-linejoin:round"></line><line x1="448.04" y1="219.4" x2="435.62" y2="218.75" style="fill:none;stroke:#263238;stroke-linecap:round;stroke-linejoin:round"></line><line x1="444.77" y1="222.67" x2="436.92" y2="223" style="fill:none;stroke:#263238;stroke-linecap:round;stroke-linejoin:round"></line><line x1="435.94" y1="213.84" x2="436.92" y2="224.31" style="fill:none;stroke:#263238;stroke-linecap:round;stroke-linejoin:round"></line><path d="M426.79,213.52a14.48,14.48,0,0,1-.66,3.59c-.65,2.29-7.84,2.62-7.84,2.62" style="fill:none;stroke:#263238;stroke-linecap:round;stroke-linejoin:round"></path><line x1="344.72" y1="240" x2="363.03" y2="235.1" style="fill:none;stroke:#263238;stroke-linecap:round;stroke-linejoin:round"></line><line x1="298.11" y1="242.85" x2="300.91" y2="237.06" style="fill:none;stroke:#263238;stroke-linecap:round;stroke-linejoin:round"></line><line x1="245.65" y1="208.28" x2="251.86" y2="212.21" style="fill:none;stroke:#263238;stroke-linecap:round;stroke-linejoin:round"></line><line x1="251.21" y1="205.67" x2="252.52" y2="214.5" style="fill:none;stroke:#263238;stroke-linecap:round;stroke-linejoin:round"></line><path d="M287.83,225.94s2-4.9,4.58-10.46,6.21-5.23,7.52-4.58,6.21,2.29,7.52,1,7.84-11.77,7.84-11.77,3.27,0,4.26-1.63l-2.62-6.87s2-2,2-3.92v-5.23s1.31-7.2,1.31-8.83-6.54-3.6-13.08-.66-24.85,10.47-26.81,15-2.62,14.72-2.62,14.72-1,4.25-2.94,10.46" style="fill:#fff;stroke:#263238;stroke-linecap:round;stroke-linejoin:round"></path><path d="M292.73,191s-1-8.18-5.23-6.22-3.59,8.18-2.29,10.14,3.6,1.63-.65,4.25-8.17,4.25-11.12,0-8.17-13.08-2-23.54,19.95-19,31.72-18,11.44,5.55,11.44,5.55,8.17-5.23,13.73,3.6,3.27,13.73,1,13.73-3.27-2.61-3.27-2.61-1.63,3.27-3.27,3.92a12.49,12.49,0,0,1-3.92.66l-1-6.54s-9.81-1.64-11.12,2.28-2,8.83-5.88,10.79A20.48,20.48,0,0,1,292.73,191Z" style="fill:#263238;stroke:#263238;stroke-linecap:round;stroke-linejoin:round"></path><path d="M314.48,191.28c0,1.09-.51,2-1.15,2s-1.14-.87-1.14-2,.51-2,1.14-2S314.48,190.2,314.48,191.28Z" style="fill:#263238"></path><path d="M310.72,187.36s2.29-3.27,5.56,0" style="fill:none;stroke:#263238;stroke-linecap:round;stroke-linejoin:round"></path><path d="M306.47,200.44a4.52,4.52,0,0,0,4.25,2.94" style="fill:none;stroke:#263238;stroke-linecap:round;stroke-linejoin:round"></path><path d="M299.93,210.9l-8.18-7.52,1.31,10.46S295,208.61,299.93,210.9Z" style="fill:#263238;stroke:#263238;stroke-linecap:round;stroke-linejoin:round"></path><path d="M233.56,239l-2.95-.33a39.76,39.76,0,0,0-17-9.81c-10.13-2.61-25.5,1-25.5,1s-17-9.48-28.12-16.67-23.21-13.73-23.21-13.73,12.09-24.85,14.06-37.93S155.41,140,157.05,137s3.27-6.21,3.27-6.21,6.54,2.61,8.82.32,1.31-10.46,1.64-13.08,1-9.8,1-12.75V101s2-3.59-.65-2.94-4.25,2.94-5.56,4.9-7.19,15-11.45,21.91-17,27.47-25.17,41.85S115.2,199.46,112.25,206s-.32,12.75,1,13.73,17,17.33,30.41,25.5,20.93,14.06,25.18,15.7,16.35,10.46,17.65,15-5.23,28.77-.32,44.79,6.21,27.14,5.88,33.35-4.9,13.73-4.9,25.5,5.88,33,6.54,36.62,3.27,17,3.27,21.58-1.31,15-.66,16.35,8.83,2.29,11.45,1.63a27.88,27.88,0,0,1,7.19-1.31c2.61,0,9.15,1,13.08,1s7.52.33,7.84-1-3.27-2.94-4.57-3.27-9.49-3.27-13.41-7.84-8.17-8.83-9.15-11.45,1-34.65,2.29-45.44,2.94-22.89,3.59-25.83,3.6-9.16,5.23-21.26,4.25-45.12,4.58-47.73a76.66,76.66,0,0,1,2-8.17s19.29-3.6,23.87-3.6,11.12-.33,14.39-2,3.92-6.87.32-10.79-15-9.16-19-16a63.29,63.29,0,0,0-6.54-9.81Z" style="fill:#fff;stroke:#263238;stroke-linecap:round;stroke-linejoin:round"></path><path d="M231.71,238.81l-1.1-.12a39.76,39.76,0,0,0-17-9.81c-10.13-2.61-25.5,1-25.5,1s-17-9.48-28.12-16.67-23.21-13.73-23.21-13.73,12.09-24.85,14.06-37.93c.44-3,.92-5.66,1.41-8.14A44.29,44.29,0,0,0,140.57,147c-4,6.7-8.24,13.76-11.64,19.75-8.18,14.39-13.73,32.7-16.68,39.24s-.32,12.75,1,13.73,17,17.33,30.41,25.5,20.93,14.06,25.18,15.7,16.35,10.46,17.65,15-5.23,28.77-.32,44.79,6.21,27.14,5.88,33.35-4.9,13.73-4.9,25.5,5.88,33,6.54,36.62c.09.52.23,1.25.39,2.12,6.69,1.36,11.41.58,14.67-.85.49-10.77,1.49-24.63,2.27-31,1.3-10.79,2.94-22.89,3.59-25.83s3.6-9.16,5.23-21.26,4.25-45.12,4.58-47.73a76.66,76.66,0,0,1,2-8.17s2.69-.51,6.3-1.13C223.73,265.73,229.09,246.22,231.71,238.81Z" style="fill:#263238;stroke:#263238;stroke-linecap:round;stroke-linejoin:round"></path><path d="M293.18,252.7c4.93-12.22,2.82-14.92,2.82-19.24,0-6.54.33-18.31.33-18.31l-.38-.58-1-.85a56.8,56.8,0,0,1-2.58,13.86c-2.29,6.53-7.85,10.46-16.68,4.25s-2.61-16.35-2.61-16.35,3.46-11,3.34-15.55l-3.53-2.43c.08,4.15-.3,12.33-4.06,18-5.23,7.84-11.12,12.75-17.33,11.77a27.21,27.21,0,0,1-7.36-2.23c-.15,1-.31,1.85-.49,2.56-1.31,5.23-3.27,9.48-6.21,10.46a15.45,15.45,0,0,1-3.92,1s-2,19.29,4.57,29.75,20.93,10.14,24.85,10.14,12.75-11.77,12.75-11.77,9.16-3.6,12.75-6.87C290.54,258.4,292.17,255.15,293.18,252.7Z" style="fill:#407BFF;stroke:#263238;stroke-linecap:round;stroke-linejoin:round"></path><path d="M247.29,240.33s.32,9.15,9.48,11.11" style="fill:none;stroke:#263238;stroke-linecap:round;stroke-linejoin:round"></path></g></svg>