<?xml version="1.0" encoding="UTF-8" standalone="no"?>
<svg
   xmlns:dc="http://purl.org/dc/elements/1.1/"
   xmlns:cc="http://creativecommons.org/ns#"
   xmlns:rdf="http://www.w3.org/1999/02/22-rdf-syntax-ns#"
   xmlns:svg="http://www.w3.org/2000/svg"
   xmlns="http://www.w3.org/2000/svg"
   viewBox="0 0 621.74677 498.11929"
   version="1.1"
   id="svg400"
   width="621.74677"
   height="498.11929">
  <metadata
     id="metadata406">
    <rdf:RDF>
      <cc:Work
         rdf:about="">
        <dc:format>image/svg+xml</dc:format>
        <dc:type
           rdf:resource="http://purl.org/dc/dcmitype/StillImage" />
        <dc:title></dc:title>
      </cc:Work>
    </rdf:RDF>
  </metadata>
  <defs
     id="defs404" />
  <g
     id="freepik--background-simple--inject-16"
     transform="matrix(0.8247377,0,0,1,0.55831144,6.1196204e-8)">
    <path
       d="m 682.21,151.9 c -20,-30.17 -45,-56.58 -77.49,-74.11 C 525.93,35.26 432.6,52.22 368,111.49 c -24.39,22.35 -41.48,51.34 -65,74.55 -11.5,11.36 -24.62,21.56 -40,26.94 -26.48,9.25 -57.55,0.59 -85.08,2.87 -41.22,3.41 -87.6,18.84 -107.4,58 C 49.69,314.9 53,369.17 74,409.53 c 3.34,6.42 17,32.21 25.69,32.21 H 702.9 c 2.4,0 9.71,-17.77 10.62,-19.64 a 293,293 0 0 0 20.15,-54.65 C 748.58,309.89 732.83,250.02 707.84,197.69 A 378,378 0 0 0 682.21,151.9 Z"
       style="fill:#eae4ff"
       id="path2" />
    <path
       d="m 682.21,151.9 c -20,-30.17 -45,-56.58 -77.49,-74.11 C 525.93,35.26 432.6,52.22 368,111.49 c -24.39,22.35 -41.48,51.34 -65,74.55 -11.5,11.36 -24.62,21.56 -40,26.94 -26.48,9.25 -57.55,0.59 -85.08,2.87 -41.22,3.41 -87.6,18.84 -107.4,58 C 49.69,314.9 53,369.17 74,409.53 c 3.34,6.42 17,32.21 25.69,32.21 H 702.9 c 2.4,0 9.71,-17.77 10.62,-19.64 a 293,293 0 0 0 20.15,-54.65 C 748.58,309.89 732.83,250.02 707.84,197.69 A 378,378 0 0 0 682.21,151.9 Z"
       style="opacity:0.7;fill:#ffffff"
       id="path4" />
  </g>
  <g
     id="freepik--Bricks--inject-16"
     transform="translate(-129.04178)">
    <rect
       x="185.61"
       y="328.81"
       width="32.450001"
       height="11.16"
       style="opacity:0.2"
       id="rect7" />
    <rect
       x="429.70001"
       y="315.39001"
       width="32.450001"
       height="11.16"
       style="opacity:0.2"
       id="rect9" />
    <rect
       x="297.72"
       y="315.95001"
       width="32.450001"
       height="11.16"
       style="opacity:0.2"
       id="rect11" />
    <rect
       x="159.78"
       y="315.95001"
       width="32.450001"
       height="11.16"
       style="opacity:0.2"
       id="rect13" />
    <rect
       x="529.17999"
       y="315.39001"
       width="32.450001"
       height="11.16"
       style="opacity:0.2"
       id="rect15" />
    <rect
       x="455.23001"
       y="251.02"
       width="32.450001"
       height="11.16"
       style="opacity:0.2"
       id="rect17" />
    <rect
       x="334.70999"
       y="264.79999"
       width="32.450001"
       height="11.16"
       style="opacity:0.2"
       id="rect19" />
    <rect
       x="207.24001"
       y="267.42999"
       width="32.450001"
       height="11.16"
       style="opacity:0.2"
       id="rect21" />
    <rect
       x="243.55"
       y="267.42999"
       width="32.450001"
       height="11.16"
       style="opacity:0.2"
       id="rect23" />
    <rect
       x="375.66"
       y="264.79999"
       width="32.450001"
       height="11.16"
       style="opacity:0.2"
       id="rect25" />
    <rect
       x="148.69"
       y="279.82001"
       width="32.450001"
       height="11.16"
       style="opacity:0.2"
       id="rect27" />
    <rect
       x="508.92001"
       y="330.82001"
       width="32.450001"
       height="11.16"
       style="opacity:0.1"
       id="rect29" />
    <rect
       x="546"
       y="330.82001"
       width="32.450001"
       height="11.16"
       style="opacity:0.1"
       id="rect31" />
    <rect
       x="253.35001"
       y="333.45999"
       width="32.450001"
       height="11.16"
       style="opacity:0.2"
       id="rect33" />
    <rect
       x="233.08"
       y="348.89001"
       width="32.450001"
       height="11.16"
       style="opacity:0.1"
       id="rect35" />
    <rect
       x="270.17001"
       y="348.89001"
       width="32.450001"
       height="11.16"
       style="opacity:0.1"
       id="rect37" />
    <rect
       x="448.60999"
       y="333.45999"
       width="32.450001"
       height="11.16"
       style="opacity:0.2"
       id="rect45" />
    <rect
       x="428.34"
       y="348.89001"
       width="32.450001"
       height="11.16"
       style="opacity:0.1"
       id="rect47" />
    <rect
       x="465.42999"
       y="348.89001"
       width="32.450001"
       height="11.16"
       style="opacity:0.1"
       id="rect49" />
    <rect
       x="226.10001"
       y="284.95999"
       width="32.450001"
       height="11.16"
       style="opacity:0.2"
       id="rect51" />
    <rect
       x="205.83"
       y="300.39001"
       width="32.450001"
       height="11.16"
       style="opacity:0.1"
       id="rect53" />
    <rect
       x="242.91"
       y="300.39001"
       width="32.450001"
       height="11.16"
       style="opacity:0.1"
       id="rect55" />
    <rect
       x="230.42"
       y="252.66"
       width="32.450001"
       height="11.16"
       style="opacity:0.1"
       id="rect57" />
    <rect
       x="177.11"
       y="240.84"
       width="32.450001"
       height="11.16"
       style="opacity:0.1"
       id="rect59" />
    <rect
       x="390.63"
       y="231.46001"
       width="32.450001"
       height="11.16"
       style="opacity:0.1"
       id="rect61" />
    <rect
       x="496.95001"
       y="251.35001"
       width="32.450001"
       height="11.16"
       style="opacity:0.1"
       id="rect63" />
    <rect
       x="475.32001"
       y="270.38"
       width="32.450001"
       height="11.16"
       style="opacity:0.1"
       id="rect65" />
    <rect
       x="334.26001"
       y="148.36"
       width="32.450001"
       height="11.16"
       style="opacity:0.2"
       id="rect67" />
    <rect
       x="283.79001"
       y="171.23"
       width="32.450001"
       height="11.16"
       style="opacity:0.1"
       id="rect69" />
    <rect
       x="354.35001"
       y="167.73"
       width="32.450001"
       height="11.16"
       style="opacity:0.1"
       id="rect71" />
    <rect
       x="354.79999"
       y="251.35001"
       width="32.450001"
       height="11.16"
       style="opacity:0.1"
       id="rect73" />
    <rect
       x="337.03"
       y="213.60001"
       width="32.450001"
       height="11.16"
       style="opacity:0.2"
       id="rect75" />
    <rect
       x="299.95001"
       y="213.60001"
       width="32.450001"
       height="11.16"
       style="opacity:0.2"
       id="rect77" />
    <rect
       x="318.59"
       y="200.47"
       width="32.450001"
       height="11.16"
       style="opacity:0.1"
       id="rect79" />
    <rect
       x="269.44"
       y="151.02"
       width="32.450001"
       height="11.16"
       style="opacity:0.2"
       id="rect81" />
    <rect
       x="412.95999"
       y="146.84"
       width="32.450001"
       height="11.16"
       style="opacity:0.2"
       id="rect83" />
    <rect
       x="375.88"
       y="146.84"
       width="32.450001"
       height="11.16"
       style="opacity:0.2"
       id="rect85" />
    <rect
       x="394.51999"
       y="133.71001"
       width="32.450001"
       height="11.16"
       style="opacity:0.1"
       id="rect87" />
    <rect
       x="302.73999"
       y="121.2"
       width="32.450001"
       height="11.16"
       style="opacity:0.1"
       id="rect89" />
    <rect
       x="303.81"
       y="232.64"
       width="32.450001"
       height="11.16"
       style="opacity:0.1"
       id="rect91" />
    <rect
       x="540.41998"
       y="201.11"
       width="32.450001"
       height="11.16"
       style="opacity:0.2"
       id="rect93" />
    <rect
       x="503.32999"
       y="201.11"
       width="32.450001"
       height="11.16"
       style="opacity:0.2"
       id="rect95" />
    <rect
       x="521.97998"
       y="187.98"
       width="32.450001"
       height="11.16"
       style="opacity:0.1"
       id="rect97" />
    <rect
       x="507.20001"
       y="220.14"
       width="32.450001"
       height="11.16"
       style="opacity:0.1"
       id="rect99" />
    <rect
       x="587.22998"
       y="229.02"
       width="32.450001"
       height="11.16"
       style="opacity:0.2"
       id="rect101" />
    <rect
       x="628.95001"
       y="229.35001"
       width="32.450001"
       height="11.16"
       style="opacity:0.1"
       id="rect103" />
    <rect
       x="607.32001"
       y="248.38"
       width="32.450001"
       height="11.16"
       style="opacity:0.1"
       id="rect105" />
    <rect
       x="515.64001"
       y="145.74001"
       width="32.450001"
       height="11.16"
       style="opacity:0.2"
       id="rect107" />
    <rect
       x="478.54999"
       y="145.74001"
       width="32.450001"
       height="11.16"
       style="opacity:0.2"
       id="rect109" />
    <rect
       x="497.20001"
       y="132.61"
       width="32.450001"
       height="11.16"
       style="opacity:0.1"
       id="rect111" />
    <rect
       x="482.42001"
       y="164.78"
       width="32.450001"
       height="11.16"
       style="opacity:0.1"
       id="rect113" />
    <rect
       x="178.64"
       y="145.74001"
       width="32.450001"
       height="11.16"
       style="opacity:0.2"
       id="rect115" />
    <rect
       x="141.55"
       y="145.74001"
       width="32.450001"
       height="11.16"
       style="opacity:0.2"
       id="rect117" />
    <rect
       x="160.2"
       y="132.61"
       width="32.450001"
       height="11.16"
       style="opacity:0.1"
       id="rect119" />
    <rect
       x="145.42"
       y="164.78"
       width="32.450001"
       height="11.16"
       style="opacity:0.1"
       id="rect121" />
    <rect
       x="438.66"
       y="192.24001"
       width="32.450001"
       height="11.16"
       style="opacity:0.2"
       id="rect123" />
    <rect
       x="454.10999"
       y="209.64"
       width="32.450001"
       height="11.16"
       style="opacity:0.1"
       id="rect125" />
  </g>
  <g
     id="freepik--Floor--inject-16"
     transform="translate(-129.04178)">
    <line
       x1="578.15002"
       y1="441.73999"
       x2="725.23999"
       y2="441.73999"
       style="fill:none;stroke:#263238;stroke-miterlimit:10"
       id="line128" />
    <line
       x1="175.25542"
       y1="441.73999"
       x2="573.5"
       y2="441.73999"
       style="fill:none;stroke:#263238;stroke-width:0.84415;stroke-miterlimit:10"
       id="line130" />
  </g>
  <g
     id="freepik--Ball--inject-16"
     transform="translate(-29.041779)">
    <circle
       cx="182.67999"
       cy="386.73999"
       r="61"
       style="fill:#eae4ff;stroke:#263238;stroke-miterlimit:10"
       id="circle133" />
    <line
       x1="199.83"
       y1="354.85999"
       x2="136.94"
       y2="417.75"
       style="fill:none;stroke:#263238;stroke-miterlimit:10"
       id="line135" />
    <line
       x1="215.52"
       y1="339.17001"
       x2="203.46001"
       y2="351.23001"
       style="fill:none;stroke:#263238;stroke-miterlimit:10"
       id="line137" />
    <line
       x1="152.14"
       y1="427.97"
       x2="147.73"
       y2="432.39001"
       style="fill:none;stroke:#263238;stroke-miterlimit:10"
       id="line139" />
    <line
       x1="194.59"
       y1="385.53"
       x2="155.23"
       y2="424.89001"
       style="fill:none;stroke:#263238;stroke-miterlimit:10"
       id="line141" />
    <line
       x1="229.38"
       y1="350.73001"
       x2="197.85001"
       y2="382.26001"
       style="fill:none;stroke:#263238;stroke-miterlimit:10"
       id="line143" />
    <path
       d="m 201.26,338 c 0,3.51 -3.74,6.35 -8.34,6.35 -4.6,0 -8.35,-2.84 -8.35,-6.35 0,-3.51 3.74,-6.35 8.35,-6.35 4.61,0 8.34,2.82 8.34,6.35 z"
       style="fill:#ffffff"
       id="path145" />
  </g>
  <g
     id="freepik--Weights--inject-16"
     transform="translate(-129.04178)">
    <rect
       x="671"
       y="254.74001"
       width="6"
       height="190"
       style="fill:#ffffff;stroke:#263238;stroke-miterlimit:10"
       id="rect281" />
    <rect
       x="635"
       y="287.73999"
       width="7"
       height="151"
       style="fill:#ffffff;stroke:#263238;stroke-miterlimit:10"
       id="rect283" />
    <circle
       cx="639"
       cy="336.73999"
       r="29"
       style="fill:#7a7a7a;stroke:#263238;stroke-miterlimit:10"
       id="circle285" />
    <circle
       cx="639"
       cy="336.73999"
       r="15"
       style="fill:#7a7a7a;stroke:#263238;stroke-miterlimit:10"
       id="circle287" />
    <circle
       cx="639"
       cy="336.73999"
       r="4"
       style="fill:#263238;stroke:#263238;stroke-miterlimit:10"
       id="circle289" />
    <circle
       cx="639"
       cy="404.73999"
       r="29"
       style="fill:#7a7a7a;stroke:#263238;stroke-miterlimit:10"
       id="circle291" />
    <circle
       cx="639"
       cy="404.73999"
       r="15"
       style="fill:#7a7a7a;stroke:#263238;stroke-miterlimit:10"
       id="circle293" />
    <circle
       cx="639"
       cy="404.73999"
       r="4"
       style="fill:#263238;stroke:#263238;stroke-miterlimit:10"
       id="circle295" />
    <rect
       x="610"
       y="436.73999"
       width="67"
       height="8"
       style="fill:#263238;stroke:#263238;stroke-miterlimit:10"
       id="rect297" />
  </g>
  <g
     id="freepik--character-2--inject-16"
     transform="translate(-129.04178)">
    <path
       d="m 451.11,320.66 -2.48,6.34 c 0,0 -33.55,13.28 -48.19,22.29 -14.64,9.01 -16,17.11 -13.06,23.87 2.94,6.76 30.62,62.12 30.62,62.12 l 0.9,2.7 -2,5.4 c 0,0 -13.06,6.53 -16.66,8.11 -3.6,1.58 -6.53,2.7 -4.28,5.63 2.25,2.93 12.83,2.7 16.21,2 3.38,-0.7 10.13,-1.81 13.74,-1.58 3.61,0.23 10.58,1.35 9.68,-4.05 -0.9,-5.4 -2.48,-11.26 -2.93,-13.74 -0.45,-2.48 -7.88,-27.47 -9,-36.25 -1.12,-8.78 -1.93,-21 -5.08,-25.71 -3.15,-4.71 -5.28,-7.62 -5.28,-7.62 0,0 12.52,-1.83 23.42,-3.6 a 204.76,204.76 0 0 0 32.87,-7.88 c 0,0 17.79,-6.08 27.92,-6.76 10.13,-0.68 18.69,-4.28 21.62,-10.81 2.93,-6.53 1.35,-19.14 -5.4,-25.89 -6.75,-6.75 -7.66,-6.76 -7.66,-6.76 a 63.56,63.56 0 0 1 -26.57,8.11 c -14.86,0.9 -24.54,-2 -24.54,-2 z"
       style="fill:#eae4ff;stroke:#263238;stroke-miterlimit:10"
       id="path300" />
    <path
       d="m 425.89,457.57 c 3.6,0.23 10.58,1.35 9.68,-4.05 -0.9,-5.4 -2.48,-11.26 -2.93,-13.74 -0.14,-0.8 -1,-3.94 -2.17,-8.13 -6.82,1.64 -11.14,1.62 -13.64,1.27 l 1.18,2.36 0.9,2.7 -2,5.4 c 0,0 -13.06,6.53 -16.66,8.11 -3.6,1.58 -6.53,2.7 -4.28,5.63 2.25,2.93 12.83,2.7 16.21,2 3.38,-0.7 10.1,-1.78 13.71,-1.55 z"
       style="fill:#ffffff;stroke:#263238;stroke-miterlimit:10"
       id="path302" />
    <path
       d="m 432.85,440.81 -6.74,0.32 -2.7,-3.38 c -1.8,-2.25 -4.5,0.23 -4.5,0.23 l -2,5.4 c 0,0 -13.06,6.53 -16.66,8.11 -3.6,1.58 -6.53,2.7 -4.28,5.63 2.25,2.93 12.83,2.7 16.21,2 3.38,-0.7 10.13,-1.81 13.74,-1.58 3.61,0.23 10.58,1.35 9.68,-4.05 -0.82,-4.73 -2.14,-9.84 -2.75,-12.68 z"
       style="fill:#ffffff;stroke:#263238;stroke-miterlimit:10"
       id="path304" />
    <line
       x1="462.26999"
       y1="332.57001"
       x2="474.75"
       y2="342.06"
       style="fill:#ffffff;stroke:#263238;stroke-miterlimit:10"
       id="line306" />
    <path
       d="m 433,269.09 c 0,0 -11.09,-8.12 -17.33,-12.73 a 77.27,77.27 0 0 1 -10.57,-9.5 l 4.83,-13.86 -15.19,0.81 c 0,0 -4.34,10.58 -1.9,13 l 6.78,6.78 c 0,0 18.72,21.16 23.6,25.5 4.88,4.34 14.64,4.61 14.64,4.61 l -3.79,-14.38 z"
       style="fill:#ffffff;stroke:#263238;stroke-miterlimit:10"
       id="path308" />
    <path
       d="m 434.89,231.94 c 0,0 -8.33,1.8 -9.68,6.31 -1.35,4.51 3.6,20.49 5.63,25.22 a 40.28,40.28 0 0 1 2.48,7 c 0,0 -0.68,10.58 2.25,16.43 2.93,5.85 14.19,7.66 14.19,7.66 l 4.24,7.44 -2.92,18.69 c 0,0 17.56,6.08 33.1,2.7 A 37.51,37.51 0 0 0 507,308.5 l -12.38,-10.81 c 0,0 -0.45,-25.22 -1.13,-37.15 -0.68,-11.93 -1.35,-23 -6.3,-27.7 -4.95,-4.7 -19.82,-2.93 -21.17,-3.15 -1.35,-0.22 -4.73,-3.83 -6.31,-7.43 -1.58,-3.6 -4.72,-12.16 -4.72,-12.16 0,0 -5,1.35 -5.86,4.73 -0.86,3.38 -4.5,8.33 -7.43,10.81 -2.93,2.48 -6.81,6.3 -6.81,6.3 z"
       style="fill:#ffffff;stroke:#263238;stroke-miterlimit:10"
       id="path310" />
    <path
       d="m 452.75,218.2 c 0,0 0.81,3.24 -2.44,9.19 a 52,52 0 0 1 -4.86,7.84 l -4.6,-7 c 0,0 10.55,-8.68 11.9,-10.03 z"
       style="fill:#263238;stroke:#263238;stroke-linecap:round;stroke-miterlimit:10"
       id="path312" />
    <path
       d="m 493.77,267.79 c -2.55,1.11 -9.44,3.32 -15.19,-2.07 -7.21,-6.76 -8.11,-25.45 -8.11,-29.73 0,-3.14 0.12,-5.43 0.19,-6.43 -1.14,0 -2.14,0.08 -2.93,0.11 -0.24,4.69 -1.41,27.08 -2.21,33.12 -0.9,6.76 -9.23,10.13 -15.76,8.33 -6.53,-1.8 -10.36,-6.3 -10.36,-13.73 0,-7.43 2.7,-28.15 2.7,-28.15 l -2.48,0.45 c 0,0 -3.6,25.67 -5.18,31.07 a 50.69,50.69 0 0 0 -1.49,8.33 c 0.28,0.91 0.37,1.36 0.37,1.36 0,0 -0.68,10.58 2.25,16.43 2.93,5.85 14.19,7.66 14.19,7.66 l 0.84,1.47 c 1,1.1 4.74,3.29 17.17,1.91 13.66,-1.52 23.14,-6.7 26.6,-9.65 -0.14,-6 -0.37,-13.84 -0.6,-20.48 z"
       style="fill:#263238;stroke:#263238;stroke-miterlimit:10"
       id="path314" />
    <path
       d="m 465.12,297.44 c 0,0 2.62,1.74 11.36,3.05"
       style="fill:#ffffff;stroke:#263238;stroke-miterlimit:10"
       id="path316" />
    <path
       d="m 462.5,291.76 c 0,0 9.17,3.93 19.22,-2.63"
       style="fill:none;stroke:#ffffff;stroke-miterlimit:10"
       id="path318" />
    <path
       d="m 451.56,180.37 c 0,0 4.95,-7 12.38,-3.82 7.43,3.18 16.67,25 15.54,34.45 -1.13,9.45 -12.16,11 -19.14,8.56 -6.98,-2.44 -5.4,-13.52 -6.53,-20.27 -1.13,-6.75 -2.25,-18.92 -2.25,-18.92 z"
       style="fill:#263238;stroke:#263238;stroke-miterlimit:10"
       id="path320" />
    <path
       d="m 475.61,232.33 c 0,0 9.95,-4.44 16.93,2.54 a 48.08,48.08 0 0 1 9.91,14.18 l 18.24,23.62 c 0,0 3.83,-15.6 2.92,-20.55 -0.91,-4.95 -5.85,-9.69 -6.75,-11.94 -0.9,-2.25 1.58,-11.26 1.58,-11.26 0,0 14.41,0.23 15.08,0.23 0.67,0 2.71,5.85 2.25,9.9 -0.46,4.05 -4.27,7 -4.27,7 0,0 2.47,20.49 2,34.22 -0.47,13.73 -7.26,14.06 -13.93,10.08 C 507.2,283 501.32,274.27 496.37,270 a 55.57,55.57 0 0 1 -7.21,-7.21"
       style="fill:#ffffff;stroke:#263238;stroke-miterlimit:10"
       id="path322" />
    <line
       x1="491.19"
       y1="261.44"
       x2="486.91"
       y2="265.72"
       style="fill:none;stroke:#263238;stroke-miterlimit:10"
       id="line324" />
    <line
       x1="456.06"
       y1="242.07001"
       x2="466.64001"
       y2="236.22"
       style="fill:none;stroke:#263238;stroke-miterlimit:10"
       id="line326" />
    <path
       d="m 441.65,230.14 c 0,0 4.25,3.94 4.05,11.48"
       style="fill:none;stroke:#263238;stroke-miterlimit:10"
       id="path328" />
    <path
       d="m 508.36,324.2 c -4.09,-0.8 -9.68,-1.14 -14.47,1.19 -8.78,4.28 -22.52,21.39 -25,26.8 -2.48,5.41 0.67,13.73 2,16.43 1.33,2.7 21.85,45 26.12,52.47 3,5.29 4.95,12.51 5.8,16.24 a 4.26,4.26 0 0 0 -1.29,1.1 l -0.45,9.23 c 0,0 -2.71,4.73 -6.76,6.76 -4.05,2.03 -6.53,6.3 -2.7,7.65 3.83,1.35 16.89,1.13 20,0.23 3.11,-0.9 7,-0.9 7,-3.6 0,-2.7 0,-12.39 -0.9,-15.77 -0.9,-3.38 -2,-3.37 -2,-3.37 h -1 c -0.41,-4 -2.11,-20.33 -3.28,-31.53 -1.36,-12.83 -6.08,-25.9 -10.36,-33.33 a 89.14,89.14 0 0 0 -9,-12.83 c 0,0 -2,-1.58 2.25,-3.15 4.25,-1.57 21.39,-7.43 24.77,-16 3,-7.49 1.09,-12.22 0.57,-13.28"
       style="fill:#eae4ff;stroke:#263238;stroke-miterlimit:10"
       id="path330" />
    <path
       d="m 511.68,462.3 c 3.15,-0.9 7,-0.9 7,-3.6 0,-2.7 0,-12.39 -0.9,-15.77 -0.9,-3.38 -2,-3.37 -2,-3.37 h -1 c -0.13,-1.29 -0.4,-3.87 -0.74,-7.14 a 37.86,37.86 0 0 1 -12.35,0.29 c 0.51,1.78 0.91,3.39 1.19,4.62 a 4.26,4.26 0 0 0 -1.29,1.1 l -0.45,9.23 c 0,0 -2.71,4.73 -6.76,6.76 -4.05,2.03 -6.53,6.3 -2.7,7.65 3.83,1.35 16.85,1.13 20,0.23 z"
       style="fill:#ffffff;stroke:#263238;stroke-miterlimit:10"
       id="path332" />
    <path
       d="m 511.68,462.3 c 3.15,-0.9 7,-0.9 7,-3.6 0,-2.7 0,-12.39 -0.9,-15.77 -0.9,-3.38 -2,-3.37 -2,-3.37 h -2.92 c 0,0 -3.38,-3.61 -4.73,-3.61 a 27.61,27.61 0 0 0 -5.24,1.38 4.26,4.26 0 0 0 -1.29,1.1 l -0.45,9.23 c 0,0 -2.71,4.73 -6.76,6.76 -4.05,2.03 -6.53,6.3 -2.7,7.65 3.83,1.35 16.84,1.13 19.99,0.23 z"
       style="fill:#ffffff;stroke:#263238;stroke-miterlimit:10"
       id="path334" />
    <ellipse
       cx="352.89001"
       cy="234.28999"
       rx="12.28"
       ry="17.5"
       style="fill:#263238;stroke:#263238;stroke-linecap:round;stroke-miterlimit:10"
       id="ellipse336" />
    <ellipse
       cx="354.97"
       cy="234.28999"
       rx="12.28"
       ry="17.5"
       style="fill:#7a7a7a;stroke:#263238;stroke-miterlimit:10"
       id="ellipse338" />
    <path
       d="m 357.43,234.29 c 0,1.93 -1.1,3.5 -2.46,3.5 -1.36,0 -2.45,-1.57 -2.45,-3.5 0,-1.93 1.1,-3.5 2.45,-3.5 1.35,0 2.46,1.56 2.46,3.5 z"
       style="fill:#7a7a7a;stroke:#263238;stroke-miterlimit:10"
       id="path340" />
    <ellipse
       cx="362.10001"
       cy="234.28999"
       rx="17.67"
       ry="25.17"
       style="fill:#263238;stroke:#263238;stroke-linecap:round;stroke-miterlimit:10"
       id="ellipse342" />
    <ellipse
       cx="365.10001"
       cy="234.28999"
       rx="17.67"
       ry="25.17"
       style="fill:#7a7a7a;stroke:#263238;stroke-miterlimit:10"
       id="ellipse344" />
    <path
       d="m 574.76,236 h -81.13 c -2.25,-3 -6.08,-4 -5,-4 h 86.1 a 2,2 0 0 1 0,4 z"
       style="fill:#263238"
       id="path346" />
    <path
       d="m 433.2,232.19 a 7.89,7.89 0 0 1 2,-0.05 1.91,1.91 0 0 0 -0.83,-0.19 h -70.61 a 2,2 0 0 0 0,4 h 62.81 a 11.7,11.7 0 0 1 6.63,-3.76 z"
       style="fill:#263238"
       id="path348" />
    <ellipse
       cx="582.09998"
       cy="234.28999"
       rx="17.67"
       ry="25.17"
       style="fill:#263238;stroke:#263238;stroke-miterlimit:10"
       id="ellipse350" />
    <ellipse
       cx="585.09998"
       cy="234.28999"
       rx="17.67"
       ry="25.17"
       style="fill:#7a7a7a;stroke:#263238;stroke-miterlimit:10"
       id="ellipse352" />
    <ellipse
       cx="589.89001"
       cy="234.28999"
       rx="12.28"
       ry="17.5"
       style="fill:#263238;stroke:#263238;stroke-miterlimit:10"
       id="ellipse354" />
    <ellipse
       cx="591.96997"
       cy="234.28999"
       rx="12.28"
       ry="17.5"
       style="fill:#7a7a7a;stroke:#263238;stroke-miterlimit:10"
       id="ellipse356" />
    <path
       d="m 594.43,234.29 c 0,1.93 -1.1,3.5 -2.46,3.5 -1.36,0 -2.45,-1.57 -2.45,-3.5 0,-1.93 1.1,-3.5 2.45,-3.5 1.35,0 2.46,1.56 2.46,3.5 z"
       style="fill:#263238;stroke:#263238;stroke-linecap:round;stroke-miterlimit:10"
       id="path358" />
    <path
       d="m 402.83,227.69 c 0,0 -10,2.22 -10.23,3 a 4.69,4.69 0 0 0 1.11,3.94 c 1.11,1 12.44,-0.37 13.43,-0.74 0.99,-0.37 0.49,-3.2 0.37,-4.81 -0.12,-1.61 -4.68,-1.39 -4.68,-1.39 z"
       style="fill:#ffffff;stroke:#263238;stroke-miterlimit:10"
       id="path360" />
    <path
       d="m 405.05,246.86 c 0,0 6.52,-11.78 6.52,-13.13 0,-1.35 -7,-5.18 -7.51,-6.53 -0.51,-1.35 -2.34,0 -1.6,2.46 a 12.05,12.05 0 0 0 1.84,3.82 l 1.11,1.23 c 0,0 -6.53,4.44 -8.25,7.52 -1.72,3.08 4.56,4.68 4.56,4.68"
       style="fill:#ffffff;stroke:#263238;stroke-miterlimit:10"
       id="path362" />
    <path
       d="m 521.59,226.44 c 0,0 11.67,0 12.48,1.36 l 0.8,1.35 c 0,0 0,4 -1,4.28 -1,0.28 -10.07,0.67 -12.68,0.22 -2.61,-0.45 -1,-5.4 -1,-6.75 0,-1.35 1.4,-0.46 1.4,-0.46 z"
       style="fill:#ffffff;stroke:#263238;stroke-miterlimit:10"
       id="path364" />
    <path
       d="m 524.87,238.91 a 52.39,52.39 0 0 0 -3.51,-5.26 c -0.9,-0.9 -3.6,-2.93 -3.6,-2.93 0,0 5.4,-1.35 5.4,-2.92 0,-1.57 -2.7,-1.36 -3.82,-0.45 -1.12,0.91 -5.18,0.67 -5.18,2.47 0,1.8 -0.9,6.31 0.45,8.11 1.35,1.8 6.75,6.3 6.75,6.3"
       style="fill:#ffffff;stroke:#263238;stroke-miterlimit:10"
       id="path366" />
    <path
       d="M 421.21,182.18 A 21.12,21.12 0 0 0 418.68,195 c 1.35,8.78 2.25,16 2.25,16 a 20.41,20.41 0 0 0 1.58,9.23 c 2,4.5 8.78,11.94 11.48,11.94 2.7,0 7,-1.81 11.26,-4.28 4.26,-2.47 8.11,-9.24 8.11,-10.81 v -4.28 c 0,0 4.05,-2.93 4.5,-5.85 a 41.62,41.62 0 0 0 0.23,-7 c 0,0 1.12,-9.68 -4.06,-18 -5.18,-8.32 -16.61,-8.57 -24.77,-6.53 -3.51,0.88 -6.26,3.5 -8.05,6.76 z"
       style="fill:#ffffff;stroke:#263238;stroke-linecap:round;stroke-miterlimit:10"
       id="path368" />
    <path
       d="m 429.29,173.35 a 10.77,10.77 0 0 0 -8.08,8.83 c -0.26,1.26 -1.15,2.34 -1.56,3.57 h 0.16 c 0,0 0.22,-1.13 2,-0.45 1.78,0.68 2.48,2.47 8.34,1.57 5.86,-0.9 11.48,-4.72 13.51,-3.15 2.03,1.57 1.35,7.66 1.12,11.49 -0.23,3.83 5.18,3.15 5.18,3.15 0,0 0.9,5.18 2.7,4.05 1.8,-1.13 2.26,-5.85 5.41,-2.48 0,0 2.6,-12.6 -2.58,-20.93 -5.18,-8.33 -18.04,-7.69 -26.2,-5.65 z"
       style="fill:#263238;stroke:#263238;stroke-linecap:round;stroke-miterlimit:10"
       id="path370" />
    <path
       d="m 439.85,207.5 c 0,1.05 -0.56,1.9 -1.24,1.9 -0.68,0 -1.24,-0.85 -1.24,-1.9 0,-1.05 0.56,-1.91 1.24,-1.91 0.68,0 1.24,0.86 1.24,1.91 z"
       style="fill:#263238"
       id="path372" />
    <path
       d="m 426.79,207.5 c 0,1.05 -0.56,1.9 -1.24,1.9 -0.68,0 -1.24,-0.85 -1.24,-1.9 0,-1.05 0.56,-1.91 1.24,-1.91 0.68,0 1.24,0.86 1.24,1.91 z"
       style="fill:#263238"
       id="path374" />
    <path
       d="m 429.49,207.17 a 31.75,31.75 0 0 1 -0.45,5.18 c -0.45,2.25 -2.7,3.38 -0.9,3.83 a 18.3,18.3 0 0 0 3.83,0.45"
       style="fill:none;stroke:#263238;stroke-linecap:round;stroke-miterlimit:10"
       id="path376" />
    <path
       d="m 434.19,222.33 a 1.74,1.74 0 0 1 -1.09,2.15 c -0.8,0.14 -1.59,-0.58 -1.78,-1.62 a 1.74,1.74 0 0 1 1.09,-2.15 c 0.8,-0.14 1.59,0.58 1.78,1.62 z"
       style="fill:#263238"
       id="path378" />
    <path
       d="m 433.54,204 c 0,0 4.73,-2.48 8.33,-1.13"
       style="fill:none;stroke:#263238;stroke-linecap:round;stroke-miterlimit:10"
       id="path380" />
    <path
       d="m 428.14,205.37 a 9.5,9.5 0 0 0 -5.18,-2"
       style="fill:none;stroke:#263238;stroke-linecap:round;stroke-miterlimit:10"
       id="path382" />
    <path
       d="m 410.5,186.89 c 5.68,-3.93 9.15,-1.14 9.15,-1.14 0,0 -10,3.33 -10,9.88"
       style="fill:none;stroke:#263238;stroke-miterlimit:10"
       id="path384" />
    <path
       d="m 416.28,203.25 c 0,0 -5.69,-4.35 -5.93,-1.43 -0.18,2.18 5.93,1.43 5.93,1.43 z"
       style="fill:#ffffff;stroke:#263238;stroke-linecap:round;stroke-miterlimit:10"
       id="path386" />
    <path
       d="m 416.28,206.67 c 0,0 -5.39,0.18 -6.11,2.87 -0.72,2.69 6.11,-2.87 6.11,-2.87 z"
       style="fill:#ffffff;stroke:#263238;stroke-linecap:round;stroke-miterlimit:10"
       id="path388" />
  </g>
  <g
     id="freepik--lamp-3--inject-16"
     transform="translate(-189.04178)" />
  <g
     id="freepik--lamp-2--inject-16"
     transform="translate(-189.04178)" />
</svg>
